<svg width="61" height="71" viewBox="0 0 61 71" fill="none" xmlns="http://www.w3.org/2000/svg">
<g filter="url(#filter0_d_30_34)">
<circle cx="27" cy="24" r="24" fill="white"/>
<circle cx="27" cy="24" r="23.6" stroke="black" stroke-opacity="0.1" stroke-width="0.8"/>
</g>
<path d="M34.2002 24.8C34.642 24.8 35.0002 24.4418 35.0002 24C35.0002 23.5582 34.642 23.2 34.2002 23.2L34.2002 24.8ZM19.2345 23.4343C18.9221 23.7467 18.9221 24.2533 19.2345 24.5657L24.3257 29.6569C24.6381 29.9693 25.1446 29.9693 25.457 29.6569C25.7695 29.3444 25.7695 28.8379 25.457 28.5255L20.9316 24L25.457 19.4745C25.7695 19.1621 25.7695 18.6556 25.457 18.3431C25.1446 18.0307 24.6381 18.0307 24.3257 18.3431L19.2345 23.4343ZM34.2002 23.2L19.8002 23.2L19.8002 24.8L34.2002 24.8L34.2002 23.2Z" fill="#A2228D"/>
<defs>
<filter id="filter0_d_30_34" x="0.36" y="0" width="59.68" height="70.64" filterUnits="userSpaceOnUse" color-interpolation-filters="sRGB">
<feFlood flood-opacity="0" result="BackgroundImageFix"/>
<feColorMatrix in="SourceAlpha" type="matrix" values="0 0 0 0 0 0 0 0 0 0 0 0 0 0 0 0 0 0 127 0" result="hardAlpha"/>
<feOffset dx="3.2" dy="16.8"/>
<feGaussianBlur stdDeviation="2.92"/>
<feComposite in2="hardAlpha" operator="out"/>
<feColorMatrix type="matrix" values="0 0 0 0 0 0 0 0 0 0 0 0 0 0 0 0 0 0 0.04 0"/>
<feBlend mode="normal" in2="BackgroundImageFix" result="effect1_dropShadow_30_34"/>
<feBlend mode="normal" in="SourceGraphic" in2="effect1_dropShadow_30_34" result="shape"/>
</filter>
</defs>
</svg>
