<svg width="101" height="51" viewBox="0 0 101 51" fill="none" xmlns="http://www.w3.org/2000/svg">
<path d="M36.0316 44.0161L35.9411 44.0866L35.7464 44.2276L35.627 44.2998L35.3722 44.4464L35.6262 44.2998L35.7456 44.2276L35.9411 44.0866L36.0316 44.0169L36.139 43.9088M27.2134 44.4616L27.0467 44.4784L26.6589 44.5025L26.457 44.5129L26.0147 44.5241L25.7888 44.5281L25.3137 44.5265L25.0741 44.5241L24.5877 44.5113L24.3458 44.5033L24.2544 44.4993L24.6711 44.4977L24.9146 44.4953L25.4138 44.4897L25.667 44.4856L26.1726 44.476L26.4105 44.4704L26.6445 44.464L26.7551 44.4608L26.9698 44.4544L27.0683 44.4512L27.259 44.444L27.3424 44.4408L27.3856 44.4384M32.9782 38.587L33.1793 38.7304L33.5703 39.0117L33.7497 39.1455L34.0975 39.4075L34.2561 39.5317L34.563 39.7752L34.7016 39.8914L34.9692 40.1198L35.0894 40.2295L35.321 40.4443L35.4227 40.5476L35.6198 40.7511L35.7055 40.8497L35.869 41.0436L35.9395 41.1381L36.0725 41.3256L36.1037 41.3761L36.0925 41.3641L36.0877 41.3609L36.0621 41.3633L36.0469 41.3665L36.0044 41.3809L35.9571 41.3977L35.8193 41.461L35.7448 41.4963L35.5661 41.5916L35.2713 41.7607L34.9636 41.9442L34.3322 42.2863L34.0142 42.4537L33.3644 42.7614L33.0367 42.9112L32.3716 43.1853L32.0375 43.3167L31.3605 43.5538L31.02 43.6684L30.3341 43.8679L29.9896 43.9632L29.2973 44.1251L28.9512 44.2004L28.2557 44.323L27.9745 44.3607L27.9962 44.3534L28.0675 44.311L28.0803 44.2901L28.0899 44.2501L28.0691 44.2357L28.0082 44.2124L27.9481 44.2116L27.88 44.2084L27.8559 44.2028L27.8543 44.1972L27.8583 44.1836L27.8712 44.1732L27.9024 44.1499L27.928 44.1331L27.9953 44.0738L27.9817 44.0546H27.9449L27.9208 44.0201L27.9056 43.9656L27.8992 43.924L27.8864 43.8326L27.8816 43.775L27.8712 43.6524L27.8672 43.5811L27.8527 43.2742L27.8487 43.0963L27.8431 42.7286L27.8439 42.5379L27.8471 42.1565L27.8519 41.977L27.864 41.6285L27.8736 41.4827L27.8832 41.3424L27.8888 41.2823L27.9008 41.1694L27.9072 41.1253L27.9216 41.0452L27.9296 41.0195L27.9457 40.9787L27.9545 40.9747L27.9401 40.9627L27.8816 40.9603L27.8327 40.9619L27.7205 40.9659L27.6484 40.9707L27.4954 40.9819L27.4073 40.9899L27.2446 41.0019L27.1084 41.0091L27.0291 41.0123L26.8616 41.0187L26.7679 41.0211L26.5796 41.0268L26.6413 41.0244L26.8536 41.0123L26.9562 41.0059L27.1444 40.9899L27.3295 40.9731L27.6765 40.9218L27.7646 40.9066L27.9497 40.8721L28.0442 40.8537L28.2485 40.8112L28.3174 40.7968L28.4721 40.7607L28.5514 40.7423L28.7229 40.6999L28.8975 40.6558L29.2733 40.5548L29.4624 40.5028L29.8326 40.3946L30.3317 40.2376L30.4655 40.1927L30.7636 40.0829L30.9166 40.0252L31.2363 39.8954L31.5584 39.7632L32.1858 39.4796L32.334 39.4099L32.6032 39.2777L32.7314 39.2136L32.9437 39.099L32.9926 39.0718L33.0759 39.0221L33.1152 38.9981L33.1785 38.9556L33.2065 38.9356L33.2466 38.9019L33.277 38.8626L33.2786 38.857L33.2602 38.8298L33.2474 38.8146L33.2017 38.7705L33.1753 38.7465L33.1048 38.6872L33.0663 38.6559L32.9758 38.5846M19.6738 43.7165L20.0184 43.815L20.1994 43.8631L20.947 44.0514L21.3268 44.1347L21.7057 44.2164L21.8908 44.2525L22.2161 44.315L22.0791 44.2942L21.8131 44.2445L21.3035 44.1379L21.0519 44.0834L20.568 43.9664L20.3284 43.9056L19.8645 43.775L19.6346 43.7085L19.3117 43.6043M36.1743 43.8735L36.1751 43.8727L36.1743 43.8735ZM36.24 43.8006V43.8014L36.2608 43.7677M18.8806 43.4617L18.7396 43.4144L18.5737 43.3479M36.3545 41.8688L36.385 41.9586L36.4395 42.1373L36.4587 42.227L36.5124 42.5883L36.5116 42.7766L36.5124 42.7238L36.5012 42.5956L36.4939 42.5299L36.4699 42.3864L36.4435 42.2406L36.3641 41.9442L36.3425 41.8728L36.2968 41.7398L36.2928 41.7278M16.3103 42.3239L16.2806 42.3087L16.251 42.2927M15.4089 41.812L15.7478 42.0123L15.4882 41.864L15.2543 41.719M11.2377 38.45L11.4356 38.6535L11.8362 39.0549L12.0422 39.2496L12.4588 39.6342L12.6727 39.8193L13.1046 40.1855L13.3265 40.3617L13.7728 40.7095L14.0012 40.8753L14.4611 41.203L14.6958 41.3593L15.1229 41.6373L14.9738 41.5443L14.7191 41.3817L14.2207 41.0396L13.9739 40.8657L13.4924 40.5004L13.2536 40.3153L12.7905 39.9283L12.5606 39.732L12.1159 39.325L11.8955 39.1182L11.4701 38.6912L11.2594 38.4749L11.0879 38.2858M22.2209 40.796L23.1752 40.9498L23.1239 40.945L22.9669 40.9242L22.3523 40.8313L22.0439 40.764L21.733 40.6934L21.5727 40.6526L21.4301 40.6149M21.2058 40.554L21.0776 40.5172L21.0223 40.4996M19.6041 40.0148L19.6402 40.0292L19.4046 39.9403L19.0817 39.8001L18.9816 39.7552M18.3494 39.4604L18.5697 39.5685L18.4391 39.51L18.1267 39.3498L17.7124 39.1295M17.1452 38.8026L17.4825 39.0053L17.2061 38.841L16.6107 38.4733L16.4769 38.3819M25.8537 33.2661L26.0372 33.4464L26.4121 33.8053L26.6108 33.984L27.4802 34.7339L27.7734 34.9719L27.9272 35.0921L28.2405 35.3325L28.4088 35.4574L28.7541 35.7106L28.9424 35.8452L29.3326 36.1193L29.5489 36.2683L29.996 36.5743L30.246 36.7418L30.5 36.9117L30.6346 37.0014L30.9078 37.1833L31.0528 37.2794L31.4807 37.5647L31.4006 37.5166L31.3421 37.4813L31.2459 37.4309L31.2011 37.4084L31.1289 37.3804L31.0953 37.3692L31.0392 37.3596L30.8974 37.3844L30.6049 37.5054L30.0713 37.7153L29.8125 37.8146L29.3318 37.9837L29.097 38.0638L28.6532 38.196L28.4344 38.2585L28.0098 38.3579L27.7991 38.4035L27.3768 38.4741L27.1645 38.5053L26.7286 38.5502L26.5067 38.5694L26.0396 38.591L25.284 38.6039H25.1029L24.7648 38.5982L24.599 38.595L24.2873 38.5806L23.9812 38.5654L23.9716 38.5638H24.0004L24.0325 38.559L24.099 38.5518L24.1623 38.5478L24.2015 38.5454L24.3794 38.5366L24.4916 38.5325L24.7304 38.5253L24.8634 38.5221L25.135 38.5173L25.2744 38.5165L25.4947 38.5133L25.6269 38.5109L25.6846 38.5085L25.7944 38.5045L25.8409 38.5021L25.9282 38.4965L25.9626 38.4933L26.0267 38.4869L26.05 38.4837L26.0892 38.4757L26.0997 38.4717L26.1149 38.4636L26.1125 38.4588L26.1005 38.4492L26.0852 38.4444L25.9787 38.3971L25.9699 38.3843L25.9739 38.3803L25.9883 38.3731L26.0051 38.3723L26.0396 38.3587L26.0588 38.337L26.0668 38.317L26.0804 38.2705L26.086 38.2369L26.0964 38.16L26.0997 38.1087L26.1053 37.9957L26.1069 37.9228L26.1093 37.7666V37.6696V37.4637L26.1077 37.3403L26.1045 37.0775L26.1021 36.9237L26.0981 36.3196L26.0997 36.1417L26.1013 36.0608L26.1045 35.9037L26.1069 35.834L26.1125 35.7018L26.1157 35.6449L26.1237 35.5384L26.1277 35.4951L26.1373 35.4166L26.1429 35.3893L26.1533 35.3413L26.1597 35.33L26.1846 35.2443L26.1734 35.2251L26.1589 35.2171L26.1245 35.2035L26.0964 35.1986L26.0332 35.189L25.9883 35.1858L25.8897 35.1802L25.8256 35.1786L25.6862 35.1754H25.6806L25.8032 35.1698L26.1878 35.1297L26.2871 35.1177L26.4971 35.0881L26.6044 35.0721L26.8344 35.0352L26.9209 35.02L27.0828 34.9895L27.1613 34.9743L27.2943 34.9447L27.356 34.931L27.4457 34.9062L27.5154 34.8774L27.5226 34.8701L27.4946 34.8221L27.4738 34.7932L27.3992 34.7099L27.3568 34.665L27.2446 34.5569L27.0467 34.379L26.735 34.1114L26.1629 33.5746L25.8857 33.3046L25.679 33.0826M15.993 38.0414L15.7542 37.8723L15.481 37.6576L15.4474 37.6304M14.929 37.2009L15.0612 37.3155L14.9426 37.2185L14.6854 36.987L14.5035 36.8179M16.9817 35.6714L17.2726 35.8941L17.8623 36.3268L18.1667 36.5247L18.7813 36.9061L19.0985 37.0767L19.5432 37.3059L19.2396 37.156L18.9744 37.019L18.4608 36.7194L18.2068 36.5647L17.7124 36.2282L17.4673 36.0552L16.9905 35.681L16.7534 35.4887L16.2911 35.0737L15.61 34.4054L16.4201 35.1874M23.6687 35.0416L24.2352 35.1153L24.1487 35.1081L24.0197 35.0937L23.7745 35.0624L23.6808 35.0456L23.5838 35.0248M22.6704 34.8093L22.4212 34.7387L22.3988 34.7307M21.8251 34.5248L21.6953 34.4767L21.6681 34.4647M21.1032 34.2107L20.995 34.1611L20.9574 34.141M20.423 33.8502L20.3228 33.7949L20.2699 33.7612M19.7732 33.44L19.6818 33.3799L19.6129 33.3294M19.153 32.9809L19.0737 32.92L18.9896 32.8479M25.2407 32.6051L25.1366 32.4897L25.0773 32.4152M18.5665 32.4745L18.5016 32.4168L18.4047 32.3198M6.05781 26.8515L6.12111 27.5157L6.16518 27.8466L6.26293 28.5052L6.32382 28.8329L6.45442 29.4859L6.53214 29.8088L6.69639 30.4538L6.79093 30.7727L6.98803 31.4081L7.0986 31.7213L7.23161 32.0827L7.13947 31.8487L6.9672 31.3824L6.68036 30.4225L6.54736 29.9386L6.33824 28.9515L6.2437 28.4555L6.1123 27.4492L6.05701 26.9436L6.04179 26.6544M18.0177 31.9232L17.9688 31.8728L17.8615 31.7494M17.5097 31.3311L17.4769 31.2919L17.3623 31.138M23.986 30.9081L23.9299 30.8216L23.8803 30.7294M17.0402 30.6894L17.053 30.7078L17.0298 30.6757L16.9072 30.4826M22.9629 28.647L23.0318 28.8545L23.1768 29.268L23.2593 29.4707L23.4316 29.8737L23.5277 30.0716L23.6279 30.2687L23.6175 30.2495L23.4684 29.9618L23.2176 29.3753L23.0991 29.0805L22.9076 28.4788L22.8547 28.2584M16.6123 29.9955L16.6476 30.058L16.6284 30.0275L16.509 29.8024L16.5042 29.7944M16.2895 29.3737L16.2774 29.3489L16.2494 29.2856M16.2093 29.1943L16.1749 29.1157L16.1653 29.0933M15.9842 28.659L15.9778 28.6438L15.9537 28.5741M15.9049 28.4339L15.8928 28.4019L15.8816 28.3674M15.7342 27.9179L15.7334 27.9139L15.7214 27.8698M22.5903 26.9036L22.6552 27.3531L22.6977 27.5726L22.7489 27.8178L22.6864 27.5542L22.6488 27.3571L22.5911 26.9284L22.5646 26.7089V26.7057M15.6693 27.6703L15.6677 27.6647L15.6613 27.6391M6.00814 26.0062L6.00333 25.9253L6.00173 25.8676M5.99051 25.5174L5.99772 25.7354L5.9873 25.4157L5.99291 25.1657M15.4634 23.8597L15.4378 24.1586L15.4257 24.3116L15.4097 24.6369L15.4033 24.8012L15.3993 25.0295L15.4033 24.802L15.4097 24.6377L15.4257 24.3124L15.4378 24.1594L15.4634 23.8597L15.4802 23.7251L15.5155 23.4679V23.4671L15.4802 23.7251M11.9492 24.1554L11.9188 24.6633L11.9228 24.5528L11.9332 24.33L11.9652 23.9503M6.04099 23.8437L6.02176 24.177L6.03458 23.8829L6.0474 23.7604M13.8529 18.2792L13.5084 18.8697L13.353 19.1758L13.0541 19.7927L12.9227 20.11L12.6711 20.751L12.5638 21.0795L12.3619 21.7413L12.2801 22.0794L12.1303 22.7596L12.0742 23.1058L11.9829 23.7612L11.9917 23.6698L12.0502 23.234L12.0814 23.0168L12.1607 22.5882L12.2032 22.3742L12.3026 21.9512L12.3554 21.7405L12.4756 21.3254L12.5381 21.1179L12.6791 20.7101L12.752 20.5066L12.9123 20.1068L12.9956 19.9073L13.1759 19.5155L13.2688 19.3208L13.4691 18.9378L13.5717 18.7471L13.792 18.3729L13.9042 18.1878L13.9627 18.0981M22.8515 22.0193L22.7914 22.2877L22.6808 22.8333L22.6392 23.1186L22.5935 23.4727L22.6071 23.3477L22.6352 23.117L22.7049 22.6811L22.8331 22.0786L22.8988 21.8198L22.9925 21.5322M16.5579 20.5234L16.396 20.8271L16.1196 21.4472L15.9898 21.7597L15.7783 22.3943L15.5371 23.3597L15.6981 22.6635L15.8279 22.2116L15.9041 21.9921L16.0635 21.5562L16.154 21.3447L16.3431 20.9248L16.4481 20.7205L16.6668 20.3167L16.7622 20.1613M6.18761 22.4608L6.20043 22.3582L6.2429 22.1259M23.1375 21.0995L23.1527 21.0554L23.172 21.009M24.2913 18.8977L24.3225 18.8497L24.3946 18.7519M18.1195 18.4186L18.0121 18.5284L17.8246 18.7295L17.9071 18.6341L18.0722 18.4611L18.2517 18.2872M25.0412 17.9178L24.5413 18.5516L24.6695 18.3777L24.8481 18.143L25.1518 17.7856M18.7757 17.7856L18.6755 17.877L18.7364 17.8177L18.8277 17.7392M14.1398 17.8297L14.1438 17.8233L14.2656 17.6422L14.324 17.5629M25.5548 17.3361L25.2167 17.7095L25.2407 17.6807L25.4426 17.4515L25.5668 17.3225M20.6193 16.5117L20.6393 16.5005L20.6561 16.4925M23.3162 15.5422L23.1191 15.5823L22.7209 15.6856L22.5222 15.7401L22.1232 15.8699L21.9245 15.9372L21.5311 16.0902L21.4005 16.1439L21.4485 16.1215L21.7987 15.9773L21.9725 15.914L22.3187 15.793L22.4909 15.7417L22.8371 15.6448L23.0117 15.6039L23.3611 15.5286L23.5389 15.4989L23.5453 15.4981M26.3528 11.9447L26.57 11.9535L26.961 11.9816L27.0539 11.9904L27.2254 12.0088L27.4585 12.0416L27.7021 12.0825L28.2149 12.1923L28.4729 12.2508L28.9889 12.3878L29.2429 12.4591L29.7252 12.6153L30.3718 12.8581L30.927 13.0921L30.6025 13.3068L30.234 13.5528L30.0585 13.6721L29.7124 13.9093L29.5473 14.0239L29.222 14.2514L29.0666 14.362L28.4649 14.7971L28.1908 15.0046L27.6588 15.4132L27.4161 15.6111L27.0531 15.9124L27.0699 15.8963L27.1276 15.8427L27.2134 15.7585L27.251 15.7201L27.2999 15.6624L27.3199 15.6359L27.3375 15.5975L27.3424 15.5807L27.3327 15.5566L27.2246 15.5061L27.1989 15.4989L27.1276 15.4845L27.0884 15.4781L26.993 15.4653L26.8929 15.4525L26.6333 15.4316L26.4963 15.422L26.183 15.4076L26.0227 15.4012L25.6806 15.3924L25.5083 15.3892L25.163 15.3876H24.9924L24.6687 15.394L24.5116 15.398L24.2408 15.4116L24.4507 15.3924L24.6422 15.3828L25.0284 15.3683L25.2295 15.3675L25.5556 15.3611L25.7559 15.3515L25.8409 15.3443L25.9987 15.3283L26.054 15.3195L26.1485 15.2994L26.1654 15.289L26.2246 15.2329L26.219 15.2105H26.1918L26.1678 15.1897L26.1541 15.1552L26.1477 15.1272L26.1357 15.0623L26.1309 15.019L26.1213 14.9229L26.1173 14.862L26.1093 14.7322L26.1061 14.6536L26.1005 14.487L26.0981 14.39L26.094 14.1857L26.0924 14.0687L26.0892 13.8244L26.0884 13.6866L26.0908 13.0736L26.0932 12.8941L26.0956 12.814L26.1005 12.6594L26.1029 12.5921L26.1093 12.4639L26.1125 12.411L26.1205 12.3133L26.1245 12.2772L26.1333 12.2123L26.1381 12.1931L26.1485 12.1642H26.1541L26.2214 12.1258L26.2647 12.0697L26.2783 12.0336L26.2847 11.9944L26.2759 11.9727L26.2615 11.9647L26.2262 11.9487L26.1966 11.9431L26.1629 11.9391M19.0609 13.3989L18.8446 13.5175L18.887 13.4927L19.1642 13.342L19.2163 13.3172M21.0159 12.5672L20.016 12.947L19.6482 13.1121L19.7363 13.0696L20.0256 12.939L20.6217 12.7059L20.9221 12.5945L21.1152 12.5344M23.2088 12.0457L22.9156 12.0833L22.7746 12.1065L22.4324 12.1714L22.4981 12.1546L22.5662 12.1394L22.7209 12.1114L22.801 12.0977L22.9765 12.0721L23.1576 12.0481L23.3482 12.0296M25.3922 11.9311L25.2544 11.9343L24.9603 11.9423L24.7848 11.9471L24.1951 11.9687L23.8394 11.988L23.6759 12.0008L23.3755 12.0264L23.571 12.008L23.7841 11.9896L24.244 11.9623L24.4764 11.9495L24.9563 11.9359L25.1967 11.9303L25.4627 11.9295M28.0947 6.17267L28.8374 6.28084L29.1002 6.32651L29.6443 6.44589L29.9183 6.50999L30.4783 6.66302L30.7596 6.74315L31.3268 6.92663L31.6113 7.02197L32.1793 7.23269L32.4622 7.34086L33.0222 7.57642L33.3003 7.6966L33.8443 7.953L34.1135 8.0836L34.6343 8.35842L35.3794 8.78787L35.4387 8.82473L35.5397 8.88482L35.587 8.91286L35.6655 8.95773L35.7031 8.97856L35.764 9.00821L35.7929 9.02103L35.8401 9.03785L35.885 9.05067L35.9491 9.04106L36.0388 8.98257L36.0621 8.96094L36.0004 9.05788L35.9299 9.15323L35.7817 9.34553L35.6959 9.44488L35.5172 9.64438L35.4155 9.74774L35.2048 9.95606L35.0862 10.065L34.841 10.2846L34.7056 10.3991L34.4244 10.6323L34.2697 10.7541L33.9509 11.0017L33.777 11.1315L33.4188 11.3959L33.2241 11.5345L32.9814 11.7067L33.0126 11.6763L33.0551 11.6298L33.0823 11.5513L33.0863 11.5136L33.0359 11.4415L33.0014 11.4047L32.874 11.3262L32.8019 11.2853L32.6 11.1867L32.2146 11.0033L31.9855 10.8919L31.5183 10.6884L31.2836 10.589L30.8076 10.4087L30.5681 10.3214L30.0841 10.1652L29.8406 10.0899L29.3486 9.95606L29.1018 9.89276L28.6043 9.78299L28.3543 9.73091L27.8511 9.64518L27.5995 9.60512L27.0932 9.54343L26.852 9.51699L26.8985 9.51939L27.1677 9.53381L27.2807 9.53782L27.3888 9.54183L27.4361 9.54343L27.5258 9.54503H27.5619L27.6284 9.54423L27.6516 9.54343L27.6925 9.54022L27.7013 9.53862L27.7726 9.47292L27.7902 9.42485L27.7966 9.38879L27.8095 9.30947L27.8143 9.25579L27.8239 9.13641L27.8271 9.05949L27.8335 8.89363L27.8351 8.79028L27.8391 8.56834L27.8407 8.43373L27.8439 8.14849L27.8447 7.97944L27.8543 7.37611L27.8656 7.01156L27.8736 6.86013L27.8816 6.7143L27.8864 6.65181L27.8952 6.53403L27.9 6.48675L27.9096 6.40022L27.9152 6.37058L27.9256 6.3201L27.9305 6.31048L27.9569 6.23196L27.9449 6.19431L27.9184 6.17988L27.8495 6.15264L27.7894 6.13982L27.7854 6.13902M36.4563 8.05075L36.4114 8.23182L36.3802 8.32236L36.3129 8.50424L36.2928 8.5459L36.3617 8.35201L36.4066 8.21019L36.4691 7.92175M17.8022 7.46345L17.8534 7.44101L17.8566 7.43941M17.9897 7.38493L18.3166 7.25032L18.3246 7.24792M19.7796 6.76077L19.2924 6.91701L18.581 7.15978L19.2748 6.92182L19.7596 6.76558L20.7627 6.50518L20.7875 6.50037M20.9494 6.46752L22.3195 6.1903L22.3435 6.18629M25.5035 6.01163L25.8024 6.01563L26.3985 6.03807L26.695 6.05169L26.7903 6.0581L26.7655 6.0573L26.6573 6.05409L26.1998 6.04368L25.9466 6.04047L25.4282 6.03566H25.1638L24.6446 6.03727L24.3338 6.04047L24.1943 6.04288L23.9251 6.04848L23.8033 6.05249L23.567 6.0613L23.4596 6.06691L23.1455 6.08694L23.2401 6.07813L23.7729 6.04368L24.0445 6.02845L24.619 6.01323L24.909 6.00842L25.5035 6.01163Z" fill="#A2228D"/>
<path d="M23.802 50.3378L23.7852 50.3353L23.7347 50.3297L23.7066 50.3265L23.6361 50.3185L23.5608 50.3097L23.3613 50.2889L23.2564 50.2777L23.0168 50.2528L22.6402 50.2152L22.1202 50.1639L21.089 50.0109L20.5755 49.9259L19.5595 49.7072L19.0539 49.5902L18.0564 49.3074L17.5596 49.1583L16.583 48.8138L16.0974 48.6335L15.144 48.2297L14.6712 48.0198L13.7442 47.5575L13.2843 47.3187L12.3869 46.8003L11.9423 46.5343L11.0777 45.9615L10.6491 45.6682L9.81901 45.0433L9.40798 44.7244L8.61557 44.0481L8.22457 43.7044L7.47302 42.9809L7.10206 42.6123L6.39377 41.8424L6.04444 41.4514L5.38263 40.6365L5.05733 40.2231L4.44359 39.3658L4.14393 38.9315L3.58228 38.0333L2.80108 36.6416L2.54709 36.1537L2.0912 35.1602L1.87246 34.6602L1.48547 33.645L1.30119 33.1355L0.983904 32.1027L0.834075 31.5843L0.586497 30.5363L0.47112 30.0115L0.291646 28.9531L0.210722 28.4227L0.100153 27.357L0.0536819 26.8234L0.0120185 25.7538L0 25.2186L0.0264406 24.1489L0.0480734 23.6137L0.143419 22.5465L0.199505 22.0137L0.362955 20.9528L0.452692 20.4232L0.684246 19.3728L0.808436 18.8488L1.10809 17.8112L1.26594 17.2944L1.6329 16.2737L1.82519 15.7657L2.25945 14.765L2.4854 14.2682L2.98777 13.2915L3.81704 11.8573L4.11669 11.375L4.7721 10.4392L5.10861 9.97605L5.83212 9.08268L6.20148 8.64121L6.98748 7.79512L7.38729 7.37848L8.23018 6.58527L8.65723 6.19587L9.5514 5.46035L10.0041 5.1006L10.9423 4.42837L11.4175 4.09987L12.3966 3.49574L13.9029 2.67128L14.2025 2.52145L14.8066 2.24022L15.1103 2.10241L15.7232 1.84602L16.0301 1.72103L16.6503 1.49028L16.9611 1.37731L17.5877 1.17139L17.901 1.07124L18.5339 0.890962L18.8504 0.803628L19.489 0.648191L19.8079 0.573677L20.4505 0.443879L20.7726 0.382184L21.4191 0.278025L21.7428 0.22915L22.3926 0.149829L22.7179 0.113774L23.3701 0.0616944L23.697 0.0384588L24.3508 0.0112171L24.6785 0.00080109L25.3347 0L25.6624 0.00320497L26.3194 0.0280427L26.6479 0.0440673L27.3041 0.0953456L27.6326 0.12419L28.2888 0.201909L29.2719 0.347732L29.816 0.439872L30.8728 0.661011L31.3952 0.777989L32.3983 1.044L32.8927 1.18261L33.8293 1.48787L34.0593 1.5672L34.5031 1.73065L34.7227 1.81317L35.1457 1.98544L35.354 2.07197L35.7547 2.25064L35.9518 2.34118L36.3267 2.52626L36.5118 2.62001L36.8611 2.8115L37.0326 2.90764L37.3539 3.10475L37.5109 3.2033L37.8026 3.4044L37.9452 3.50536L38.2056 3.71047L38.3322 3.81303L38.5597 4.02135L38.8634 4.33543L38.986 4.47644L39.1975 4.76889L39.2985 4.91792L39.4707 5.23761L39.5533 5.40186L39.6919 5.76081L39.8697 6.35532L39.9154 6.53719L39.9803 6.90095L40.0084 7.08283L40.0388 7.44418L40.05 7.62446L40.0476 7.981L40.042 8.15807L40.0052 8.50741L39.9827 8.68047L39.9138 9.02019L39.8746 9.18845L39.772 9.51615L39.7167 9.67799L39.5813 9.99127L39.3425 10.4416L39.2216 10.6435L38.966 11.0216L38.8338 11.2075L38.5429 11.5689L38.3907 11.7484L38.0446 12.1089L37.9532 12.2002L37.7577 12.3845L37.6576 12.4775L37.4404 12.6682L37.3299 12.7643L37.0903 12.963L36.9669 13.0632L36.7017 13.2723L36.5655 13.3781L36.2723 13.5992L36.1216 13.7114L35.7979 13.9469L35.6321 14.0663L35.2747 14.3187L35.092 14.4469L34.6994 14.7177L34.4983 14.8555L34.0681 15.1472L33.3766 15.6103L33.2228 15.7128L32.9303 15.9083L32.7869 16.0053L32.5145 16.1887L32.2469 16.3698L31.7662 16.7015L31.5338 16.8634L31.1156 17.1606L30.9129 17.3057L30.5475 17.5757L30.3712 17.7087L30.0483 17.9595L29.8921 18.0828L29.6021 18.3224L28.808 19.0315L28.6414 19.1901L28.3337 19.5002L28.1847 19.654L27.9107 19.9569L27.7777 20.1075L27.5349 20.4064L27.4179 20.5554L27.204 20.8527L27.1014 21.0009L26.9155 21.2998L26.8258 21.4504L26.6648 21.7533L26.587 21.9063L26.45 22.2172L26.2674 22.6963L26.2401 22.7748L26.1952 22.9102L26.1744 22.9751L26.1408 23.0969L26.1255 23.1578L26.1015 23.2836L26.0911 23.3485L26.0751 23.4959L26.0679 23.5744L26.0582 23.7619L26.0542 23.8621L26.0494 24.1073L26.0478 24.2387L26.0462 24.5591L26.0454 24.6449V24.8332V25.144V25.2538V25.4549V25.5519L26.0462 25.7289L26.047 25.9004L26.0494 26.1808L26.0518 26.3122L26.0582 26.5262L26.0622 26.6263L26.0751 26.7922L26.0823 26.8699L26.1015 27.0045L26.1127 27.0702L26.1408 27.1912L26.1568 27.2521L26.1952 27.3779L26.2674 27.5918L26.3226 27.7544L26.45 28.0709L26.5157 28.2272L26.6648 28.5348L26.7425 28.6871L26.9155 28.9883L27.0053 29.1381L27.204 29.4354L27.3073 29.5844L27.5349 29.8817L27.6527 30.0307L27.9107 30.3312L28.0437 30.4818L28.3337 30.7879L28.808 31.2566L29.0612 31.497L29.6029 31.9665L29.7447 32.0859L30.0499 32.3302L30.207 32.4536L30.5491 32.7132L30.7262 32.8462L31.1172 33.129L31.3191 33.2741L31.767 33.5865L31.9993 33.7484L32.5153 34.0993L32.6491 34.1899L32.9311 34.379L33.3766 34.677L33.5377 34.7836L33.8445 34.9895L33.996 35.0912L34.2844 35.2867L34.5688 35.4798L35.084 35.8364L35.3332 36.0103L35.7835 36.3315L36.0006 36.4886L36.3908 36.7794L36.5791 36.9212L36.9148 37.1856L37.0767 37.3146L37.3635 37.5558L37.5021 37.6744L37.7457 37.8979L38.0694 38.2168L38.2449 38.4003L38.5573 38.7552L38.7072 38.9307L38.97 39.2736L39.095 39.4443L39.3097 39.7816L39.4106 39.9499L39.5797 40.2848L39.659 40.453L39.7848 40.792L39.8433 40.9626L39.9282 41.3104L39.9667 41.4858L40.0132 41.8472L40.0436 42.4104L40.0452 42.65L40.006 43.1379L39.9787 43.3815L39.8866 43.8582L39.8345 44.0938L39.6943 44.5361L39.4379 45.1338L39.3634 45.2756L39.1751 45.5552L39.0741 45.6947L38.8346 45.9695L38.708 46.1065L38.4195 46.3765L38.2689 46.5103L37.934 46.7739L37.7601 46.9045L37.3811 47.1593L37.1864 47.2859L36.7658 47.5319L36.5503 47.6545L36.0904 47.8908L35.8564 48.007L35.3597 48.2329L35.1073 48.3435L34.5777 48.5566L34.3084 48.6616L33.7468 48.8619L33.4624 48.9596L32.8719 49.1455L32.573 49.2361L31.9561 49.4059L31.6444 49.4893L31.0026 49.6423L30.6797 49.7168L30.0171 49.8522L29.683 49.9179L29.0011 50.0349L27.9595 50.1887L27.9035 50.1959L27.7697 50.2104L27.6999 50.2176L27.5421 50.232L27.3795 50.2456L27.0005 50.2713L26.8042 50.2833L26.3819 50.3057L26.168 50.3161L25.7337 50.3329L25.5182 50.341L25.1048 50.3514L24.9029 50.3562L24.5407 50.3594L24.455 50.3602L24.2987 50.3594L24.2234 50.3586L24.0912 50.3554L24.0279 50.3538L23.923 50.3482L23.8749 50.3458M27.6663 46.733L27.9804 46.6922L28.6109 46.5912L28.9266 46.5383L29.5548 46.4158L29.8689 46.3517L30.489 46.2074L30.7975 46.1337L31.4048 45.9703L31.7053 45.887L32.2926 45.7059L32.5834 45.6137L33.1459 45.4166L33.4231 45.3165L33.9543 45.105L34.7107 44.7732L34.899 44.6851L35.2202 44.5249L35.3725 44.4463L35.6273 44.2997L35.7467 44.2276L35.9413 44.0866L36.0319 44.0161L36.1745 43.8735L36.2402 43.8006L36.3372 43.6475L36.3812 43.569L36.4405 43.3975L36.4661 43.3094L36.495 43.1115L36.5118 42.7766L36.5126 42.5883L36.4589 42.227L36.4397 42.1372L36.3852 41.9585L36.3548 41.8688L36.2763 41.6893L36.2338 41.5996L36.1288 41.4169L36.0727 41.3256L35.9397 41.1381L35.8692 41.0435L35.7058 40.8497L35.6201 40.7511L35.423 40.5476L35.3212 40.4442L35.0896 40.2295L34.9695 40.1197L34.7018 39.8914L34.5632 39.7752L34.2564 39.5316L34.0977 39.4074L33.75 39.1454L33.5705 39.0116L33.1795 38.7304L32.9784 38.587L32.5417 38.2833L32.3182 38.1279L31.8343 37.8002L31.0531 37.2794L30.9081 37.1832L30.6348 37.0014L30.5002 36.9116L30.2462 36.7418L29.9963 36.5743L29.5492 36.2682L29.3328 36.1192L28.9426 35.8452L28.7544 35.7106L28.409 35.4574L28.2408 35.3324L27.9275 35.092L27.7737 34.9719L27.4804 34.7339L26.6111 33.984L26.4124 33.8053L26.0374 33.4463L25.8539 33.2661L25.5094 32.9039L25.3411 32.722L25.0263 32.3559L24.8724 32.1716L24.5872 31.7998L24.4478 31.6131L24.1914 31.2349L24.0664 31.0443L23.8388 30.6589L23.7283 30.465L23.528 30.0716L23.4318 29.8737L23.2596 29.4707L23.177 29.2679L23.032 28.8545L22.9631 28.647L22.8453 28.2223L22.7892 28.0092L22.6979 27.5726L22.6554 27.353L22.5905 26.9035L22.5609 26.6768L22.5216 26.2129L22.5048 25.9789L22.4904 25.5006L22.4864 25.2586L22.4976 24.7643L22.5409 24.0023L22.5657 23.6978L22.6394 23.1185L22.6811 22.8333L22.7916 22.2877L22.8517 22.0193L23.0008 21.5025L23.0809 21.2469L23.2716 20.7517L23.3725 20.5065L23.6073 20.0274L23.7299 19.7887L24.0111 19.3191L24.1577 19.0852L24.4878 18.6197L25.0415 17.9178L25.2065 17.7207L25.5551 17.3361L25.7329 17.1446L26.1127 16.7648L26.3074 16.5757L26.7281 16.1944L26.9444 16.0021L27.4163 15.6111L27.6591 15.4132L28.1911 15.0045L28.4651 14.797L29.0668 14.362L29.2223 14.2514L29.5476 14.0238L29.7126 13.9093L30.0588 13.6721L30.2342 13.5527L30.6028 13.3067L31.1805 12.9238L31.4417 12.7531L31.9288 12.4278L32.1668 12.2684L32.6099 11.9655L32.8254 11.8173L33.2244 11.5344L33.4191 11.3958L33.7772 11.1314L33.9511 11.0016L34.27 10.754L34.4246 10.6323L34.7059 10.3991L34.8413 10.2845L35.0864 10.065L35.205 9.95602L35.4157 9.7477L35.5175 9.64434L35.6962 9.44484L35.7819 9.34549L35.9301 9.15319L36.0006 9.05785L36.12 8.87116L36.1769 8.77822L36.2698 8.59474L36.3131 8.5042L36.3804 8.32232L36.4117 8.23178L36.4565 8.05071L36.5118 7.49786V7.40492L36.5006 7.23506L36.4934 7.15334L36.4669 7.00351L36.4517 6.9314L36.4085 6.79919L36.3852 6.7351L36.3227 6.61651L36.2891 6.55883L36.2057 6.44986L36.1609 6.39698L36.0551 6.29603L35.999 6.24555L35.8676 6.1478L35.6409 6.00117L35.4366 5.88019L34.9687 5.64062L34.7259 5.52124L34.1899 5.28969L33.9142 5.17511L33.3189 4.95397L33.0153 4.84501L32.3711 4.63749L32.0442 4.53573L31.3615 4.34504L31.0162 4.2521L30.3039 4.08144L29.945 3.99891L29.2135 3.85069L28.1054 3.65839L27.9083 3.62795L27.4652 3.57827L27.236 3.55584L26.7425 3.52218L26.4909 3.50696L25.9653 3.48853L25.6993 3.48132L25.1585 3.47812L24.8868 3.47892L24.3476 3.49094L24.08 3.49975L23.5608 3.52699L23.3052 3.54302L22.8229 3.58628L22.1595 3.66881L21.6868 3.74012L20.7694 3.91879L20.3151 4.01494L19.4297 4.24168L18.9906 4.36187L18.1349 4.63989L17.7095 4.78491L16.8794 5.11422L16.4668 5.28568L15.6575 5.66786L15.2553 5.86577L14.4653 6.30243L14.0719 6.52838L13.2955 7.02113L12.1442 7.82556L12.0737 7.87844L11.9198 7.99863L11.8405 8.06192L11.6714 8.20134L11.5 8.34556L11.1218 8.68047L10.9287 8.85353L10.5249 9.23171L10.3222 9.42401L9.91275 9.82462L9.71004 10.0265L9.31584 10.4295L9.12275 10.629L8.7654 11.0144L8.59233 11.2027L8.29188 11.5497L8.22057 11.633L8.09317 11.7884L7.92572 12.004L7.64288 12.3829L7.12209 13.1425L6.8689 13.5231L6.40499 14.2898L6.17985 14.6744L5.77122 15.4532L5.57252 15.845L5.21597 16.6422L5.04371 17.0437L4.73684 17.8641L4.58942 18.2783L4.32982 19.1292L4.20563 19.5587L3.9917 20.4441L3.71768 21.819L3.69765 21.9335L3.6648 22.1418L3.64878 22.2444L3.62314 22.4423L3.61112 22.5417L3.59109 22.7444L3.58228 22.8485L3.56866 23.0729L3.56225 23.1898L3.55343 23.4527L3.54862 23.5905L3.54382 23.9077L3.54141 24.0752L3.53901 24.4638L3.53821 24.5656V24.7867L3.53741 25.144V25.269L3.53821 25.5014V25.6144L3.53901 25.8243L3.53981 26.0294L3.54382 26.3803L3.54622 26.547L3.55343 26.8354L3.55744 26.9732L3.56866 27.2152L3.57507 27.3314L3.59109 27.5437L3.6007 27.6471L3.62314 27.8458L3.63516 27.9451L3.6648 28.1462L3.71768 28.4691L3.79861 28.9378L3.9917 29.844L4.09346 30.2919L4.32982 31.1588L4.45401 31.5883L4.73684 32.424L4.88427 32.8374L5.21597 33.6458L5.38824 34.0472L5.77122 34.8349L5.96912 35.2267L6.40499 35.9982L6.63014 36.3828L7.12209 37.1456L7.92572 38.2841L7.97619 38.3506L8.09237 38.4981L8.15326 38.5734L8.28947 38.736L8.43049 38.9019L8.76219 39.2696L8.93446 39.4579L9.31264 39.8545L9.50573 40.0548L9.91035 40.4603L10.1139 40.6622L10.5241 41.0556L10.7276 41.2487L11.1226 41.6092L11.3157 41.7839L11.6746 42.0915L11.7612 42.1637L11.9238 42.2959L12.1498 42.4713L12.4967 42.7301L13.201 43.2125L13.5543 43.448L14.273 43.8847L14.6352 44.097L15.3707 44.4888L15.7401 44.6787L16.4948 45.0256L16.8738 45.1931L17.6486 45.496L18.0388 45.6426L18.8352 45.9022L19.2366 46.0272L20.0579 46.2451L21.3182 46.5255L21.4929 46.56L21.8983 46.6257L22.1098 46.6585L22.5833 46.7202L22.8285 46.7507L23.3669 46.8092L24.2427 46.8901L24.3196 46.8965L24.5287 46.9037L24.6401 46.9061L24.9053 46.9053L25.0439 46.9037L25.3484 46.8957L25.5046 46.8909L25.8323 46.8773L26.1624 46.862L26.8194 46.8172L26.978 46.8052L27.2729 46.7771L27.4155 46.7635M38.865 37.3443L38.8009 37.2417L38.6271 37.007L38.5333 36.8852L38.3098 36.6184L38.192 36.4822L37.9284 36.1953L37.7922 36.0503L37.4981 35.7531L37.2001 35.4558L36.5591 34.8749L36.3996 34.7347L36.0816 34.4711L35.6201 34.1113L35.5568 34.0641L35.4077 33.9551L35.3292 33.8982L35.1553 33.7716L34.9767 33.6418L34.5721 33.3502L34.3661 33.2028L33.9439 32.9023L33.3462 32.4793L33.1515 32.3422L32.7997 32.0923L32.6291 31.9705L32.3198 31.7469L32.1708 31.638L31.8984 31.4353L31.7662 31.3359L31.5234 31.1484L31.4048 31.0563L31.1853 30.88L31.0779 30.7927L30.8744 30.6212L30.2911 30.1004L30.0892 29.9121L29.7222 29.5267L29.5452 29.3328L29.2279 28.9354L29.0756 28.7359L28.808 28.3273L28.6814 28.1222L28.4643 27.704L28.3618 27.494L28.1951 27.0654L28.1182 26.8506L28.0028 26.414L27.9515 26.1944L27.8866 25.749L27.8482 25.0727V24.846L27.8826 24.4061L27.9051 24.189L27.9868 23.7659L28.0333 23.556L28.1639 23.1466L28.2352 22.9423L28.4154 22.5417L28.5124 22.3422L28.7455 21.9472L28.8681 21.7501L29.1558 21.3575L29.3056 21.1612L29.6485 20.7677L30.227 20.1716L30.4602 19.9465L30.9065 19.5443L31.0202 19.4441L31.2614 19.243L31.3848 19.1413L31.654 18.9281L31.7934 18.8192L32.1051 18.5836L32.2677 18.4626L32.6363 18.1934L32.7324 18.1237L32.9376 17.9763L33.0425 17.9018L33.2669 17.7423L33.3814 17.6606L33.6258 17.4875L34.0176 17.2119L34.1867 17.0933L34.5072 16.8658L34.6642 16.7536L34.9622 16.5381L35.1081 16.4315L35.3853 16.2264L35.5207 16.1247L35.7779 15.9292L36.0295 15.7361L36.4798 15.3731L36.6961 15.1944L37.0815 14.8555L37.2682 14.6881L37.5999 14.3636L37.7601 14.2025L38.0486 13.8836L38.1888 13.7242L38.4436 13.4021L38.7985 12.9053L38.8586 12.8148L38.9748 12.6489L39.0309 12.5696L39.1278 12.4382L39.1735 12.3789L39.2424 12.2964L39.3009 12.2443H39.3097L39.3377 12.3012L39.353 12.3381L39.3906 12.4574L39.4098 12.5223L39.4539 12.6874L39.4771 12.7739L39.5236 12.9694L39.5701 13.1689L39.6558 13.592L39.6751 13.6945L39.7079 13.886L39.7424 14.136L39.756 14.2554L39.7616 14.5102L39.7608 14.64L39.7383 14.9124L39.7247 15.0494L39.6767 15.3314L39.6502 15.4733L39.5781 15.7593L39.5396 15.9019L39.4467 16.1855L39.397 16.3266L39.2833 16.6006L39.224 16.736L39.091 16.9956L38.873 17.3601L38.7408 17.5588L38.4548 17.9098L38.3771 17.9971L38.204 18.171L38.1135 18.2583L37.906 18.4402L37.7962 18.5331L37.5422 18.7326L37.4084 18.8352L37.0975 19.0611L36.9341 19.1781L36.5559 19.4385L36.4565 19.5066L36.2434 19.6508L35.9005 19.88L35.6689 20.0346L35.1898 20.3583L34.9526 20.5202L34.4999 20.831L34.391 20.9064L34.1867 21.0482L34.0881 21.1171L33.9086 21.2437L33.8229 21.3046L33.6747 21.4103L33.4952 21.5417L33.242 21.7316L32.7637 22.1418L32.5321 22.3494L32.1187 22.7708L32.021 22.8758L31.8423 23.0825L31.7565 23.1842L31.6043 23.3829L31.5322 23.4807L31.4104 23.6674L31.2662 23.9294L31.2374 23.9903L31.1885 24.0968L31.166 24.1481L31.1292 24.2411L31.0939 24.3316L31.0531 24.5047L31.0354 24.5952L31.0202 24.8147L31.017 24.8756L31.0146 25.0166L31.013 25.2642V25.3564L31.0146 25.5134L31.0154 25.5871L31.0194 25.7129L31.0242 25.8323L31.0499 26.0094L31.0659 26.0927L31.122 26.2425L31.2534 26.5021L31.3231 26.6279L31.4849 26.8739L31.5715 26.9965L31.775 27.2416L31.8831 27.3658L32.1395 27.6198L32.2749 27.7488L32.593 28.0204L32.7613 28.159L33.1531 28.4571L33.2556 28.5332L33.4768 28.6927L33.5905 28.7736L33.8341 28.9418L33.9583 29.0276L34.2251 29.2071L34.3613 29.2984L34.6522 29.4891L34.8012 29.5868L35.1185 29.7903L35.6241 30.1116L35.8067 30.227L36.124 30.4289L36.2747 30.5259L36.5367 30.6973L36.6616 30.7799L36.8796 30.9289L36.9837 31.001L37.168 31.1356L37.3467 31.2678L37.648 31.5226L38.1047 31.9545L38.2529 32.1027L38.5149 32.3895L38.6407 32.5321L38.8578 32.8134L38.9612 32.9536L39.1374 33.2348L39.22 33.3758L39.357 33.6635L39.4203 33.8093L39.5204 34.1089L39.5669 34.262L39.6334 34.5809L39.663 34.7435L39.6991 35.088L39.7215 35.6401V35.7394L39.7119 35.9582L39.7055 36.0695L39.6839 36.3035L39.6598 36.5391L39.5861 37.0014L39.5661 37.1127L39.5228 37.317L39.5004 37.4148L39.4539 37.5847L39.4307 37.664L39.3834 37.7874L39.3145 37.9051L39.3065 37.9132L39.2608 37.8795L39.2336 37.8555L39.1583 37.7657L39.1174 37.7145L39.0213 37.5807L38.9716 37.5093M78.9423 36.9821L78.9134 36.9421L78.8397 36.8411L78.8013 36.7874L78.7115 36.6632L78.6186 36.5335L78.3975 36.2242L77.6852 35.2178L77.5714 35.0552L77.3559 34.7603L77.3046 34.6898L77.2068 34.5616L77.1604 34.4999L77.0738 34.3894L77.0322 34.3373L76.9601 34.2492L76.9256 34.2075L76.8687 34.1442L76.8431 34.1162L76.8046 34.0801L76.7718 34.0617L76.7662 34.0633L76.7293 34.1009L76.7077 34.1258L76.642 34.2043L76.6059 34.2484L76.5138 34.3645L76.4649 34.4262L76.3503 34.5737L76.291 34.6506L76.158 34.8252L76.0891 34.9158L75.9409 35.1129L75.4546 35.7659L74.2207 37.4428L73.2223 37.414L73.1222 37.4116L72.9403 37.4092L72.8522 37.4076L72.6951 37.406L72.6198 37.4052L72.4884 37.4012L72.4259 37.3988L72.321 37.3884L72.2721 37.3827L72.1936 37.3635L72.1575 37.3523L72.107 37.3203L72.0854 37.3026L72.063 37.2546L72.0558 37.2281L72.0622 37.16L72.0694 37.124L72.1054 37.0326L72.1271 36.9845L72.1936 36.8668L72.2304 36.8043L72.3274 36.6576L72.3802 36.5799L72.5084 36.3988L72.5766 36.3043L72.7376 36.0864L72.8225 35.9726L73.0156 35.7154L73.1166 35.5808L73.3441 35.2795L73.7231 34.774L75.598 32.2653L73.8008 29.7262L72.0045 27.1872L72.6615 27.1351L72.7512 27.1279L72.9547 27.1143L73.0573 27.1078L73.2672 27.0958L73.3714 27.0902L73.5629 27.0822L73.8032 27.075L74.2896 27.067L74.8008 27.7681L74.9738 28.0044L75.3328 28.4972L75.5138 28.7463L75.8864 29.2591L76.2614 29.7759L77.0298 30.8375L77.4135 31.368L78.1691 32.4152L78.355 32.6731L78.7171 33.1763L78.8966 33.4247L79.2411 33.9046L79.411 34.141L79.7323 34.5897L79.8901 34.8092L80.1842 35.2194L80.3268 35.4197L80.5872 35.7843L80.713 35.9606L80.9349 36.2731L81.0407 36.4221L81.2186 36.6745L81.2602 36.7338L81.3339 36.8395L81.37 36.89L81.4309 36.9781L81.4597 37.0198L81.5078 37.0895L81.5302 37.1223L81.5639 37.1728L81.5791 37.1953L81.5983 37.2257L81.6104 37.2473V37.2682L81.5807 37.301L81.5102 37.3243H81.4966L81.4084 37.3339L81.3556 37.3403L81.2041 37.3595L81.1224 37.3699L80.9277 37.3964L80.6088 37.442L80.4518 37.4645L80.1962 37.5013L80.0768 37.5182L79.8861 37.5406L79.7972 37.5486L79.657 37.5518L79.5913 37.5502L79.4863 37.5294L79.4366 37.5158L79.3517 37.4677L79.3101 37.4396L79.2307 37.3595L79.1907 37.3154L79.1017 37.2001L79.0553 37.1376M45.395 34.5608V31.7942H49.2032H53.0122L52.989 32.6956L52.9666 33.597L50.0637 33.6178L47.1609 33.6386L47.1393 35.4606L47.1176 37.2826L46.2563 37.305L45.395 37.3283V34.5608ZM54.4488 32.2493V27.1735L55.3037 27.1976L55.4504 27.2024L55.6883 27.2152L55.7989 27.2224L55.9672 27.2408L56.0425 27.2513L56.1434 27.2777L56.2243 27.325L56.226 27.3282L56.2308 27.3562L56.2332 27.373L56.2372 27.4275L56.2396 27.458L56.2436 27.5373L56.2452 27.5798L56.2492 27.6823L56.2516 27.7368L56.2548 27.8618L56.2572 27.9267L56.2604 28.0725L56.2644 28.2223L56.27 28.5797L56.2732 28.7672L56.2788 29.1894L56.2812 29.4074L56.2844 29.8825L56.2868 30.1253L56.2892 30.6428L56.2901 31.4537L56.2917 35.4798H58.9782H61.6655L61.6422 36.3812L61.6198 37.2826L58.0343 37.3034L54.4488 37.3243V32.2493ZM63.1565 37.1897L63.1485 37.1824L63.1349 37.1039L63.1285 37.055L63.1181 36.9084L63.1133 36.8283L63.1061 36.6336L63.1021 36.3075V35.4798H66.9504H70.7994L70.7762 36.3412L70.7538 37.2025L66.9824 37.2233L66.7228 37.2249L66.2236 37.2265L65.9777 37.2273H65.5137H65.2862L64.868 37.2257L64.6653 37.2249L64.3023 37.2217L64.1292 37.2209L63.8328 37.2169L63.6942 37.2145L63.4746 37.2097L63.4258 37.2081L63.3424 37.2049L63.304 37.2033L63.2439 37.2001L63.2174 37.1985L63.1814 37.1953L63.167 37.1937M63.1021 32.2749V31.3936H66.9479H70.7938V32.2749V33.1563H66.9479H63.1021V32.2749ZM39.1142 31.7718L39.0669 31.6372L38.9395 31.3631L38.8698 31.2261L38.6968 30.9457L38.6038 30.8039L38.3811 30.513L38.2633 30.3664L37.9885 30.062L37.8435 29.9073L37.5125 29.5852L37.3395 29.421L36.9493 29.0781L36.7466 28.9034L36.2931 28.5356L35.5399 27.9515L35.3661 27.8209L35.04 27.5693L34.8813 27.4452L34.5849 27.208L34.4415 27.0918L34.1786 26.8723L34.0513 26.7649L33.8245 26.5646L33.7155 26.4669L33.5265 26.289L33.4367 26.2025L33.2885 26.0486L33.2196 25.9749L33.1146 25.8475L33.0081 25.6889L32.968 25.612L32.9215 25.4205L32.9039 25.3211L32.9007 25.1072L32.9047 25.0006L32.944 24.7955L33.0489 24.5327L33.081 24.4806L33.1595 24.3725L33.2004 24.318L33.3005 24.2034L33.3542 24.1449L33.48 24.0199L33.5465 23.9558L33.7027 23.8172L33.7845 23.7459L33.9743 23.5905L34.0737 23.5103L34.3004 23.3341L34.419 23.2435L34.6866 23.044L35.1393 22.7155L35.3821 22.5409L35.8268 22.2051L36.0431 22.0393L36.4357 21.7188L36.6264 21.5602L36.9709 21.2501L37.1384 21.0954L37.4396 20.7926L37.5847 20.6412L37.8459 20.3399L37.9716 20.1893L38.1968 19.8872L38.305 19.735L38.4972 19.4273L38.7536 18.9546L38.7905 18.8801L38.8618 18.7447L38.8963 18.6798L38.958 18.5724L38.9876 18.5235L39.0333 18.4562L39.0765 18.4137H39.0845L39.1166 18.461L39.1342 18.4915L39.1823 18.5892L39.2079 18.6437L39.2672 18.7799L39.2977 18.8512L39.3618 19.0123L39.4275 19.1773L39.5533 19.5267L39.5829 19.6108L39.6342 19.7694L39.6951 19.9761L39.7408 20.1492L39.8008 20.4945L39.8257 20.6668L39.8441 21.0081L39.8481 21.178L39.8265 21.5129L39.8105 21.6795L39.7488 22.0056L39.7127 22.1675L39.6118 22.4816L39.5557 22.637L39.4163 22.9375L39.3409 23.0849L39.1631 23.3677L38.8538 23.7691L38.8033 23.826L38.6559 23.9678L38.5758 24.0416L38.3851 24.2018L38.2873 24.2827L38.0782 24.4422L37.7697 24.6593L37.0494 25.1336L37.5718 25.4637L37.6952 25.5414L37.9284 25.7129L38.043 25.8018L38.2601 25.9949L38.3659 26.0935L38.5638 26.305L38.6599 26.4132L38.8378 26.6415L38.9243 26.7577L39.0797 27.0013L39.1551 27.1247L39.2889 27.3811L39.3522 27.5101L39.4611 27.7777L39.5949 28.1887L39.6206 28.2832L39.6614 28.4988L39.6807 28.6109L39.7071 28.8561L39.7191 28.9819L39.7327 29.2479L39.7375 29.3833V29.6629L39.7335 29.945L39.6855 30.5146L39.6702 30.6541L39.6294 30.9265L39.5533 31.3135L39.5292 31.4184L39.4804 31.6139L39.4563 31.7077L39.4123 31.8679L39.3906 31.9424L39.3554 32.0498L39.3193 32.1323L39.3113 32.1403L39.2857 32.1219L39.2712 32.1075L39.2352 32.0506L39.2168 32.0177L39.1759 31.9304L39.1559 31.8831M77.0995 30.4834L77.1043 30.4762L77.1379 30.4281L77.1588 30.3985L77.2221 30.3103L77.2573 30.2623L77.3478 30.1389L77.3959 30.074L77.5089 29.9209L77.5682 29.8408L77.7004 29.6621L77.7693 29.5708L77.9175 29.3713L78.4039 28.7207L79.6441 27.067H80.8308H82.0174L81.5887 27.6479L81.5591 27.6879L81.4854 27.7889L81.4461 27.8426L81.354 27.9668L81.2586 28.0958L81.0311 28.405L80.2924 29.4106L79.4238 30.5924H78.23H78.1066L77.8967 30.5916L77.7965 30.5908L77.6307 30.5884L77.5522 30.5868L77.4256 30.582L77.3671 30.5787L77.2757 30.5715L77.2341 30.5675L77.174 30.5571L77.1475 30.5515L77.1155 30.5387L77.1019 30.5315L77.0923 30.5138L77.0898 30.505M45.395 28.0893V27.1872H49.2032H53.0114L52.989 28.0685L52.9666 28.9499L49.1808 28.9707L45.395 28.9915V28.0893ZM63.1365 28.885L63.1309 28.8705L63.1229 28.7816L63.1189 28.7295L63.1149 28.5797L63.1133 28.4996V28.3089L63.1189 27.9972L63.1421 27.2152L66.9479 27.2192L70.7538 27.2232V28.0861V28.9499L66.9656 28.9707L66.7725 28.9715L66.4135 28.9731L66.2381 28.9739L65.9144 28.9755L65.7565 28.9763H65.4665L65.3255 28.9771L65.0667 28.9763H64.9417L64.7133 28.9755H64.6028L64.4033 28.9739L64.3071 28.9731L64.134 28.9707L64.0515 28.9699L63.9033 28.9667L63.8328 28.9651L63.7086 28.9611L63.6493 28.9595L63.5475 28.9547L63.4498 28.9499L63.3144 28.937L63.2551 28.9306L63.1838 28.9146L63.1557 28.9058M81.5415 24.9237L81.5399 24.9205L81.5262 24.8884L81.5174 24.8684L81.491 24.8043L81.4766 24.7691L81.4381 24.6753L81.4173 24.6256L81.3676 24.5047L81.3419 24.4406L81.2819 24.2939L81.2514 24.2178L81.1817 24.048L81.1464 23.9606L81.0687 23.7691L81.0287 23.6714L80.9437 23.4607L80.8564 23.2451L80.6617 22.766L80.5624 22.5192L80.3476 21.9896L80.2387 21.7196L80.0111 21.1555L79.8957 20.8703L79.661 20.2886L79.4254 19.7053L78.9623 18.5556L78.8493 18.2751L78.6338 17.7391L78.5281 17.4763L78.3317 16.9876L78.2372 16.7512L78.0673 16.3274L78.0265 16.2264L77.952 16.0389L77.9151 15.9484L77.8494 15.7825L77.8174 15.7032L77.7605 15.5614L77.734 15.4933L77.6876 15.3779L77.6667 15.3234L77.6315 15.2353L77.5938 15.1375L77.573 15.0847L77.5297 15.0142L77.4792 14.9869L77.472 14.9941L77.4544 15.0614L77.4448 15.1031L77.424 15.2329L77.4127 15.305L77.3887 15.4901L77.3767 15.5886L77.3502 15.821L77.3366 15.942L77.3086 16.2128L77.2942 16.3522L77.2653 16.6543L77.2365 16.9627L77.178 17.6374L77.1491 17.9795L77.0963 18.6733L77.0706 19.0171L77.0282 19.6661L77.0177 19.8231L77.0009 20.1164L76.9937 20.2598L76.9809 20.5202L76.9753 20.6452L76.9681 20.8647L76.9641 21.1379V21.3486L76.9777 21.7316L76.9873 21.9167L77.0201 22.25L77.0394 22.4111L77.0923 22.6979L77.1211 22.8357L77.1956 23.0785L77.2349 23.1947L77.331 23.3958L77.3815 23.4911L77.5001 23.6546L77.5618 23.7315L77.7044 23.8581L77.9448 24.0111L78.0185 24.0472L78.129 24.1113L78.1787 24.1417L78.246 24.2002L78.2749 24.229L78.3077 24.2899L78.3253 24.3917V24.5832H76.3223H74.3192V24.3949V24.3604L74.34 24.2939L74.3537 24.2611L74.4065 24.1946L74.4378 24.1601L74.5275 24.0872L74.7102 23.9638L74.7887 23.915L74.9137 23.8212L74.973 23.7731L75.0724 23.6666L75.1204 23.6105L75.2094 23.4727L75.3488 23.2107L75.4113 23.0825L75.5323 22.7836L75.5932 22.6282L75.7101 22.2765L75.7678 22.0946L75.8792 21.6948L75.9345 21.4897L76.0394 21.045L76.0915 20.8174L76.1893 20.3327L76.2373 20.0851L76.3271 19.5643L76.3711 19.2991L76.4513 18.7455L76.561 17.8825L76.6091 17.4699L76.6852 16.6575L76.7029 16.4588L76.7325 16.0798L76.7461 15.8939L76.7678 15.5478L76.7774 15.3803L76.7902 15.0791L76.7958 14.9348L76.7998 14.6905L76.8006 14.5759L76.7942 14.3988L76.7734 14.2209L76.7573 14.1576L76.6748 14.0423L76.6267 13.9878L76.4921 13.898L76.4192 13.8572L76.2478 13.8019L75.9657 13.7666H75.9L75.8103 13.7602L75.7718 13.7554L75.7254 13.7298L75.7061 13.7138L75.6885 13.6577L75.6813 13.5263V13.2859H77.1483H78.6146L79.3477 15.1087L79.4126 15.2689L79.5496 15.6087L79.6185 15.7817L79.7643 16.1423L79.911 16.5068L80.221 17.2736L80.3765 17.6598L80.6906 18.4354L80.846 18.82L81.1456 19.5595L81.2186 19.7406L81.3596 20.0867L81.4285 20.2566L81.5591 20.5787L81.6224 20.7357L81.741 21.0273L81.7986 21.1684L81.9028 21.424L81.9525 21.5465L82.0398 21.7605L82.0807 21.8622L82.1488 22.0289L82.1808 22.1058L82.2273 22.2196L82.2714 22.3245L82.3851 22.5889L83.732 19.4001L83.8201 19.1901L83.9908 18.7847L84.0749 18.5844L84.236 18.1998L84.3153 18.0099L84.4667 17.6454L84.542 17.4659L84.6839 17.123L84.7536 16.9539L84.8858 16.6318L84.9507 16.474L85.0732 16.1743L85.1325 16.0269L85.2447 15.7497L85.2992 15.6135L85.401 15.3587L85.4506 15.2345L85.542 15.0029L85.5868 14.89L85.667 14.6816L85.7062 14.5807L85.7759 14.3964L85.8096 14.3075L85.8681 14.148L85.8961 14.0711L85.9442 13.9365L85.9658 13.8724L86.0027 13.7626L86.0195 13.7114L86.0443 13.6272L86.0684 13.5311L86.1172 13.2859H87.7549H89.3927L89.3678 13.5062L89.3614 13.5567L89.3422 13.6272L89.3294 13.6585L89.2797 13.7001L89.2492 13.7186L89.1499 13.7442L88.9207 13.7779L88.8062 13.7923L88.6131 13.8307L88.5225 13.8524L88.3743 13.9141L88.3054 13.9493L88.1988 14.0431L88.15 14.0951L88.0794 14.2314L88.049 14.3059L88.0121 14.4934L87.9977 14.5943L87.9897 14.8427V14.9749L88.0073 15.2938L88.0129 15.3787L88.0282 15.5622L88.0578 15.8618L88.0658 15.9404L88.0851 16.1287L88.0947 16.2272L88.1171 16.4475L88.1395 16.6743L88.1892 17.1919L88.2149 17.4555L88.2669 17.9995L88.339 18.7743L88.3639 19.0443L88.4104 19.5403L88.4328 19.7806L88.4744 20.2213L88.4953 20.4344L88.5337 20.8222L88.5522 21.0105L88.5874 21.3494L88.605 21.5137L88.6371 21.8077L88.6539 21.9496L88.6844 22.2027L88.6996 22.3245L88.7292 22.5393L88.7445 22.6426L88.7733 22.8237L88.7877 22.9102L88.8166 23.0609L88.831 23.133L88.8606 23.2564L88.8759 23.3148L88.9063 23.415L88.9215 23.4631L88.9544 23.5432L88.9872 23.6193L89.0617 23.7275L89.1891 23.8533L89.2156 23.8741L89.2957 23.9206L89.339 23.9438L89.4415 23.9895L89.7756 24.1008L89.8622 24.1217L89.9936 24.1457L90.0537 24.1545L90.1546 24.1513L90.2043 24.1465L90.3045 24.1145L90.4879 24.0303L90.5865 23.9799L90.7748 23.8404L90.8677 23.7643L91.0464 23.568L91.1353 23.4623L91.31 23.2051L91.572 22.7436L91.5808 22.7251L91.6088 22.6659L91.6241 22.6314L91.6633 22.5417L91.6842 22.4936L91.7338 22.375L91.7603 22.3133L91.8204 22.1683L91.8516 22.093L91.9213 21.9239L91.9574 21.8358L92.0359 21.6443L92.076 21.5449L92.1625 21.3318L92.2066 21.2228L92.3003 20.9905L92.3956 20.7533L92.6048 20.2285L92.7129 19.9593L92.9421 19.38L93.0583 19.086L93.3018 18.4674L93.676 17.5108L95.5116 12.802L95.8161 12.8236L96.1205 12.8452L96.5228 14.007L96.55 14.0871L96.6117 14.2642L96.6429 14.3547L96.7102 14.5494L96.7784 14.7473L96.9242 15.1688L96.9971 15.3795L97.1381 15.7881L97.1717 15.8867L97.2366 16.0734L97.3256 16.3306L97.3809 16.49L97.5051 16.8514L97.5684 17.0348L97.6982 17.4098L97.7622 17.5949L97.8816 17.9394L97.9105 18.0219L97.9626 18.1726L98.0323 18.3737L98.0539 18.4346L98.102 18.5748L98.1276 18.6469L98.1829 18.808L98.2398 18.9722L98.3672 19.3376L98.4313 19.5226L98.5603 19.896L98.7413 20.4168L98.7822 20.5362L98.8583 20.7557L98.8952 20.8615L98.9625 21.0546L98.9945 21.1483L99.0538 21.3182L99.0827 21.4007L99.1347 21.5497L99.186 21.6932L99.2694 21.9263L99.3086 22.0353L99.3743 22.2108L99.4056 22.2933L99.46 22.4303L99.4873 22.4952L99.537 22.609L99.702 22.9495L99.7837 23.1105L99.936 23.3701L100.011 23.4903L100.163 23.6794L100.239 23.7675L100.401 23.9021L100.675 24.06L100.736 24.088L100.829 24.1393L100.872 24.1649L100.929 24.2162L100.955 24.2419L100.984 24.2979L101 24.3949V24.5832H99.3575H97.715V24.3885V24.3532L97.7246 24.2971L97.7318 24.2715L97.7558 24.2322L97.7703 24.2146L97.8119 24.1906L97.8952 24.1681L97.9545 24.1593L98.0363 24.1016L98.102 23.955L98.1036 23.9422L98.0964 23.8845L98.0907 23.8509L98.0691 23.7563L98.0571 23.7042L98.0234 23.5768L98.005 23.5095L97.9602 23.3541L97.9361 23.2732L97.8824 23.0945L97.8544 23.0032L97.7919 22.8061L97.5812 22.1723L97.0339 20.5779L95.1038 20.5771H93.1736L92.9605 21.2781L92.9116 21.4376L92.8291 21.7292L92.7906 21.8702L92.7273 22.1274L92.6985 22.2516L92.6552 22.476L92.6352 22.5841L92.6104 22.7796L92.6008 22.8734L92.5943 23.0424L92.5935 23.1234L92.6056 23.2676L92.6136 23.3373L92.644 23.4607L92.7089 23.6249L92.7474 23.6994L92.8828 23.8372L92.9581 23.9037L93.1472 24.0151L93.2457 24.0664L93.4621 24.1369L93.7858 24.1826H93.8587L93.9596 24.1882L94.0037 24.193L94.0574 24.2146L94.079 24.229L94.0998 24.2755L94.1095 24.3829V24.5832H89.9832H85.8568V24.3837V24.3404L85.8689 24.2779L85.8777 24.2499L85.9161 24.2098L85.941 24.1922L86.0195 24.1649L86.1966 24.1305L86.3023 24.1129L86.493 24.0359L86.5844 23.9911L86.7398 23.8653L86.8119 23.7972L86.9209 23.6313L87.0226 23.3485L87.025 23.3365L87.0274 23.2932L87.0282 23.2692L87.0274 23.2019L87.0266 23.1658L87.0242 23.0769L87.0218 23.0296L87.0162 22.9198L87.0106 22.8053L86.9914 22.5216L86.9818 22.3718L86.9553 22.0281L86.9409 21.8494L86.9089 21.4576L86.8912 21.2573L86.8536 20.8326L86.8151 20.4008L86.7286 19.4938L86.6845 19.0419L86.5948 18.1726L86.5723 17.9627L86.5291 17.5685L86.5082 17.377L86.4674 17.0284L86.4482 16.8618L86.4113 16.5733L86.3945 16.4379L86.3632 16.2224L86.356 16.1735L86.3424 16.0926L86.336 16.0541L86.3248 15.9957L86.3192 15.9692L86.3095 15.9356L86.2975 15.9139L86.2839 15.9115L86.2422 15.9428L86.219 15.9644L86.1597 16.0397L86.1277 16.083L86.0508 16.2L86.0099 16.2641L85.9177 16.4203L85.8697 16.5028L85.7631 16.6951L85.7078 16.7961L85.5884 17.022L85.5267 17.139L85.3953 17.3962L85.328 17.5292L85.1862 17.8144L85.1141 17.9603L84.9635 18.2719L84.8874 18.4306L84.7287 18.7647L84.5685 19.1036L84.2312 19.8399L84.0605 20.2157L83.7088 21.0089L83.1784 22.2396L83.111 22.3982L82.9869 22.6891L82.9268 22.8309L82.817 23.0897L82.7633 23.2147L82.6656 23.4422L82.6183 23.5528L82.5318 23.7515L82.4901 23.8469L82.4148 24.0191L82.3787 24.1016L82.3122 24.2483L82.281 24.3188L82.2233 24.4422L82.1961 24.5007L82.1472 24.6032L82.0991 24.7002L82.0238 24.8396L81.9885 24.9005L81.9325 24.979L81.906 25.0126L81.8611 25.0463L81.7986 25.0639H81.7482L81.648 25.0231L81.6015 24.9974M96.8064 19.9008L96.8032 19.8928L96.7823 19.8335L96.7695 19.7967L96.7303 19.6853L96.7086 19.6228L96.6542 19.465L96.6245 19.3808L96.5564 19.1821L96.5203 19.0788L96.4402 18.8472L96.3994 18.7278L96.3096 18.4682L96.0164 17.6173L95.9651 17.4683L95.8658 17.1823L95.8169 17.0413L95.7239 16.776L95.6783 16.6462L95.5941 16.4075L95.5525 16.2921L95.4788 16.0862L95.4427 15.9884L95.381 15.821L95.3522 15.7433L95.3057 15.6207L95.2841 15.5662L95.2544 15.4941L95.2312 15.45H95.2288L95.2168 15.466L95.2103 15.4765L95.1927 15.5117L95.1727 15.5518L95.1166 15.68L95.0862 15.7505L95.0141 15.9275L94.8963 16.2312L94.8762 16.2849L94.8258 16.4171L94.7985 16.4868L94.7368 16.6479L94.6735 16.8137L94.5213 17.2039L94.0349 18.4482L93.9572 18.6453L93.8154 19.0107L93.781 19.098L93.7185 19.2606L93.6888 19.3392L93.6351 19.4818L93.6095 19.5499L93.5654 19.6669L93.5454 19.7221L93.5134 19.8111L93.4989 19.8519L93.4797 19.9072L93.4685 19.9505V19.9545L93.5029 19.9633L93.5254 19.9673L93.6023 19.9761L93.6448 19.9793L93.7585 19.9874L93.8194 19.9906L93.9652 19.997L94.0422 20.0002L94.216 20.005L94.3058 20.0074L94.5029 20.0106L95.1599 20.0162H95.3393L95.6454 20.0154L95.7896 20.0146L96.0292 20.0122L96.1422 20.0106L96.3232 20.0058L96.4074 20.0026L96.5372 19.9954L96.5957 19.9914L96.6814 19.9801L96.719 19.9745L96.7671 19.9601L96.7872 19.9529L96.8056 19.9337L96.8112 19.9241M47.4782 24.8516L47.3892 24.842L47.1833 24.8083L47.076 24.7883L46.8316 24.7346L46.7034 24.705L46.4166 24.6305L45.9358 24.495L45.395 24.3364V22.7372V21.1379H45.7059H46.0168L46.0504 21.6002L46.0552 21.6707L46.08 21.823L46.0953 21.8999L46.1377 22.0625L46.1842 22.226L46.322 22.5633L46.3965 22.7308L46.5768 23.0456L46.8773 23.4502L46.9181 23.4959L47.0327 23.5985L47.0944 23.6506L47.2378 23.7571L47.3107 23.81L47.4646 23.9085L47.6865 24.0319L47.745 24.0608L47.8459 24.1089L47.894 24.1313L47.9797 24.1673L48.0631 24.201L48.2105 24.2387L48.285 24.2531L48.4549 24.2595H48.5013L48.6063 24.2563L48.7906 24.2459L48.9052 24.2387L49.0942 24.217L49.184 24.2042L49.3378 24.1689L49.4123 24.1497L49.5501 24.0952L49.7593 23.9879L49.8466 23.9366L50.0068 23.8108L50.0846 23.7451L50.2232 23.5937L50.2905 23.5143L50.4059 23.3421L50.4603 23.2531L50.5501 23.0641L50.5917 22.9687L50.6542 22.7684L50.6815 22.6675L50.7135 22.4615L50.7255 22.3582V22.1507L50.6871 21.8438L50.6639 21.7332L50.603 21.5305L50.5693 21.4312L50.4812 21.2437L50.4331 21.1507L50.3073 20.9673L50.2384 20.8751L50.0637 20.6844L49.9692 20.5875L49.7344 20.3784L49.6094 20.271L49.305 20.0338L49.224 19.9721L49.047 19.8407L48.9556 19.7742L48.7577 19.6324L48.656 19.5603L48.4348 19.4057L48.0775 19.1589L47.886 19.0275L47.5559 18.7983L47.3989 18.6878L47.1321 18.4947L47.0055 18.4017L46.7923 18.2359L46.6914 18.1566L46.5231 18.0115L46.4438 17.941L46.3116 17.808L46.2491 17.7423L46.1441 17.6149L45.8885 17.2095L45.8573 17.1486L45.8052 17.0453L45.7804 16.9964L45.7411 16.909L45.7051 16.8257L45.665 16.6775L45.649 16.603L45.641 16.4307V16.3834L45.6442 16.2753L45.653 16.0846L45.6642 15.8923L45.7227 15.555L45.7588 15.3931L45.8765 15.0975L45.9438 14.9525L46.1337 14.672L46.1866 14.6023L46.3068 14.4597L46.5119 14.2418L46.6425 14.1104L46.9638 13.8636L47.1312 13.7442L47.5022 13.5327L47.6913 13.4325L48.0783 13.2739L48.64 13.1161L48.7217 13.1016L48.9028 13.08L48.9957 13.0712L49.1944 13.0616L49.3979 13.0544L49.8322 13.0736L50.0509 13.088L50.4804 13.1481L51.0653 13.2795L51.6486 13.4542L51.6261 14.8723L51.6045 16.2905L51.304 16.3153L51.2215 16.3226L51.0917 16.3137L51.0645 16.3105L51.0268 16.2985L51.002 16.2753L51.0012 16.2464L50.99 16.1575L50.9827 16.1094L50.9595 15.99L50.9339 15.8651L50.861 15.5726L50.8233 15.4268L50.7432 15.1584L50.7239 15.0975L50.6871 14.9949L50.6398 14.8828L50.6214 14.8467L50.5589 14.7513L50.5244 14.7001L50.4379 14.5847L50.1415 14.2338L50.0309 14.1152L49.7873 13.9293L49.6623 13.8452L49.3923 13.7282L49.2545 13.6785L48.9604 13.632L48.4965 13.6417L48.3731 13.6585L48.1672 13.705L48.0687 13.7314L47.8988 13.8059L47.8171 13.8476L47.6633 13.9589L47.4285 14.1801L47.354 14.2602L47.2346 14.4349L47.1801 14.5238L47.1 14.7145L47.0648 14.8106L47.0247 15.0125L47.0095 15.1143L47.0087 15.3226L47.0127 15.4276L47.0511 15.6391L47.0744 15.7449L47.1513 15.9548L47.1945 16.0598L47.3107 16.2641L47.5279 16.5605L47.5631 16.6014L47.6641 16.7031L47.7202 16.756L47.8596 16.8802L47.9349 16.9451L48.1119 17.0917L48.2049 17.167L48.4172 17.3337L48.5278 17.4194L48.7738 17.6045L48.9012 17.6999L49.1792 17.9034L49.3218 18.0067L49.6303 18.2271L50.1254 18.574L50.3329 18.7182L50.6903 18.981L50.8594 19.1084L51.1454 19.3448L51.2792 19.4601L51.4995 19.6797L51.6021 19.7879L51.7631 19.9994L51.8376 20.1059L51.9466 20.3191L51.9955 20.4272L52.0588 20.6524L52.0852 20.7669L52.1101 21.0129V21.4143L52.1037 21.5257L52.082 21.7324L52.0692 21.8334L52.0315 22.0233L52.0107 22.117L51.9562 22.2933L51.9266 22.3806L51.8529 22.5481L51.8128 22.6314L51.7183 22.794L51.6678 22.875L51.55 23.036L51.4883 23.1161L51.3457 23.2804L51.1029 23.5328L50.9787 23.6546L50.7151 23.8741L50.5805 23.9807L50.2993 24.1689L50.1567 24.2587L49.861 24.4141L49.7112 24.4878L49.4035 24.6096L49.2481 24.6657L48.9316 24.7522L48.773 24.7915L48.4509 24.842L48.289 24.862L47.9645 24.8748L47.8019 24.8772M66.7076 24.8268L66.4352 24.7883L65.9064 24.6513L65.6452 24.5728L65.1436 24.3588L64.8976 24.2427L64.4321 23.955L63.7847 23.4454L63.6269 23.3004L63.3456 23.0016L63.2102 22.8509L62.9739 22.5369L62.8609 22.3782L62.667 22.0473L62.5757 21.8799L62.4258 21.5305L62.3561 21.3534L62.248 20.9841L62.1991 20.7966L62.1326 20.4048L62.1045 20.2061L62.0789 19.7903L62.0853 19.1389L62.0981 18.9065L62.1574 18.4009L62.1734 18.2807L62.2087 18.0668L62.264 17.8144L62.3337 17.5596L62.534 17.0589L62.6438 16.8105L62.9162 16.3298L63.0612 16.0926L63.3969 15.6399L63.5724 15.418L63.9642 15.0029L64.1661 14.8002L64.6044 14.4309L64.8287 14.2522L65.3054 13.9365L65.5474 13.7859L66.0538 13.5327L66.8374 13.2322L66.9215 13.2066L67.1466 13.1641L67.2676 13.1449L67.5505 13.1161L67.6963 13.1032L68.0152 13.0872L68.1778 13.0808L68.5119 13.0776H68.6794L69.0087 13.0872L69.1705 13.0944L69.4742 13.1169L69.6208 13.1297L69.878 13.1657L70.1889 13.2338L70.4084 13.3011L70.8283 13.475L71.0342 13.5679L71.4236 13.7907L71.6143 13.9077L71.97 14.1761L72.1431 14.3155L72.4628 14.6264L72.6174 14.7866L72.897 15.1359L73.0316 15.3154L73.2672 15.7L73.3802 15.8963L73.5701 16.3137L73.7992 16.9715L73.8241 17.0605L73.8649 17.264L73.8841 17.3698L73.913 17.5989L73.9378 17.8329L73.9514 18.3416L73.9523 18.598L73.9154 19.1012L73.9034 19.2238L73.8697 19.4553L73.8048 19.7758L73.7471 20.0082L73.5909 20.4641L73.506 20.6908L73.2977 21.1315L73.1871 21.3486L72.9315 21.7685L72.7985 21.9752L72.5004 22.3678L72.3466 22.5601L72.0109 22.9198L71.8386 23.0953L71.4693 23.4174L71.281 23.5728L70.8828 23.8509L70.2578 24.2122L70.136 24.2731L69.8676 24.3845L69.7298 24.4382L69.4366 24.5343L69.2867 24.58L68.9766 24.6585L68.8196 24.6962L68.5015 24.7562L68.3413 24.7835L68.024 24.8235L67.8653 24.8412L67.5569 24.8596L67.4046 24.866L67.1138 24.8612L66.9712 24.8556M69.5031 23.9374L69.62 23.9102L69.8564 23.83L69.9758 23.786L70.2121 23.6738L70.3299 23.6137L70.5615 23.4743L70.676 23.4014L70.8964 23.2379L71.0053 23.1546L71.2097 22.9719L71.309 22.8782L71.4925 22.6811L71.5806 22.5809L71.7369 22.3718L71.9356 22.0505L71.9909 21.948L72.0862 21.73L72.1319 21.6187L72.2088 21.3879L72.2456 21.2701L72.3041 21.0273L72.3306 20.9048L72.3714 20.6516L72.4075 20.3968L72.4251 19.864V19.5956L72.373 19.0459L72.3386 18.7711L72.2176 18.2191L72.1487 17.9442L71.962 17.4034L71.8603 17.1366L71.6079 16.6214L71.1592 15.8931L71.0438 15.7312L70.801 15.4468L70.676 15.3106L70.4012 15.0662L70.2586 14.9477L69.9365 14.7297L69.3813 14.4172L69.2771 14.3652L69.0848 14.2754L68.9903 14.2322L68.8116 14.1608L68.6353 14.0935L68.294 14.0078L68.1209 13.9718L67.7428 13.9397L67.6434 13.9341L67.4271 13.9325L67.0713 13.9397L66.9768 13.9429L66.8165 13.9509L66.7404 13.9549L66.609 13.9645L66.484 13.975L66.2853 14.0118L66.1892 14.0343L65.9985 14.1056L65.948 14.1264L65.8366 14.1777L65.646 14.2698L65.4456 14.3692L65.0859 14.6119L64.9136 14.7401L64.6124 15.0398L64.469 15.1968L64.2254 15.5502L64.1116 15.7329L63.9281 16.1375L63.844 16.3458L63.7214 16.7985L63.6685 17.03L63.6084 17.5276L63.586 17.7816L63.5892 18.3208L63.6661 19.1749L63.7006 19.4169L63.8096 19.884L63.8704 20.1139L64.0299 20.5538L64.1164 20.771L64.3255 21.182L64.4361 21.3839L64.6933 21.7637L64.8279 21.9488L65.13 22.2949L65.287 22.4631L65.6331 22.7716L65.8118 22.9214L66.2004 23.1907L66.8278 23.5488L67.0545 23.661L67.5096 23.826L67.7372 23.8989L68.189 23.9847L68.4142 24.0175L68.8565 24.0215L69.076 24.0143M54.9296 24.3877V24.3452L54.9416 24.2835L54.9512 24.2555L54.9937 24.2162L55.0193 24.1986L55.1058 24.1722L55.3005 24.1369L55.4191 24.1193L55.629 24.0424L55.7292 23.9983L55.8975 23.8725L55.976 23.8044L56.0962 23.6353L56.2139 23.3413L56.2163 23.3301L56.2211 23.2844L56.2236 23.258L56.2292 23.1826L56.2316 23.141L56.2356 23.0376L56.238 22.9823L56.2428 22.8517L56.2452 22.7836L56.2492 22.6282L56.2516 22.5481L56.2556 22.3694L56.2596 22.1859L56.2668 21.7557L56.27 21.5313L56.2756 21.0314L56.2788 20.7734L56.2828 20.2157L56.2852 19.9313L56.2877 19.3295L56.2901 18.3937L56.2917 13.7666H55.6595H55.476L55.1387 13.7979L54.976 13.8179L54.6796 13.8908L54.537 13.9325L54.2814 14.0471L54.1588 14.1096L53.9441 14.2658L53.8415 14.3491L53.666 14.5486L53.5835 14.6536L53.4481 14.8956L53.3848 15.0222L53.2879 15.3074L53.1861 15.7841L53.1789 15.837L53.1661 15.9235L53.1597 15.9644L53.146 16.0293L53.1332 16.0894L53.0948 16.1583L53.0715 16.1871L52.9986 16.2136L52.8256 16.2352L52.5259 16.2601V14.5727V14.4685V14.2794V14.1881L52.5267 14.023V13.9429L52.5275 13.7995V13.7306L52.5291 13.608L52.5299 13.4894L52.5355 13.3083L52.5387 13.2258L52.5483 13.1056L52.5531 13.052L52.5684 12.9806L52.5764 12.9502L52.598 12.9149L52.695 12.8853H52.7182L52.7727 12.9013L52.8007 12.9117L52.86 12.9446L53.0219 13.0864L53.1797 13.2875L57.1594 13.2667L61.1391 13.2458L61.2184 13.0656L61.2456 13.0031L61.3322 12.9286L61.5205 12.8853H61.7432L61.7216 14.5478L61.6999 16.2104L61.4091 16.2344L61.1182 16.2593L61.063 15.8154L61.0437 15.6599L60.9516 15.3354L60.8979 15.1744L60.7529 14.8675L60.676 14.7193L60.4981 14.4685L60.4524 14.4108L60.3587 14.3131L60.2169 14.1977L60.1079 14.1248L59.8691 14.0078L59.7457 13.9541L59.4789 13.8732L59.3411 13.838L59.0439 13.7931L58.5623 13.7666H57.9742V18.5379V18.8664V19.461V19.7486V20.2654L57.975 20.5146L57.9758 20.96L57.9766 21.174L57.9798 21.5529L57.9814 21.7348L57.9862 22.0537L57.9886 22.2059L57.9959 22.4695L57.9999 22.5953L58.0103 22.8109L58.0159 22.9126L58.0303 23.0857L58.0375 23.1666L58.056 23.302L58.0656 23.3653L58.0888 23.4695L58.1008 23.5176L58.1289 23.5961L58.1433 23.6321L58.1777 23.6906L58.213 23.7459L58.3035 23.8196L58.4734 23.9262L58.5455 23.9694L58.7346 24.0544L58.9958 24.1401L59.0479 24.1513L59.124 24.1762L59.1576 24.189L59.2033 24.2234L59.2233 24.2419L59.245 24.2915L59.2562 24.3893V24.5832H57.0929H54.9296V24.3877ZM23.3613 44.4816L23.2291 44.4696L22.927 44.4303L22.7708 44.4079L22.4311 44.3518L22.2572 44.3222L21.8911 44.2524L21.706 44.2164L21.327 44.1347L20.9472 44.0513L20.1997 43.8631L20.0186 43.815L19.6741 43.7164L19.1989 43.569L18.9361 43.4817L18.4162 43.2886L18.1566 43.1892L17.6438 42.9721L17.3882 42.8607L16.8842 42.6196L16.6334 42.4962L16.1391 42.2326L15.8931 42.098L15.4092 41.8119L15.168 41.6661L14.6961 41.3592L14.4613 41.203L14.0014 40.8753L13.7731 40.7094L13.3268 40.3617L13.1048 40.1854L12.673 39.8193L12.459 39.6342L12.0424 39.2496L11.8365 39.0549L11.4359 38.6535L11.238 38.45L10.8558 38.0317L10.6667 37.8202L10.3021 37.386L10.1227 37.1672L9.77815 36.7177L9.60829 36.491L9.28379 36.0271L8.82068 35.3164L8.64522 35.0328L8.31752 34.4519L8.15807 34.1594L7.86242 33.5633L7.719 33.2628L7.4562 32.6523L7.3288 32.3446L7.09885 31.7213L6.98828 31.408L6.79118 30.7726L6.69664 30.4538L6.53239 29.8088L6.45467 29.4859L6.32407 28.8329L6.26318 28.5052L6.16543 27.8466L6.12136 27.5157L6.05806 26.8514L6.03082 26.5189L6.00117 25.8515L5.99076 25.5174L5.99556 24.8484L6.00278 24.5135L6.04124 23.8437L6.06527 23.5095L6.13899 22.8413L6.18065 22.508L6.28961 21.843L6.3481 21.5105L6.49152 20.8503L6.74711 19.8664L6.85929 19.477L7.11888 18.7126L7.25429 18.3328L7.56116 17.5901L7.7198 17.2215L8.07154 16.502L8.25342 16.1455L8.65002 15.45L8.85434 15.1055L9.29501 14.4357L9.52095 14.104L10.0057 13.4614L10.2525 13.1433L10.7797 12.5288L11.6178 11.6402L11.9919 11.2668L12.7627 10.577L13.1521 10.2421L13.9565 9.62752L14.3628 9.33026L15.2016 8.78944L15.6255 8.52744L16.5036 8.05952L16.9467 7.83358L17.8657 7.43617L18.3304 7.24548L19.2927 6.91697L19.7798 6.76074L20.7894 6.49954L22.3598 6.18305L22.5304 6.15501L22.8766 6.11254L23.0552 6.09332L23.4599 6.06687L23.5672 6.06127L23.8036 6.05245L23.9254 6.04845L24.1946 6.04284L24.334 6.04043L24.6449 6.03723L25.1641 6.03563H25.4285L25.9469 6.04043L26.2001 6.04364L26.6576 6.05405L26.7657 6.05726L26.9612 6.06367L27.055 6.06768L27.2168 6.07489L27.2929 6.07889L27.4155 6.08771L27.5477 6.10053L27.599 6.10774L27.6839 6.12136L27.7248 6.12777L27.7897 6.13979L27.8498 6.15261L27.9187 6.17985L27.9451 6.19427L27.9571 6.23193L27.9307 6.31045L27.9259 6.32006L27.9155 6.37054L27.9099 6.40018L27.9003 6.48672L27.8954 6.53399L27.8866 6.65177L27.8818 6.71426L27.8738 6.86009L27.8658 7.01152L27.8546 7.37608L27.845 7.9794L27.8442 8.14846L27.841 8.43369L27.8394 8.5683L27.8354 8.79024L27.8338 8.8936L27.8273 9.05945L27.8241 9.13637L27.8145 9.25575L27.8097 9.30943L27.7969 9.38875L27.7905 9.42481L27.7729 9.47288L27.7015 9.53858L27.6927 9.54018L27.6519 9.54339L27.6286 9.54419L27.5621 9.54499H27.5261L27.4363 9.54339L27.3891 9.54179L27.2809 9.53778L27.1679 9.53377L26.8987 9.51935L26.4572 9.49131L26.1968 9.47208L25.6736 9.45365L25.4116 9.44724L24.8868 9.45445L24.624 9.46166L24.0992 9.49451L23.8372 9.51374L23.3156 9.57143L23.0544 9.60348L22.5377 9.68601L22.2797 9.73007L21.7693 9.83744L21.5153 9.89353L21.0145 10.0249L20.2766 10.2493L19.9417 10.3598L19.2895 10.613L18.9658 10.7452L18.336 11.0377L18.0244 11.1891L17.4194 11.5208L17.1206 11.6907L16.5413 12.0592L16.2561 12.2475L15.704 12.6505L15.4324 12.8565L14.91 13.2931L14.6528 13.5151L14.1608 13.9838L13.9181 14.2217L13.4582 14.7209L13.2322 14.9733L12.8052 15.5013L12.5961 15.7681L12.2035 16.3234L12.012 16.6038L11.6554 17.1839L11.4816 17.4771L11.1627 18.0812L11.008 18.3857L10.7284 19.0123L10.593 19.3288L10.3534 19.9753L10.2389 20.3014L10.0409 20.9681L9.79257 21.988L9.72527 22.3109L9.62111 22.9583L9.57384 23.282L9.50974 23.9294L9.4825 24.2531L9.45846 24.8997L9.45125 25.2226L9.46647 25.8659L9.47929 26.1864L9.53377 26.825L9.56582 27.1439L9.65876 27.7761L9.71004 28.0917L9.84064 28.7159L9.91115 29.0268L10.0794 29.6421L10.1683 29.9482L10.3735 30.5515L10.4808 30.852L10.7236 31.4433L10.8486 31.7373L11.1274 32.3142L11.2708 32.6002L11.5849 33.1611L11.746 33.4391L12.0953 33.9823L12.2748 34.2516L12.6586 34.7756L12.8549 35.0352L13.2731 35.5375L13.9381 36.2674L14.1785 36.515L14.6857 36.9869L14.9428 37.2185L15.4813 37.6576L15.7545 37.8723L16.3234 38.2761L16.611 38.4732L17.2063 38.841L17.5068 39.0205L18.1269 39.3498L18.4394 39.51L19.082 39.8L19.4049 39.9403L20.0667 40.1902L21.0778 40.5171L21.2485 40.5668L21.573 40.6525L21.7332 40.6934L22.0441 40.7639L22.3526 40.8312L22.9671 40.9242L23.1242 40.945L23.447 40.9762L23.6113 40.9915L23.9574 41.0123L24.1345 41.0219L24.5119 41.0331L25.124 41.0419L25.35 41.0427L25.8123 41.0395L26.0414 41.0379L26.4725 41.0291L26.5758 41.0267L26.7681 41.0211L26.8619 41.0187L27.0293 41.0123L27.1086 41.0091L27.2449 41.0019L27.4075 40.9899L27.4956 40.9818L27.6487 40.9706L27.7208 40.9658L27.8329 40.9618L27.8818 40.9602L27.9403 40.9626L27.9547 40.9746L27.9459 40.9786L27.9299 41.0195L27.9219 41.0452L27.9075 41.1253L27.9011 41.1693L27.889 41.2823L27.8834 41.3424L27.8738 41.4826L27.8642 41.6284L27.8522 41.977L27.8474 42.1564L27.8442 42.5378L27.8434 42.7285L27.849 43.0963L27.853 43.2742L27.8674 43.581L27.8714 43.6523L27.8818 43.7749L27.8866 43.8326L27.8995 43.924L27.9059 43.9656L27.9211 44.0201L27.9451 44.0546H27.982L27.9956 44.0738L27.9283 44.1331L27.9027 44.1499L27.8714 44.1731L27.8586 44.1835L27.8546 44.1972L27.8562 44.2028L27.8802 44.2084L27.9483 44.2116L28.0084 44.2124L28.0693 44.2356L28.0901 44.25L28.0805 44.2901L28.0677 44.3109L27.9964 44.3534L27.8281 44.4063L27.8081 44.4103L27.732 44.4183L27.6879 44.4215L27.5669 44.4295L27.5012 44.4327L27.3426 44.4407L27.2593 44.4439L27.0686 44.4512L26.9708 44.4544L26.7553 44.4608L26.6447 44.464L26.4108 44.4704L26.1728 44.476L25.6672 44.4856L25.4141 44.4896L24.9149 44.4952L24.6713 44.4976L24.229 44.4992H24.1249L23.935 44.4976H23.8445L23.6858 44.4952L23.6121 44.4936L23.4919 44.4896L23.4374 44.4872M23.161 38.4828L22.8029 38.4211L22.1002 38.2545L21.7517 38.1647L21.0682 37.9436L20.7293 37.8258L20.0667 37.5502L19.7382 37.406L19.0988 37.0767L18.7815 36.906L18.167 36.5246L17.8625 36.3267L17.2728 35.8941L16.982 35.6713L16.4203 35.1874L15.6103 34.4054L15.3082 34.0913L14.7578 33.4319L14.491 33.0978L14.0126 32.3999L13.7819 32.0466L13.3764 31.3127L13.1834 30.9417L12.8524 30.1757L12.6962 29.7895L12.4414 28.9939L12.3236 28.5933L12.1458 27.7721L12.0664 27.3586L11.9671 26.5133L11.907 25.2242V24.8652L11.9495 24.1553L11.9775 23.802L12.0745 23.1057L12.1305 22.7596L12.2804 22.0794L12.3621 21.7412L12.564 21.0794L12.6714 20.7509L12.923 20.1099L13.0544 19.7927L13.3532 19.1757L13.5087 18.8696L13.8532 18.2791L14.031 17.9867L14.4196 17.425L14.6192 17.1478L15.0494 16.6166L15.2697 16.3554L15.7409 15.8578L15.9812 15.6135L16.49 15.1528L16.7496 14.9276L17.2952 14.5054L17.5725 14.3003L18.1534 13.9197L18.4474 13.7346L19.0611 13.3989L19.372 13.2362L20.0162 12.947L21.0161 12.5672L21.1844 12.5111L21.4953 12.4134L21.6483 12.3669L21.9367 12.2876L22.222 12.2115L22.7748 12.1065L22.9158 12.0833L23.2091 12.0456L23.3581 12.028L23.6762 12.0007L23.8396 11.9879L24.1954 11.9687L24.7851 11.9471L24.9606 11.9423L25.2546 11.9342L25.3924 11.931L25.6176 11.927L25.7225 11.9254H25.8868L25.9629 11.9262L26.0759 11.931L26.1263 11.9334L26.1968 11.9431L26.2265 11.9487L26.2617 11.9647L26.2762 11.9727L26.285 11.9943L26.2786 12.0336L26.265 12.0697L26.2217 12.1257L26.1544 12.1642H26.1488L26.1384 12.193L26.1336 12.2123L26.1247 12.2772L26.1207 12.3132L26.1127 12.411L26.1095 12.4639L26.1031 12.5921L26.1007 12.6594L26.0959 12.814L26.0935 12.8941L26.0911 13.0736L26.0887 13.6865L26.0895 13.8243L26.0927 14.0687L26.0943 14.1857L26.0983 14.39L26.1007 14.4869L26.1063 14.6536L26.1095 14.7321L26.1175 14.8619L26.1215 14.9228L26.1311 15.019L26.136 15.0622L26.148 15.1271L26.1544 15.1552L26.168 15.1896L26.192 15.2105H26.2193L26.2249 15.2329L26.1656 15.289L26.1488 15.2994L26.0542 15.3194L25.9989 15.3282L25.8411 15.3443L25.7562 15.3515L25.5559 15.3611L25.2298 15.3675L25.0287 15.3683L24.6425 15.3827L24.451 15.3923L24.0808 15.426L23.8973 15.4452L23.5392 15.4989L23.3613 15.5285L23.012 15.6039L22.8373 15.6447L22.4912 15.7417L22.3189 15.7929L21.9728 15.9139L21.7989 15.9772L21.4488 16.1214L20.9136 16.3666L20.6396 16.5004L20.1324 16.7889L19.884 16.9379L19.4145 17.2664L19.1837 17.4363L18.7366 17.8176L18.0724 18.461L17.9074 18.6341L17.5997 18.9914L17.4491 19.1717L17.171 19.5443L17.0356 19.7326L16.7873 20.1212L16.6671 20.3167L16.4483 20.7205L16.3434 20.9248L16.1543 21.3446L16.0638 21.5562L15.9043 21.992L15.8282 22.2116L15.6984 22.6634L15.5374 23.3597L15.5157 23.4679L15.4805 23.7251L15.4636 23.8597L15.438 24.1593L15.426 24.3124L15.41 24.6377L15.4035 24.8019L15.3971 25.1384L15.3955 25.3067L15.3995 25.6384L15.4035 25.8026L15.418 26.1151L15.426 26.2674L15.4508 26.5454L15.5005 26.9067L15.5462 27.1623L15.668 27.6647L15.7337 27.9139L15.8931 28.4018L15.978 28.6438L16.1751 29.1157L16.2777 29.3489L16.5092 29.8024L16.6286 30.0275L16.8938 30.461L17.03 30.6757L17.3257 31.0883L17.4771 31.2918L17.8032 31.6812L17.9691 31.8727L18.3224 32.2373L18.5019 32.4168L18.8817 32.7541L19.074 32.9199L19.4778 33.2292L19.6821 33.3798L20.1075 33.6587L20.3231 33.7949L20.7702 34.0416L20.9953 34.161L21.4608 34.3741L21.6956 34.4767L22.1779 34.6546L22.4215 34.7387L22.919 34.8789L23.681 35.0456L23.7747 35.0624L24.0199 35.0936L24.1489 35.1081L24.4382 35.1329L24.5856 35.1441L24.8836 35.1609L25.3019 35.1722L25.4141 35.173L25.5999 35.1746L25.6865 35.1754L25.8259 35.1786L25.89 35.1802L25.9885 35.1858L26.0334 35.189L26.0967 35.1986L26.1247 35.2034L26.1592 35.217L26.1736 35.2251L26.1848 35.2443L26.16 35.33L26.1536 35.3412L26.1432 35.3893L26.1376 35.4165L26.1279 35.4951L26.1239 35.5383L26.1159 35.6449L26.1127 35.7018L26.1071 35.834L26.1047 35.9037L26.1015 36.0607L26.0999 36.1417L26.0983 36.3195L26.1023 36.9236L26.1047 37.0775L26.1079 37.3403L26.1095 37.4637V37.6696V37.7665L26.1071 37.9228L26.1055 37.9957L26.0999 38.1087L26.0967 38.1599L26.0863 38.2369L26.0807 38.2705L26.067 38.317L26.059 38.337L26.0398 38.3586L26.0054 38.3723L25.9885 38.3731L25.9741 38.3803L25.9701 38.3843L25.9789 38.3971L26.0855 38.4444L26.1007 38.4492L26.1127 38.4588L26.1151 38.4636L26.0999 38.4716L26.0895 38.4756L26.0502 38.4836L26.027 38.4868L25.9629 38.4932L25.9284 38.4965L25.8411 38.5021L25.7946 38.5045L25.6849 38.5085L25.6272 38.5109L25.495 38.5133L25.2746 38.5165L25.1352 38.5173L24.8636 38.5221L24.7306 38.5253L24.4918 38.5325L24.3797 38.5365L24.2018 38.5453L24.1625 38.5477L24.0992 38.5517L24.0327 38.5589L24.0007 38.5638H23.8925L23.8324 38.5621L23.681 38.5509L23.5232 38.5373L23.161 38.4828Z" fill="#A2228D"/>
</svg>
