<svg width="60" height="60" viewBox="0 0 60 60" fill="none" xmlns="http://www.w3.org/2000/svg">
<rect width="60" height="60" rx="30" fill="white"/>
<path d="M28.575 34.425L25.8 37.2C25.215 37.785 24.285 37.785 23.685 37.215C23.52 37.05 23.355 36.9 23.19 36.735C21.645 35.175 20.25 33.54 19.005 31.83C17.775 30.12 16.785 28.41 16.065 26.715C15.36 25.005 15 23.37 15 21.81C15 20.79 15.18 19.815 15.54 18.915C15.9 18 16.47 17.16 17.265 16.41C18.225 15.465 19.275 15 20.385 15C20.805 15 21.225 15.09 21.6 15.27C21.99 15.45 22.335 15.72 22.605 16.11L26.085 21.015C26.355 21.39 26.55 21.735 26.685 22.065C26.82 22.38 26.895 22.695 26.895 22.98C26.895 23.34 26.79 23.7 26.58 24.045C26.385 24.39 26.1 24.75 25.74 25.11L24.6 26.295C24.435 26.46 24.36 26.655 24.36 26.895C24.36 27.015 24.375 27.12 24.405 27.24C24.45 27.36 24.495 27.45 24.525 27.54C24.795 28.035 25.26 28.68 25.92 29.46C26.595 30.24 27.315 31.035 28.095 31.83C28.245 31.98 28.41 32.13 28.56 32.28C29.16 32.865 29.175 33.825 28.575 34.425Z" fill="#A2228D"/>
<path d="M44.9554 39.4946C44.9554 39.9146 44.8804 40.3496 44.7304 40.7696C44.6854 40.8896 44.6404 41.0096 44.5804 41.1296C44.3254 41.6696 43.9954 42.1796 43.5604 42.6596C42.8254 43.4696 42.0154 44.0546 41.1004 44.4296C41.0854 44.4296 41.0704 44.4446 41.0554 44.4446C40.1704 44.8046 39.2104 44.9996 38.1754 44.9996C36.6454 44.9996 35.0104 44.6396 33.2854 43.9046C31.5604 43.1696 29.8354 42.1796 28.1254 40.9346C27.5404 40.4996 26.9554 40.0646 26.4004 39.5996L31.3054 34.6946C31.7254 35.0096 32.1004 35.2496 32.4154 35.4146C32.4904 35.4446 32.5804 35.4896 32.6854 35.5346C32.8054 35.5796 32.9254 35.5946 33.0604 35.5946C33.3154 35.5946 33.5104 35.5046 33.6754 35.3396L34.8154 34.2146C35.1904 33.8396 35.5504 33.5546 35.8954 33.3746C36.2404 33.1646 36.5854 33.0596 36.9604 33.0596C37.2454 33.0596 37.5454 33.1196 37.8754 33.2546C38.2054 33.3896 38.5504 33.5846 38.9254 33.8396L43.8904 37.3646C44.2804 37.6346 44.5504 37.9496 44.7154 38.3246C44.8654 38.6996 44.9554 39.0746 44.9554 39.4946Z" fill="#A2228D"/>
</svg>
