<svg width="61" height="71" viewBox="0 0 61 71" fill="none" xmlns="http://www.w3.org/2000/svg">
<g filter="url(#filter0_d_30_37)">
<circle cx="24" cy="24" r="24" transform="matrix(-1 0 0 1 51 0)" fill="white"/>
<circle cx="24" cy="24" r="23.6" transform="matrix(-1 0 0 1 51 0)" stroke="black" stroke-opacity="0.1" stroke-width="0.8"/>
</g>
<path d="M19.7998 24.8C19.358 24.8 18.9998 24.4418 18.9998 24C18.9998 23.5582 19.358 23.2 19.7998 23.2L19.7998 24.8ZM34.7655 23.4343C35.0779 23.7467 35.0779 24.2533 34.7655 24.5657L29.6743 29.6569C29.3619 29.9693 28.8554 29.9693 28.543 29.6569C28.2305 29.3444 28.2305 28.8379 28.543 28.5255L33.0684 24L28.543 19.4745C28.2305 19.1621 28.2305 18.6556 28.543 18.3431C28.8554 18.0307 29.3619 18.0307 29.6743 18.3431L34.7655 23.4343ZM19.7998 23.2L34.1998 23.2L34.1998 24.8L19.7998 24.8L19.7998 23.2Z" fill="#A2228D"/>
<defs>
<filter id="filter0_d_30_37" x="0.36" y="0" width="59.68" height="70.64" filterUnits="userSpaceOnUse" color-interpolation-filters="sRGB">
<feFlood flood-opacity="0" result="BackgroundImageFix"/>
<feColorMatrix in="SourceAlpha" type="matrix" values="0 0 0 0 0 0 0 0 0 0 0 0 0 0 0 0 0 0 127 0" result="hardAlpha"/>
<feOffset dx="3.2" dy="16.8"/>
<feGaussianBlur stdDeviation="2.92"/>
<feComposite in2="hardAlpha" operator="out"/>
<feColorMatrix type="matrix" values="0 0 0 0 0 0 0 0 0 0 0 0 0 0 0 0 0 0 0.04 0"/>
<feBlend mode="normal" in2="BackgroundImageFix" result="effect1_dropShadow_30_37"/>
<feBlend mode="normal" in="SourceGraphic" in2="effect1_dropShadow_30_37" result="shape"/>
</filter>
</defs>
</svg>
