<svg width="512" height="512" viewBox="0 0 512 512" fill="none" xmlns="http://www.w3.org/2000/svg">
<path d="M375.847 423.556L375.031 424.183L373.276 425.437L372.2 426.079L369.903 427.383L372.193 426.079L373.269 425.437L375.031 424.183L375.847 423.563L376.814 422.601M296.367 427.519L294.865 427.668L291.37 427.882L289.55 427.975L285.564 428.075L283.527 428.11L279.245 428.096L277.086 428.075L272.702 427.961L270.521 427.889L269.698 427.854L273.453 427.839L275.649 427.818L280.148 427.768L282.43 427.733L286.986 427.647L289.131 427.597L291.24 427.54L292.236 427.512L294.172 427.455L295.06 427.426L296.779 427.362L297.53 427.333L297.92 427.312M348.326 375.259L350.138 376.535L353.662 379.037L355.28 380.227L358.414 382.558L359.844 383.662L362.61 385.829L363.859 386.863L366.271 388.894L367.354 389.871L369.441 391.781L370.358 392.7L372.135 394.511L372.907 395.387L374.381 397.112L375.016 397.953L376.215 399.621L376.497 400.07L376.395 399.963L376.352 399.935L376.121 399.956L375.984 399.985L375.601 400.113L375.175 400.263L373.933 400.826L373.261 401.139L371.651 401.988L368.993 403.491L366.22 405.124L360.53 408.167L357.663 409.657L351.806 412.394L348.853 413.727L342.859 416.164L339.848 417.333L333.745 419.443L330.676 420.462L324.495 422.237L321.389 423.085L315.15 424.525L312.03 425.195L305.762 426.286L303.227 426.621L303.422 426.556L304.065 426.179L304.181 425.993L304.267 425.637L304.08 425.509L303.531 425.302L302.989 425.295L302.375 425.266L302.159 425.216L302.144 425.167L302.18 425.045L302.296 424.953L302.578 424.746L302.809 424.596L303.415 424.069L303.292 423.898H302.96L302.744 423.591L302.606 423.107L302.549 422.736L302.433 421.924L302.39 421.41L302.296 420.32L302.26 419.685L302.13 416.956L302.094 415.373L302.043 412.102L302.05 410.405L302.079 407.013L302.123 405.416L302.231 402.315L302.318 401.018L302.404 399.771L302.455 399.236L302.563 398.231L302.621 397.839L302.751 397.126L302.823 396.898L302.967 396.535L303.047 396.499L302.917 396.392L302.39 396.371L301.949 396.385L300.938 396.421L300.288 396.464L298.909 396.563L298.115 396.635L296.649 396.742L295.421 396.806L294.706 396.834L293.197 396.891L292.352 396.913L290.655 396.963L291.211 396.941L293.125 396.834L294.049 396.777L295.746 396.635L297.414 396.485L300.541 396.029L301.335 395.893L303.004 395.587L303.856 395.423L305.697 395.045L306.318 394.917L307.712 394.596L308.427 394.432L309.972 394.054L311.547 393.662L314.933 392.764L316.638 392.301L319.974 391.339L324.473 389.942L325.679 389.543L328.365 388.566L329.745 388.053L332.626 386.898L335.529 385.722L341.184 383.199L342.52 382.579L344.946 381.403L346.101 380.833L348.015 379.813L348.456 379.571L349.207 379.129L349.56 378.915L350.131 378.538L350.384 378.359L350.745 378.06L351.019 377.711L351.034 377.661L350.868 377.419L350.752 377.283L350.34 376.891L350.102 376.677L349.467 376.15L349.12 375.872L348.304 375.238M228.413 420.89L231.518 421.767L233.15 422.194L239.888 423.869L243.311 424.611L246.727 425.338L248.395 425.658L251.327 426.214L250.092 426.029L247.694 425.587L243.101 424.639L240.834 424.154L236.472 423.114L234.313 422.572L230.132 421.41L228.059 420.819L225.149 419.892M377.132 422.287L377.139 422.28ZM377.724 421.638V421.646L377.912 421.346M221.264 418.623L219.993 418.203L218.498 417.611M378.757 404.454L379.031 405.252L379.522 406.841L379.696 407.64L380.18 410.854L380.172 412.529L380.18 412.059L380.078 410.918L380.013 410.334L379.797 409.058L379.558 407.761L378.844 405.124L378.649 404.489L378.237 403.306L378.201 403.199M198.097 408.502L197.83 408.367L197.563 408.224M189.973 403.948L193.028 405.73L190.688 404.411L188.579 403.121M152.378 374.04L154.162 375.85L157.772 379.421L159.628 381.153L163.384 384.575L165.312 386.221L169.204 389.479L171.204 391.047L175.227 394.14L177.285 395.615L181.43 398.531L183.546 399.921L187.395 402.394L186.052 401.567L183.755 400.12L179.264 397.077L177.039 395.53L172.699 392.28L170.547 390.633L166.373 387.191L164.301 385.444L160.293 381.823L158.307 379.985L154.472 376.186L152.573 374.261L151.028 372.579M251.37 394.91L259.971 396.278L259.509 396.236L258.093 396.05L252.554 395.223L249.774 394.625L246.972 393.997L245.528 393.634L244.242 393.299M242.22 392.757L241.065 392.429L240.567 392.273M227.785 387.96L228.11 388.089L225.987 387.297L223.076 386.05L222.174 385.651M216.476 383.028L218.462 383.99L217.285 383.47L214.468 382.044L210.735 380.084M205.622 377.176L208.662 378.98L206.171 377.518L200.805 374.247L199.599 373.434M284.112 327.924L285.766 329.528L289.146 332.721L290.936 334.311L298.772 340.982L301.415 343.099L302.801 344.168L305.625 346.306L307.141 347.418L310.254 349.671L311.951 350.868L315.468 353.306L317.418 354.632L321.447 357.354L323.7 358.844L325.99 360.355L327.203 361.153L329.665 362.771L330.972 363.627L334.829 366.164L334.106 365.736L333.579 365.423L332.713 364.974L332.308 364.774L331.658 364.525L331.355 364.425L330.85 364.339L329.571 364.56L326.936 365.637L322.126 367.504L319.794 368.388L315.461 369.892L313.345 370.605L309.344 371.781L307.373 372.337L303.545 373.22L301.646 373.627L297.84 374.254L295.927 374.532L291.998 374.931L289.998 375.102L285.788 375.295L278.978 375.409H277.346L274.298 375.359L272.803 375.33L269.994 375.202L267.236 375.066L267.149 375.052H267.409L267.698 375.009L268.297 374.945L268.868 374.91L269.222 374.888L270.825 374.81L271.836 374.774L273.988 374.71L275.186 374.682L277.635 374.639L278.891 374.632L280.877 374.603L282.069 374.582L282.588 374.56L283.578 374.525L283.997 374.503L284.784 374.454L285.094 374.425L285.672 374.368L285.881 374.339L286.235 374.268L286.329 374.233L286.466 374.161L286.445 374.118L286.336 374.033L286.199 373.99L285.239 373.57L285.159 373.456L285.195 373.42L285.325 373.356L285.477 373.349L285.788 373.228L285.961 373.035L286.033 372.857L286.156 372.444L286.206 372.144L286.3 371.46L286.329 371.004L286.38 369.999L286.394 369.35L286.416 367.96V367.098V365.266L286.401 364.168L286.373 361.83L286.351 360.462L286.315 355.088L286.329 353.505L286.344 352.786L286.373 351.388L286.394 350.768L286.445 349.592L286.474 349.086L286.546 348.138L286.582 347.753L286.669 347.055L286.719 346.813L286.813 346.385L286.871 346.285L287.095 345.522L286.994 345.351L286.864 345.28L286.553 345.159L286.3 345.116L285.73 345.031L285.325 345.002L284.437 344.952L283.859 344.938L282.603 344.909H282.552L283.657 344.86L287.124 344.503L288.019 344.396L289.911 344.133L290.879 343.99L292.951 343.662L293.731 343.527L295.19 343.256L295.898 343.12L297.096 342.857L297.652 342.736L298.461 342.515L299.09 342.258L299.155 342.194L298.902 341.766L298.714 341.51L298.042 340.768L297.66 340.369L296.649 339.407L294.865 337.825L292.056 335.444L286.9 330.668L284.401 328.266L282.538 326.292M195.237 370.405L193.085 368.901L190.623 366.991L190.32 366.749M185.647 362.928L186.839 363.947L185.77 363.085L183.452 361.025L181.813 359.521M204.149 349.321L206.77 351.303L212.085 355.152L214.829 356.912L220.368 360.305L223.228 361.823L227.236 363.862L224.499 362.529L222.109 361.31L217.48 358.644L215.19 357.269L210.735 354.275L208.525 352.736L204.228 349.407L202.091 347.696L197.924 344.004L191.786 338.06L199.087 345.016M264.419 343.719L269.525 344.375L268.745 344.311L267.582 344.182L265.372 343.904L264.528 343.755L263.654 343.569M255.421 341.652L253.175 341.025L252.973 340.954M247.803 339.122L246.633 338.694L246.387 338.587M241.296 336.328L240.321 335.886L239.982 335.708M235.165 333.12L234.262 332.629L233.786 332.329M229.308 329.471L228.485 328.936L227.864 328.487M223.719 325.387L223.004 324.845L222.246 324.204M278.588 322.044L277.649 321.018L277.115 320.355M218.433 320.882L217.848 320.369L216.974 319.507M105.691 270.861L106.262 276.769L106.659 279.713L107.54 285.572L108.089 288.487L109.266 294.296L109.966 297.169L111.447 302.906L112.299 305.743L114.075 311.395L115.072 314.182L116.271 317.397L115.44 315.316L113.888 311.167L111.302 302.628L110.103 298.323L108.219 289.542L107.367 285.13L106.182 276.178L105.684 271.68L105.547 269.107M213.486 315.978L213.046 315.529L212.078 314.432M208.908 310.711L208.612 310.362L207.579 308.993M267.279 306.948L266.773 306.178L266.326 305.358M204.676 305.002L204.791 305.166L204.582 304.881L203.477 303.163M258.057 286.834L258.678 288.68L259.985 292.357L260.729 294.161L262.282 297.746L263.148 299.506L264.051 301.26L263.957 301.089L262.614 298.53L260.354 293.313L259.285 290.69L257.559 285.337L257.082 283.377M200.82 298.829L201.137 299.385L200.964 299.114L199.888 297.112L199.845 297.04M197.909 293.298L197.801 293.077L197.548 292.514M197.187 291.702L196.877 291.003L196.79 290.804M195.158 286.94L195.1 286.805L194.884 286.185M194.443 284.938L194.335 284.652L194.234 284.346M192.905 280.347L192.898 280.312L192.789 279.92M254.699 271.324L255.284 275.322L255.667 277.275L256.129 279.456L255.566 277.111L255.226 275.358L254.706 271.545L254.468 269.592V269.563M192.32 278.145L192.306 278.095L192.248 277.867M105.243 263.341L105.2 262.621L105.186 262.108M105.085 258.993L105.15 260.932L105.056 258.088L105.106 255.864M190.464 244.246L190.233 246.905L190.125 248.266L189.98 251.16L189.922 252.621L189.886 254.652L189.922 252.628L189.98 251.167L190.125 248.273L190.233 246.912L190.464 244.246L190.616 243.049L190.933 240.761V240.753L190.616 243.049M158.791 246.876L158.516 251.395L158.552 250.411L158.646 248.43L158.935 245.051M105.54 244.103L105.366 247.068L105.482 244.453L105.597 243.362M175.949 194.602L172.844 199.855L171.443 202.578L168.749 208.066L167.565 210.889L165.297 216.591L164.33 219.513L162.51 225.401L161.773 228.408L160.423 234.46L159.917 237.539L159.094 243.369L159.173 242.557L159.701 238.679L159.982 236.748L160.697 232.934L161.08 231.031L161.975 227.268L162.452 225.393L163.535 221.701L164.098 219.855L165.369 216.227L166.027 214.417L167.471 210.86L168.222 209.085L169.847 205.6L170.684 203.868L172.49 200.461L173.414 198.765L175.4 195.436L176.411 193.789L176.938 192.991M257.053 227.874L256.512 230.262L255.515 235.115L255.14 237.653L254.728 240.803L254.851 239.691L255.104 237.639L255.732 233.761L256.887 228.401L257.479 226.099L258.324 223.54M200.329 214.567L198.87 217.268L196.378 222.785L195.209 225.564L193.302 231.21L191.128 239.798L192.58 233.604L193.75 229.584L194.436 227.631L195.873 223.754L196.689 221.872L198.393 218.137L199.339 216.32L201.311 212.728L202.17 211.345M106.861 231.801L106.977 230.889L107.359 228.822M259.631 219.691L259.769 219.299L259.942 218.886M270.03 200.105L270.312 199.677L270.962 198.807M214.403 195.842L213.436 196.819L211.746 198.608L212.49 197.76L213.977 196.22L215.595 194.673M276.79 191.387L272.283 197.025L273.439 195.479L275.049 193.39L277.786 190.211M220.318 190.211L219.415 191.024L219.964 190.497L220.787 189.798M178.534 190.603L178.57 190.546L179.668 188.936L180.195 188.23M281.419 186.213L278.371 189.534L278.588 189.278L280.408 187.239L281.527 186.092M236.934 178.878L237.115 178.779L237.266 178.707M261.242 170.254L259.465 170.61L255.876 171.53L254.085 172.015L250.489 173.169L248.698 173.768L245.152 175.129L243.975 175.607L244.409 175.407L247.564 174.124L249.131 173.561L252.251 172.485L253.804 172.029L256.923 171.166L258.498 170.803L261.646 170.133L263.249 169.869L263.307 169.862M288.611 138.251L290.568 138.329L294.092 138.579L294.93 138.657L296.475 138.821L298.577 139.113L300.772 139.477L305.394 140.453L307.719 140.974L312.37 142.193L314.659 142.827L319.006 144.217L324.834 146.376L329.839 148.458L326.914 150.368L323.592 152.556L322.011 153.618L318.891 155.728L317.403 156.747L314.471 158.771L313.07 159.755L307.647 163.625L305.177 165.471L300.382 169.106L298.194 170.867L294.923 173.547L295.074 173.404L295.594 172.927L296.367 172.179L296.706 171.836L297.147 171.323L297.328 171.088L297.486 170.746L297.53 170.596L297.443 170.382L296.468 169.933L296.237 169.869L295.594 169.741L295.24 169.684L294.381 169.57L293.478 169.456L291.139 169.27L289.904 169.185L287.08 169.057L285.636 169L282.552 168.921L281 168.893L277.887 168.878H276.349L273.432 168.935L272.016 168.971L269.575 169.092L271.467 168.921L273.193 168.836L276.674 168.707L278.487 168.7L281.426 168.643L283.231 168.558L283.997 168.494L285.419 168.351L285.918 168.273L286.77 168.094L286.921 168.002L287.456 167.503L287.405 167.303H287.16L286.943 167.118L286.82 166.811L286.762 166.562L286.654 165.985L286.611 165.6L286.524 164.744L286.488 164.203L286.416 163.048L286.387 162.35L286.336 160.867L286.315 160.005L286.279 158.187L286.264 157.146L286.235 154.972L286.228 153.746L286.25 148.294L286.271 146.697L286.293 145.984L286.336 144.609L286.358 144.01L286.416 142.87L286.445 142.399L286.517 141.53L286.553 141.209L286.632 140.632L286.676 140.461L286.77 140.204H286.82L287.427 139.862L287.817 139.363L287.94 139.042L287.997 138.693L287.918 138.5L287.788 138.429L287.47 138.287L287.203 138.237L286.9 138.201M222.889 151.188L220.939 152.243L221.321 152.022L223.82 150.682L224.289 150.461M240.509 143.789L231.497 147.168L228.182 148.636L228.976 148.258L231.583 147.096L236.956 145.022L239.664 144.031L241.404 143.497M260.274 139.149L257.631 139.484L256.36 139.691L253.276 140.268L253.869 140.118L254.482 139.983L255.876 139.734L256.598 139.612L258.18 139.384L259.812 139.17L261.531 139.007M279.953 138.13L278.711 138.158L276.06 138.23L274.479 138.272L269.164 138.465L265.957 138.636L264.484 138.75L261.776 138.978L263.538 138.814L265.459 138.65L269.604 138.408L271.698 138.294L276.024 138.173L278.191 138.123L280.588 138.116M304.311 86.9035L311.005 87.8658L313.374 88.2721L318.277 89.3341L320.747 89.9043L325.795 91.2657L328.329 91.9784L333.442 93.6107L336.006 94.4588L341.126 96.3334L343.675 97.2956L348.723 99.3912L351.229 100.46L356.132 102.741L358.558 103.903L363.252 106.348L369.968 110.168L370.503 110.496L371.413 111.031L371.839 111.28L372.546 111.679L372.886 111.865L373.435 112.128L373.695 112.242L374.121 112.392L374.525 112.506L375.103 112.42L375.912 111.9L376.121 111.708L375.565 112.57L374.929 113.418L373.594 115.129L372.821 116.013L371.21 117.788L370.293 118.707L368.394 120.56L367.325 121.53L365.116 123.483L363.895 124.502L361.36 126.576L359.967 127.659L357.092 129.862L355.525 131.016L352.297 133.369L350.543 134.602L348.354 136.134L348.636 135.863L349.019 135.45L349.264 134.751L349.3 134.416L348.846 133.775L348.535 133.447L347.387 132.748L346.737 132.385L344.917 131.508L341.444 129.876L339.378 128.885L335.168 127.075L333.052 126.191L328.763 124.587L326.603 123.81L322.242 122.421L320.046 121.751L315.612 120.56L313.388 119.997L308.904 119.021L306.65 118.557L302.115 117.795L299.848 117.438L295.284 116.889L293.11 116.654L293.529 116.676L295.955 116.804L296.974 116.84L297.949 116.875L298.375 116.889L299.183 116.904H299.508L300.108 116.897L300.317 116.889L300.685 116.861L300.765 116.847L301.408 116.262L301.567 115.835L301.624 115.514L301.74 114.808L301.783 114.331L301.87 113.269L301.899 112.584L301.956 111.109L301.971 110.19L302.007 108.215L302.021 107.018L302.05 104.48L302.058 102.976L302.144 97.6093L302.245 94.3662L302.318 93.0191L302.39 91.7218L302.433 91.1659L302.513 90.1181L302.556 89.6976L302.643 88.9278L302.693 88.6641L302.787 88.215L302.83 88.1295L303.069 87.431L302.96 87.096L302.722 86.9677L302.101 86.7254L301.559 86.6113L301.523 86.6042M379.674 103.611L379.27 105.222L378.988 106.027L378.381 107.645L378.201 108.016L378.822 106.291L379.226 105.029L379.79 102.463M211.544 98.3862L212.006 98.1866L212.035 98.1723M213.233 97.6877L216.18 96.4902L216.252 96.4688M229.366 92.1352L224.976 93.5251L218.563 95.6848L224.817 93.5679L229.186 92.178L238.227 89.8615L238.451 89.8187M239.91 89.5265L252.258 87.0604L252.475 87.0247M280.956 85.4709L283.65 85.5065L289.023 85.7061L291.695 85.8273L292.554 85.8843L292.33 85.8772L291.355 85.8487L287.232 85.756L284.95 85.7275L280.278 85.6847H277.895L273.215 85.699L270.413 85.7275L269.157 85.7489L266.73 85.7988L265.632 85.8344L263.502 85.9128L262.534 85.9627L259.704 86.1409L260.556 86.0625L265.358 85.756L267.806 85.6206L272.984 85.4852L275.598 85.4424L280.956 85.4709Z" fill="#842457"/>
<path d="M265.638 479.8L265.486 479.779L265.031 479.729L264.778 479.701L264.143 479.629L263.464 479.551L261.666 479.366L260.72 479.266L258.561 479.045L255.167 478.71L250.48 478.254L241.186 476.892L236.557 476.137L227.4 474.191L222.843 473.15L213.853 470.634L209.375 469.309L200.572 466.244L196.196 464.64L187.603 461.048L183.342 459.18L174.987 455.068L170.841 452.944L162.753 448.332L158.745 445.966L150.954 440.869L147.09 438.261L139.609 432.701L135.904 429.864L128.762 423.849L125.238 420.791L118.464 414.355L115.121 411.076L108.737 404.226L105.588 400.748L99.6233 393.499L96.6913 389.821L91.1597 382.195L88.4589 378.332L83.3966 370.341L76.3557 357.961L74.0665 353.62L69.9574 344.782L67.986 340.334L64.498 331.303L62.8371 326.77L59.9773 317.583L58.6269 312.971L56.3955 303.648L55.3556 298.98L53.738 289.564L53.0086 284.846L52.0121 275.366L51.5932 270.619L51.2177 261.103L51.1094 256.342L51.3477 246.827L51.5427 242.065L52.402 232.571L52.9075 227.832L54.3807 218.395L55.1895 213.683L57.2765 204.339L58.3958 199.677L61.0967 190.447L62.5193 185.85L65.8267 176.769L67.5599 172.25L71.4739 163.348L73.5104 158.929L78.0383 150.24L85.5125 137.482L88.2133 133.191L94.1205 124.866L97.1535 120.746L103.675 112.799L107.004 108.871L114.088 101.345L117.691 97.6383L125.288 90.582L129.137 87.118L137.197 80.5748L141.277 77.3745L149.733 71.3944L154.015 68.4721L162.84 63.0978L176.416 55.7635L179.117 54.4307L184.562 51.9289L187.299 50.7029L192.824 48.4221L195.589 47.3102L201.179 45.2574L203.981 44.2524L209.628 42.4206L212.452 41.5296L218.157 39.9259L221.009 39.149L226.765 37.7663L229.639 37.1034L235.43 35.9487L238.333 35.3999L244.161 34.4733L247.079 34.0385L252.935 33.3329L255.867 33.0121L261.745 32.5488L264.692 32.3421L270.585 32.0998L273.538 32.0071L279.453 32L282.406 32.0285L288.328 32.2495L291.288 32.392L297.203 32.8482L300.164 33.1048L306.078 33.7962L314.939 35.0934L319.842 35.9131L329.367 37.8803L334.076 38.9209L343.117 41.2873L347.573 42.5204L356.015 45.236L358.087 45.9416L362.088 47.3957L364.067 48.1298L367.879 49.6623L369.757 50.4321L373.368 52.0215L375.144 52.8269L378.524 54.4734L380.192 55.3073L383.341 57.0108L384.886 57.8662L387.782 59.6196L389.197 60.4963L391.826 62.2853L393.111 63.1834L395.458 65.0081L396.599 65.9204L398.65 67.7736L401.387 70.5676L402.492 71.8221L404.399 74.4236L405.308 75.7494L406.861 78.5933L407.605 80.0545L408.854 83.2477L410.457 88.5364L410.869 90.1543L411.454 93.3903L411.707 95.0082L411.981 98.2228L412.082 99.8265L412.061 102.998L412.01 104.574L411.678 107.681L411.476 109.221L410.855 112.243L410.501 113.74L409.576 116.655L409.078 118.095L407.858 120.882L405.706 124.887L404.615 126.683L402.311 130.048L401.12 131.701L398.499 134.916L397.126 136.512L394.007 139.72L393.184 140.532L391.421 142.172L390.519 142.999L388.562 144.695L387.565 145.55L385.406 147.318L384.294 148.209L381.904 150.069L380.676 151.01L378.033 152.977L376.675 153.975L373.758 156.071L372.263 157.133L369.042 159.378L367.396 160.518L363.857 162.927L362.045 164.153L358.167 166.748L351.934 170.868L350.548 171.78L347.912 173.519L346.619 174.382L344.164 176.014L341.752 177.625L337.419 180.575L335.325 182.015L331.555 184.66L329.728 185.95L326.435 188.352L324.847 189.535L321.936 191.766L320.528 192.863L317.914 194.995L310.758 201.303L309.256 202.714L306.482 205.472L305.139 206.841L302.67 209.535L301.471 210.875L299.283 213.534L298.228 214.859L296.3 217.504L295.376 218.822L293.7 221.481L292.892 222.821L291.44 225.515L290.74 226.877L289.505 229.642L287.858 233.904L287.613 234.603L287.208 235.807L287.021 236.385L286.717 237.468L286.58 238.01L286.363 239.129L286.27 239.706L286.125 241.018L286.06 241.716L285.973 243.384L285.937 244.275L285.894 246.456L285.88 247.625L285.865 250.476L285.858 251.239V252.914V255.679V256.656V258.445V259.307L285.865 260.882L285.872 262.408L285.894 264.902L285.916 266.071L285.973 267.974L286.01 268.865L286.125 270.341L286.19 271.032L286.363 272.23L286.465 272.814L286.717 273.89L286.862 274.432L287.208 275.551L287.858 277.454L288.357 278.901L289.505 281.716L290.097 283.106L291.44 285.843L292.141 287.198L293.7 289.878L294.509 291.211L296.3 293.855L297.232 295.181L299.283 297.825L300.344 299.151L302.67 301.824L303.868 303.164L306.482 305.886L310.758 310.056L313.04 312.194L317.921 316.371L319.2 317.433L321.951 319.607L323.366 320.705L326.45 323.014L328.046 324.197L331.57 326.713L333.39 328.003L337.427 330.783L339.521 332.223L344.171 335.345L345.377 336.15L347.919 337.832L351.934 340.484L353.386 341.432L356.152 343.264L357.517 344.169L360.116 345.908L362.68 347.626L367.323 350.797L369.569 352.344L373.628 355.202L375.585 356.599L379.102 359.187L380.799 360.448L383.824 362.8L385.283 363.948L387.869 366.093L389.118 367.148L391.313 369.137L394.231 371.974L395.812 373.606L398.629 376.763L399.979 378.324L402.348 381.375L403.474 382.893L405.41 385.894L406.319 387.391L407.843 390.37L408.558 391.867L409.692 394.882L410.219 396.4L410.985 399.493L411.331 401.054L411.75 404.269L412.024 409.28L412.039 411.411L411.685 415.752L411.439 417.918L410.609 422.159L410.14 424.255L408.876 428.189L406.565 433.506L405.893 434.768L404.196 437.256L403.286 438.496L401.127 440.941L399.986 442.159L397.386 444.561L396.029 445.752L393.01 448.097L391.443 449.259L388.027 451.525L386.273 452.651L382.481 454.839L380.539 455.93L376.394 458.033L374.285 459.066L369.808 461.076L367.533 462.06L362.759 463.956L360.333 464.889L355.271 466.671L352.707 467.541L347.385 469.195L344.691 470L339.131 471.511L336.322 472.252L330.537 473.614L327.627 474.277L321.655 475.481L318.643 476.066L312.498 477.106L303.11 478.475L302.605 478.539L301.399 478.667L300.77 478.731L299.348 478.86L297.882 478.981L294.466 479.209L292.697 479.316L288.891 479.515L286.963 479.608L283.049 479.758L281.106 479.829L277.38 479.922L275.56 479.964L272.296 479.993L271.523 480L270.115 479.993L269.436 479.986L268.245 479.957L267.674 479.943L266.728 479.893L266.295 479.872M300.467 447.733L303.298 447.37L308.981 446.472L311.826 446.001L317.488 444.911L320.319 444.34L325.908 443.058L328.689 442.402L334.162 440.948L336.87 440.206L342.164 438.596L344.785 437.776L349.855 436.023L352.353 435.132L357.141 433.25L363.958 430.299L365.655 429.515L368.551 428.09L369.923 427.391L372.22 426.087L373.296 425.445L375.05 424.191L375.866 423.563L377.152 422.295L377.744 421.646L378.618 420.285L379.015 419.586L379.549 418.061L379.78 417.277L380.04 415.516L380.192 412.537L380.199 410.862L379.715 407.647L379.542 406.849L379.051 405.26L378.777 404.461L378.069 402.865L377.686 402.067L376.74 400.441L376.235 399.629L375.036 397.961L374.4 397.12L372.927 395.395L372.155 394.518L370.378 392.708L369.461 391.788L367.374 389.878L366.291 388.902L363.879 386.87L362.629 385.837L359.864 383.67L358.434 382.565L355.3 380.235L353.682 379.044L350.158 376.542L348.345 375.267L344.41 372.565L342.395 371.183L338.033 368.267L330.992 363.634L329.685 362.779L327.223 361.161L326.009 360.363L323.72 358.852L321.467 357.362L317.437 354.639L315.488 353.314L311.971 350.876L310.274 349.678L307.161 347.426L305.645 346.314L302.821 344.176L301.435 343.107L298.792 340.99L290.956 334.318L289.165 332.729L285.786 329.536L284.132 327.932L281.027 324.71L279.51 323.092L276.672 319.835L275.286 318.196L272.715 314.888L271.458 313.228L269.147 309.864L268.021 308.167L265.97 304.739L264.973 303.014L263.168 299.514L262.301 297.754L260.749 294.168L260.005 292.365L258.698 288.687L258.077 286.841L257.015 283.064L256.51 281.168L255.687 277.283L255.304 275.33L254.719 271.332L254.452 269.314L254.098 265.188L253.946 263.106L253.816 258.851L253.78 256.699L253.881 252.301L254.271 245.522L254.495 242.814L255.159 237.661L255.535 235.123L256.532 230.269L257.073 227.882L258.416 223.284L259.138 221.01L260.857 216.606L261.767 214.425L263.883 210.162L264.988 208.038L267.523 203.861L268.844 201.78L271.819 197.639L276.809 191.395L278.297 189.642L281.438 186.221L283.042 184.517L286.465 181.139L288.219 179.456L292.011 176.064L293.96 174.353L298.214 170.875L300.402 169.114L305.197 165.479L307.667 163.633L313.09 159.763L314.491 158.779L317.423 156.755L318.911 155.736L322.03 153.626L323.612 152.564L326.934 150.376L332.14 146.969L334.495 145.45L338.885 142.557L341.03 141.138L345.024 138.444L346.966 137.125L350.562 134.609L352.317 133.376L355.545 131.024L357.112 129.869L359.986 127.667L361.38 126.584L363.915 124.51L365.135 123.49L367.345 121.537L368.414 120.568L370.313 118.715L371.23 117.795L372.841 116.02L373.613 115.137L374.949 113.426L375.585 112.578L376.661 110.917L377.174 110.09L378.011 108.458L378.401 107.653L379.008 106.035L379.289 105.229L379.694 103.618L380.192 98.7003V97.8736L380.091 96.3625L380.026 95.6355L379.788 94.3026L379.651 93.6611L379.261 92.4851L379.051 91.9149L378.488 90.86L378.185 90.3468L377.434 89.3774L377.029 88.907L376.076 88.0089L375.57 87.5599L374.386 86.6903L372.342 85.3859L370.501 84.3097L366.284 82.1785L364.095 81.1165L359.264 79.0566L356.78 78.0374L351.415 76.0701L348.678 75.1008L342.872 73.2547L339.925 72.3495L333.772 70.6531L330.66 69.8263L324.24 68.3081L321.005 67.574L314.412 66.2554L304.424 64.5448L302.648 64.2739L298.654 63.832L296.589 63.6324L292.141 63.3331L289.873 63.1976L285.136 63.0337L282.738 62.9695L277.864 62.941L275.416 62.9482L270.556 63.0551L268.144 63.1335L263.464 63.3758L261.16 63.5184L256.813 63.9033L250.834 64.6374L246.573 65.2718L238.305 66.8612L234.21 67.7166L226.23 69.7337L222.273 70.8028L214.56 73.2761L210.726 74.5662L203.244 77.4957L199.525 79.021L192.231 82.4208L188.606 84.1814L181.486 88.0659L177.94 90.0759L170.943 94.4594L160.565 101.616L159.93 102.086L158.543 103.155L157.828 103.718L156.305 104.958L154.759 106.241L151.351 109.221L149.61 110.76L145.971 114.125L144.144 115.835L140.453 119.399L138.626 121.195L135.073 124.78L133.333 126.555L130.112 129.984L128.552 131.659L125.844 134.745L125.202 135.486L124.054 136.869L122.544 138.786L119.995 142.158L115.301 148.915L113.019 152.3L108.838 159.121L106.809 162.543L103.126 169.471L101.335 172.956L98.1212 180.048L96.5686 183.619L93.8028 190.918L92.474 194.603L90.1342 202.172L89.0149 205.993L87.0868 213.869L84.617 226.1L84.4365 227.119L84.1404 228.972L83.996 229.884L83.7649 231.645L83.6566 232.529L83.476 234.332L83.3966 235.259L83.2738 237.254L83.2161 238.295L83.1366 240.633L83.0933 241.859L83.05 244.681L83.0283 246.171L83.0066 249.628L82.9994 250.533V252.5L82.9922 255.679V256.791L82.9994 258.858V259.863L83.0066 261.731L83.0139 263.555L83.05 266.677L83.0716 268.16L83.1366 270.726L83.1727 271.952L83.2738 274.104L83.3316 275.138L83.476 277.027L83.5627 277.946L83.7649 279.714L83.8732 280.597L84.1404 282.386L84.617 285.259L85.3464 289.429L87.0868 297.49L88.0039 301.474L90.1342 309.186L91.2536 313.007L93.8028 320.441L95.1315 324.119L98.1212 331.311L99.6738 334.881L103.126 341.888L104.909 345.373L108.838 352.237L110.867 355.659L115.301 362.444L122.544 372.572L122.999 373.164L124.046 374.475L124.595 375.145L125.823 376.592L127.094 378.068L130.083 381.339L131.636 383.014L135.045 386.543L136.785 388.324L140.432 391.931L142.266 393.727L145.963 397.227L147.798 398.945L151.358 402.152L153.098 403.706L156.334 406.443L157.113 407.084L158.579 408.26L160.616 409.821L163.743 412.124L170.09 416.414L173.275 418.51L179.753 422.395L183.017 424.283L189.646 427.769L192.975 429.458L199.778 432.544L203.194 434.034L210.177 436.728L213.694 438.033L220.872 440.342L224.49 441.454L231.892 443.393L243.251 445.887L244.826 446.194L248.48 446.778L250.386 447.07L254.654 447.619L256.864 447.89L261.717 448.41L269.61 449.13L270.303 449.187L272.188 449.251L273.191 449.273L275.582 449.266L276.831 449.251L279.575 449.18L280.983 449.137L283.937 449.016L286.912 448.881L292.834 448.482L294.264 448.375L296.921 448.125L298.207 448.004M401.402 364.212L400.824 363.299L399.257 361.211L398.412 360.128L396.397 357.754L395.336 356.542L392.96 353.991L391.732 352.701L389.082 350.056L386.395 347.412L380.618 342.244L379.181 340.997L376.314 338.652L372.155 335.452L371.584 335.031L370.241 334.062L369.533 333.556L367.966 332.43L366.356 331.275L362.709 328.68L360.853 327.369L357.047 324.696L351.66 320.933L349.905 319.714L346.735 317.49L345.197 316.407L342.409 314.418L341.066 313.449L338.611 311.645L337.419 310.762L335.231 309.094L334.162 308.274L332.184 306.706L331.216 305.929L329.382 304.404L324.125 299.771L322.305 298.096L318.997 294.667L317.401 292.943L314.542 289.407L313.17 287.632L310.758 283.997L309.617 282.173L307.66 278.452L306.735 276.585L305.233 272.771L304.54 270.861L303.5 266.977L303.038 265.024L302.453 261.061L302.106 255.045V253.028L302.417 249.115L302.619 247.183L303.356 243.42L303.774 241.552L304.952 237.91L305.594 236.093L307.219 232.529L308.093 230.754L310.194 227.24L311.299 225.487L313.892 221.994L315.242 220.248L318.333 216.748L323.547 211.445L325.648 209.442L329.671 205.864L330.696 204.973L332.87 203.184L333.982 202.279L336.408 200.383L337.665 199.414L340.474 197.318L341.94 196.242L345.262 193.847L346.128 193.227L347.977 191.916L348.923 191.253L350.945 189.834L351.978 189.107L354.18 187.568L357.712 185.116L359.235 184.061L362.124 182.037L363.539 181.039L366.226 179.121L367.54 178.173L370.039 176.349L371.259 175.444L373.577 173.704L375.845 171.987L379.903 168.758L381.853 167.168L385.327 164.153L387.009 162.664L389.999 159.777L391.443 158.344L394.043 155.508L395.307 154.089L397.603 151.224L400.802 146.805L401.344 145.999L402.391 144.524L402.896 143.818L403.77 142.649L404.182 142.122L404.803 141.388L405.33 140.924H405.41L405.662 141.43L405.799 141.758L406.139 142.82L406.312 143.398L406.709 144.866L406.919 145.636L407.338 147.375L407.756 149.15L408.529 152.913L408.702 153.825L408.999 155.529L409.309 157.753L409.432 158.815L409.482 161.081L409.475 162.236L409.273 164.659L409.15 165.878L408.717 168.387L408.479 169.649L407.829 172.193L407.482 173.462L406.644 175.985L406.197 177.24L405.171 179.677L404.637 180.882L403.438 183.191L401.474 186.434L400.282 188.202L397.704 191.324L397.004 192.101L395.444 193.648L394.628 194.424L392.758 196.042L391.768 196.869L389.479 198.644L388.273 199.556L385.471 201.566L383.998 202.607L380.589 204.923L379.694 205.529L377.773 206.812L374.682 208.851L372.595 210.226L368.277 213.106L366.139 214.546L362.059 217.311L361.077 217.981L359.235 219.243L358.347 219.856L356.73 220.982L355.957 221.524L354.621 222.465L353.003 223.633L350.721 225.323L346.41 228.972L344.323 230.818L340.597 234.567L339.716 235.501L338.105 237.34L337.333 238.245L335.961 240.013L335.311 240.882L334.213 242.543L332.913 244.874L332.653 245.415L332.213 246.363L332.01 246.82L331.678 247.646L331.36 248.452L330.992 249.991L330.833 250.797L330.696 252.75L330.667 253.292L330.646 254.546L330.631 256.748V257.568L330.646 258.965L330.653 259.621L330.689 260.74L330.732 261.802L330.963 263.377L331.108 264.118L331.613 265.451L332.798 267.761L333.426 268.88L334.885 271.068L335.664 272.158L337.499 274.339L338.474 275.444L340.784 277.704L342.005 278.851L344.872 281.267L346.388 282.501L349.92 285.152L350.844 285.829L352.837 287.248L353.863 287.967L356.058 289.464L357.177 290.227L359.582 291.823L360.81 292.636L363.431 294.332L364.774 295.202L367.634 297.012L372.191 299.871L373.837 300.897L376.697 302.693L378.055 303.556L380.416 305.081L381.543 305.815L383.507 307.141L384.446 307.782L386.107 308.98L387.717 310.156L390.432 312.422L394.548 316.264L395.884 317.583L398.246 320.134L399.38 321.403L401.337 323.905L402.268 325.152L403.857 327.654L404.601 328.909L405.836 331.467L406.406 332.765L407.309 335.43L407.728 336.792L408.327 339.628L408.594 341.075L408.919 344.14L409.121 349.051V349.935L409.035 351.881L408.977 352.872L408.782 354.953L408.565 357.048L407.901 361.161L407.72 362.152L407.33 363.969L407.128 364.839L406.709 366.35L406.5 367.056L406.074 368.153L405.453 369.201L405.381 369.272L404.969 368.973L404.723 368.759L404.045 367.961L403.676 367.505L402.81 366.314L402.362 365.68M403.647 314.639L403.221 313.442L402.073 311.004L401.445 309.785L399.885 307.29L399.047 306.029L397.04 303.442L395.978 302.137L393.501 299.429L392.194 298.053L389.212 295.188L387.652 293.727L384.135 290.676L382.308 289.122L378.221 285.851L371.432 280.654L369.865 279.493L366.926 277.255L365.496 276.15L362.824 274.04L361.532 273.007L359.163 271.054L358.015 270.098L355.971 268.317L354.989 267.447L353.285 265.865L352.476 265.095L351.14 263.726L350.519 263.071L349.573 261.937L348.613 260.526L348.252 259.842L347.833 258.138L347.674 257.254L347.645 255.351L347.681 254.403L348.035 252.579L348.981 250.241L349.27 249.778L349.977 248.815L350.346 248.331L351.248 247.311L351.732 246.791L352.866 245.679L353.465 245.109L354.874 243.876L355.61 243.242L357.322 241.859L358.217 241.146L360.261 239.578L361.33 238.773L363.742 236.998L367.822 234.075L370.01 232.522L374.018 229.535L375.968 228.06L379.506 225.209L381.225 223.797L384.33 221.039L385.839 219.663L388.555 216.969L389.862 215.622L392.216 212.942L393.35 211.602L395.379 208.915L396.354 207.561L398.087 204.824L400.398 200.618L400.73 199.955L401.373 198.751L401.683 198.174L402.239 197.218L402.506 196.784L402.918 196.185L403.308 195.807H403.38L403.669 196.228L403.828 196.499L404.261 197.368L404.492 197.853L405.027 199.065L405.301 199.699L405.879 201.132L406.471 202.6L407.605 205.707L407.872 206.456L408.334 207.867L408.883 209.706L409.295 211.246L409.836 214.318L410.06 215.85L410.226 218.886L410.262 220.398L410.067 223.377L409.923 224.859L409.367 227.76L409.042 229.2L408.132 231.994L407.627 233.377L406.37 236.05L405.691 237.361L404.088 239.877L401.3 243.448L400.846 243.954L399.517 245.216L398.795 245.872L397.076 247.297L396.195 248.017L394.31 249.435L391.53 251.367L385.038 255.587L389.746 258.523L390.858 259.215L392.96 260.74L393.992 261.531L395.949 263.249L396.903 264.126L398.686 266.007L399.553 266.969L401.156 269.001L401.936 270.034L403.337 272.201L404.016 273.299L405.222 275.58L405.792 276.727L406.774 279.108L407.98 282.764L408.211 283.605L408.58 285.523L408.753 286.521L408.991 288.702L409.1 289.821L409.222 292.187L409.266 293.392V295.879L409.23 298.388L408.796 303.456L408.659 304.696L408.291 307.119L407.605 310.562L407.388 311.496L406.948 313.235L406.731 314.069L406.334 315.494L406.139 316.157L405.821 317.112L405.496 317.846L405.424 317.918L405.193 317.754L405.063 317.625L404.738 317.119L404.572 316.827L404.204 316.05L404.023 315.63M261.666 427.705L260.474 427.598L257.752 427.248L256.344 427.049L253.282 426.55L251.715 426.286L248.415 425.666L246.746 425.345L243.331 424.618L239.908 423.877L233.17 422.202L231.538 421.774L228.433 420.898L224.15 419.586L221.782 418.809L217.095 417.092L214.755 416.208L210.134 414.276L207.83 413.285L203.288 411.14L201.027 410.042L196.572 407.697L194.355 406.5L189.993 403.955L187.819 402.658L183.566 399.928L181.45 398.538L177.305 395.623L175.247 394.148L171.224 391.054L169.224 389.486L165.331 386.229L163.403 384.582L159.648 381.161L157.792 379.429L154.182 375.858L152.398 374.048L148.953 370.327L147.249 368.446L143.963 364.582L142.346 362.636L139.24 358.638L137.709 356.621L134.785 352.494L130.611 346.172L129.029 343.648L126.076 338.481L124.638 335.879L121.974 330.576L120.681 327.904L118.312 322.472L117.164 319.735L115.092 314.19L114.095 311.403L112.319 305.751L111.466 302.914L109.986 297.176L109.286 294.304L108.108 288.495L107.56 285.58L106.679 279.721L106.281 276.777L105.711 270.868L105.465 267.91L105.198 261.973L105.104 259.001L105.148 253.049L105.213 250.07L105.559 244.111L105.776 241.139L106.44 235.194L106.816 232.229L107.798 226.313L108.325 223.355L109.618 217.482L111.921 208.73L112.932 205.266L115.272 198.466L116.493 195.087L119.258 188.48L120.688 185.201L123.859 178.801L125.498 175.629L129.072 169.442L130.914 166.377L134.886 160.419L136.922 157.468L141.291 151.751L143.515 148.922L148.267 143.455L155.821 135.55L159.193 132.229L166.14 126.092L169.65 123.112L176.9 117.646L180.562 115.001L188.122 110.19L191.943 107.859L199.857 103.697L203.851 101.687L212.134 98.1515L216.322 96.4551L224.995 93.5328L229.386 92.1429L238.485 89.8193L252.639 87.0039L254.177 86.7544L257.297 86.3767L258.907 86.2056L262.554 85.9704L263.522 85.9205L265.652 85.8421L266.75 85.8065L269.176 85.7566L270.433 85.7352L273.235 85.7067L277.914 85.6924H280.297L284.97 85.7352L287.252 85.7637L291.375 85.8564L292.35 85.8849L294.112 85.9419L294.957 85.9775L296.416 86.0417L297.102 86.0773L298.207 86.1557L299.398 86.2698L299.86 86.3339L300.626 86.4551L300.994 86.5121L301.579 86.619L302.121 86.7331L302.742 86.9754L302.98 87.1037L303.088 87.4387L302.85 88.1372L302.807 88.2227L302.713 88.6718L302.662 88.9355L302.576 89.7053L302.532 90.1258L302.453 91.1736L302.41 91.7295L302.337 93.0268L302.265 94.3739L302.164 97.617L302.077 102.984L302.07 104.488L302.041 107.025L302.027 108.223L301.991 110.197L301.976 111.117L301.918 112.592L301.89 113.276L301.803 114.338L301.76 114.816L301.644 115.522L301.586 115.842L301.427 116.27L300.785 116.854L300.705 116.869L300.337 116.897L300.128 116.904L299.528 116.911H299.203L298.394 116.897L297.968 116.883L296.993 116.847L295.975 116.812L293.549 116.683L289.57 116.434L287.223 116.263L282.507 116.099L280.146 116.042L275.416 116.106L273.047 116.17L268.317 116.462L265.956 116.633L261.254 117.147L258.9 117.432L254.242 118.166L251.917 118.558L247.317 119.513L245.028 120.012L240.514 121.181L233.863 123.177L230.845 124.16L224.966 126.413L222.049 127.589L216.373 130.19L213.564 131.537L208.112 134.488L205.418 135.999L200.197 139.278L197.626 140.953L192.65 144.538L190.202 146.37L185.494 150.254L183.176 152.229L178.742 156.399L176.554 158.515L172.409 162.956L170.372 165.201L166.523 169.898L164.638 172.272L161.1 177.211L159.374 179.706L156.16 184.866L154.593 187.475L151.719 192.849L150.325 195.558L147.805 201.132L146.585 203.947L144.425 209.699L143.393 212.6L141.609 218.53L139.37 227.604L138.764 230.476L137.825 236.235L137.399 239.115L136.821 244.874L136.576 247.753L136.359 253.505L136.294 256.378L136.431 262.101L136.547 264.952L137.038 270.633L137.327 273.47L138.164 279.094L138.626 281.902L139.804 287.454L140.439 290.22L141.956 295.694L142.757 298.417L144.606 303.784L145.574 306.457L147.762 311.717L148.888 314.333L151.401 319.464L152.694 322.009L155.525 326.998L156.976 329.472L160.125 334.304L161.742 336.699L165.201 341.36L166.971 343.67L170.74 348.139L176.734 354.632L178.901 356.835L183.472 361.033L185.79 363.093L190.643 366.999L193.105 368.909L198.233 372.501L200.825 374.255L206.191 377.526L208.899 379.123L214.488 382.052L217.304 383.478L223.096 386.058L226.006 387.305L231.971 389.529L241.085 392.437L242.623 392.879L245.548 393.642L246.992 394.005L249.794 394.632L252.574 395.231L258.113 396.058L259.528 396.243L262.439 396.521L263.919 396.657L267.039 396.842L268.635 396.928L272.036 397.027L277.553 397.106L279.59 397.113L283.756 397.084L285.822 397.07L289.707 396.992L290.639 396.97L292.372 396.92L293.217 396.899L294.726 396.842L295.441 396.813L296.668 396.749L298.134 396.642L298.929 396.571L300.308 396.471L300.958 396.429L301.969 396.393L302.41 396.379L302.937 396.4L303.067 396.507L302.987 396.543L302.843 396.906L302.771 397.134L302.641 397.847L302.583 398.239L302.475 399.244L302.424 399.779L302.337 401.026L302.251 402.323L302.142 405.424L302.099 407.02L302.07 410.413L302.063 412.109L302.113 415.381L302.15 416.963L302.28 419.693L302.316 420.328L302.41 421.418L302.453 421.931L302.568 422.744L302.626 423.114L302.763 423.599L302.98 423.906H303.312L303.435 424.077L302.828 424.604L302.597 424.754L302.316 424.96L302.2 425.053L302.164 425.174L302.178 425.224L302.395 425.274L303.009 425.303L303.551 425.31L304.099 425.516L304.287 425.645L304.2 426.001L304.085 426.186L303.442 426.564L301.926 427.035L301.745 427.07L301.059 427.142L300.662 427.17L299.572 427.241L298.979 427.27L297.55 427.341L296.798 427.37L295.08 427.434L294.199 427.462L292.256 427.519L291.26 427.548L289.151 427.605L287.006 427.655L282.449 427.74L280.167 427.776L275.668 427.826L273.473 427.847L269.487 427.861H268.548L266.837 427.847H266.021L264.591 427.826L263.926 427.812L262.843 427.776L262.352 427.754M259.861 374.34L256.633 373.791L250.299 372.309L247.158 371.51L240.998 369.543L237.943 368.495L231.971 366.043L229.01 364.761L223.248 361.831L220.388 360.313L214.849 356.92L212.105 355.16L206.79 351.311L204.169 349.329L199.106 345.024L191.805 338.068L189.083 335.274L184.122 329.407L181.717 326.435L177.406 320.227L175.326 317.084L171.672 310.555L169.932 307.255L166.949 300.441L165.541 297.005L163.244 289.928L162.183 286.364L160.58 279.058L159.865 275.38L158.969 267.86L158.428 256.392V253.199L158.811 246.884L159.063 243.74L159.937 237.547L160.443 234.467L161.793 228.416L162.53 225.408L164.349 219.521L165.317 216.598L167.585 210.896L168.769 208.074L171.463 202.586L172.863 199.863L175.969 194.61L177.572 192.008L181.074 187.012L182.872 184.546L186.75 179.82L188.736 177.496L192.983 173.07L195.149 170.896L199.735 166.798L202.074 164.795L206.992 161.039L209.491 159.214L214.726 155.828L217.377 154.182L222.908 151.195L225.71 149.748L231.516 147.175L240.529 143.797L242.045 143.298L244.847 142.428L246.226 142.015L248.826 141.309L251.397 140.632L256.38 139.698L257.651 139.492L260.294 139.157L261.637 139L264.504 138.758L265.977 138.644L269.184 138.473L274.499 138.28L276.08 138.237L278.73 138.166L279.972 138.138L282.002 138.102L282.948 138.088H284.428L285.114 138.095L286.132 138.138L286.587 138.159L287.223 138.244L287.49 138.294L287.808 138.437L287.938 138.508L288.017 138.701L287.959 139.05L287.837 139.371L287.447 139.87L286.84 140.212H286.79L286.696 140.468L286.652 140.639L286.573 141.217L286.537 141.537L286.465 142.407L286.436 142.877L286.378 144.018L286.356 144.617L286.313 145.992L286.291 146.705L286.27 148.302L286.248 153.754L286.255 154.98L286.284 157.154L286.298 158.195L286.335 160.012L286.356 160.875L286.407 162.357L286.436 163.056L286.508 164.21L286.544 164.752L286.631 165.607L286.674 165.992L286.782 166.57L286.84 166.819L286.963 167.126L287.179 167.311H287.425L287.476 167.51L286.941 168.009L286.79 168.102L285.937 168.28L285.439 168.359L284.016 168.501L283.251 168.565L281.446 168.651L278.506 168.708L276.694 168.715L273.213 168.843L271.487 168.929L268.151 169.228L266.497 169.399L263.269 169.877L261.666 170.141L258.517 170.811L256.943 171.174L253.823 172.037L252.271 172.493L249.151 173.569L247.584 174.132L244.428 175.415L239.604 177.596L237.135 178.786L232.563 181.352L230.325 182.678L226.093 185.6L224.013 187.111L219.984 190.504L213.997 196.228L212.509 197.767L209.736 200.946L208.379 202.55L205.873 205.864L204.652 207.539L202.414 210.996L201.331 212.735L199.359 216.328L198.413 218.145L196.709 221.88L195.893 223.762L194.456 227.639L193.77 229.592L192.6 233.612L191.148 239.806L190.953 240.768L190.636 243.056L190.484 244.254L190.253 246.919L190.144 248.281L190 251.175L189.942 252.636L189.885 255.629L189.87 257.126L189.906 260.077L189.942 261.538L190.072 264.318L190.144 265.672L190.368 268.145L190.816 271.36L191.228 273.634L192.325 278.103L192.918 280.319L194.355 284.66L195.12 286.813L196.897 291.011L197.821 293.085L199.908 297.119L200.984 299.122L203.374 302.978L204.602 304.888L207.267 308.559L208.631 310.37L211.571 313.834L213.065 315.537L216.25 318.78L217.868 320.377L221.291 323.378L223.024 324.853L226.663 327.604L228.505 328.944L232.34 331.425L234.282 332.636L238.312 334.832L240.341 335.894L244.537 337.79L246.653 338.702L251 340.284L253.195 341.033L257.68 342.28L264.547 343.763L265.392 343.912L267.602 344.19L268.765 344.318L271.372 344.539L272.7 344.639L275.387 344.789L279.156 344.889L280.167 344.896L281.843 344.91L282.623 344.917L283.879 344.946L284.457 344.96L285.345 345.01L285.75 345.038L286.32 345.124L286.573 345.167L286.883 345.288L287.013 345.359L287.114 345.53L286.891 346.293L286.833 346.393L286.739 346.82L286.688 347.063L286.602 347.761L286.566 348.146L286.493 349.094L286.465 349.6L286.414 350.776L286.392 351.396L286.363 352.793L286.349 353.513L286.335 355.095L286.371 360.47L286.392 361.838L286.421 364.176L286.436 365.274V367.106V367.968L286.414 369.358L286.4 370.006L286.349 371.011L286.32 371.468L286.226 372.152L286.176 372.451L286.053 372.865L285.981 373.043L285.807 373.235L285.497 373.356L285.345 373.364L285.215 373.428L285.179 373.463L285.259 373.577L286.219 373.998L286.356 374.041L286.465 374.126L286.486 374.169L286.349 374.24L286.255 374.276L285.901 374.347L285.692 374.376L285.114 374.433L284.804 374.461L284.016 374.511L283.598 374.532L282.608 374.568L282.088 374.59L280.897 374.611L278.911 374.639L277.654 374.647L275.206 374.689L274.008 374.718L271.855 374.782L270.844 374.818L269.241 374.896L268.887 374.917L268.317 374.953L267.718 375.017L267.429 375.06H266.454L265.912 375.046L264.547 374.946L263.125 374.825L259.861 374.34Z" fill="#9E2666"/>
</svg>
