<svg width="180" height="180" viewBox="0 0 180 180" fill="none" xmlns="http://www.w3.org/2000/svg">
<path d="M132.134 148.906L131.847 149.127L131.23 149.568L130.851 149.793L130.044 150.252L130.849 149.793L131.227 149.568L131.847 149.127L132.134 148.909L132.474 148.57M104.191 150.299L103.663 150.352L102.435 150.427L101.795 150.46L100.393 150.495L99.6775 150.507L98.172 150.502L97.4129 150.495L95.8718 150.455L95.1051 150.43L94.8157 150.417L96.1359 150.412L96.9077 150.405L98.4893 150.387L99.2916 150.374L100.894 150.344L101.648 150.327L102.389 150.307L102.739 150.297L103.42 150.277L103.732 150.267L104.336 150.244L104.6 150.234L104.737 150.227M122.458 131.927L123.095 132.375L124.334 133.255L124.903 133.673L126.005 134.493L126.508 134.881L127.48 135.643L127.919 136.006L128.767 136.72L129.148 137.064L129.882 137.735L130.204 138.058L130.829 138.695L131.1 139.003L131.618 139.61L131.842 139.905L132.263 140.492L132.362 140.649L132.326 140.612L132.311 140.602L132.23 140.609L132.182 140.619L132.047 140.664L131.897 140.717L131.461 140.915L131.225 141.025L130.658 141.323L129.724 141.852L128.749 142.426L126.749 143.496L125.741 144.02L123.682 144.982L122.644 145.451L120.536 146.308L119.478 146.718L117.332 147.46L116.253 147.819L114.08 148.442L112.988 148.741L110.795 149.247L109.698 149.482L107.494 149.866L106.603 149.984L106.672 149.961L106.898 149.828L106.938 149.763L106.969 149.638L106.903 149.593L106.71 149.52L106.52 149.517L106.304 149.507L106.228 149.49L106.223 149.472L106.235 149.43L106.276 149.397L106.375 149.325L106.456 149.272L106.669 149.086L106.626 149.026H106.509L106.433 148.919L106.385 148.748L106.365 148.618L106.324 148.332L106.309 148.152L106.276 147.768L106.263 147.545L106.217 146.586L106.205 146.029L106.187 144.879L106.19 144.283L106.2 143.09L106.215 142.529L106.253 141.439L106.283 140.983L106.314 140.544L106.332 140.356L106.37 140.003L106.39 139.865L106.436 139.615L106.461 139.534L106.512 139.407L106.54 139.394L106.494 139.356L106.309 139.349L106.154 139.354L105.799 139.366L105.57 139.381L105.085 139.417L104.806 139.442L104.291 139.479L103.859 139.502L103.608 139.512L103.077 139.532L102.78 139.539L102.183 139.557L102.379 139.549L103.052 139.512L103.377 139.492L103.973 139.442L104.56 139.389L105.659 139.229L105.938 139.181L106.525 139.073L106.824 139.016L107.472 138.883L107.69 138.838L108.18 138.725L108.431 138.667L108.975 138.535L109.528 138.397L110.719 138.081L111.318 137.918L112.491 137.58L114.073 137.089L114.496 136.948L115.441 136.605L115.926 136.425L116.939 136.019L117.959 135.605L119.947 134.718L120.417 134.5L121.27 134.087L121.676 133.886L122.349 133.528L122.504 133.443L122.768 133.287L122.892 133.212L123.093 133.079L123.182 133.017L123.309 132.911L123.405 132.789L123.41 132.771L123.352 132.686L123.311 132.638L123.166 132.501L123.083 132.425L122.859 132.24L122.737 132.142L122.451 131.919M80.3014 147.969L81.3931 148.277L81.9668 148.427L84.3355 149.016L85.5389 149.277L86.7398 149.533L87.3262 149.645L88.357 149.841L87.9229 149.776L87.08 149.62L85.4653 149.287L84.6681 149.117L83.1347 148.751L82.3756 148.56L80.9056 148.152L80.177 147.944L79.1538 147.618M132.585 148.46L132.588 148.458ZM132.794 148.232V148.234L132.86 148.129M77.788 147.172L77.3411 147.024L76.8156 146.816M133.157 142.19L133.253 142.471L133.426 143.03L133.487 143.311L133.657 144.441L133.654 145.03L133.657 144.864L133.621 144.463L133.598 144.258L133.522 143.809L133.438 143.353L133.187 142.426L133.119 142.203L132.974 141.787L132.961 141.749M69.6435 143.614L69.5496 143.566L69.4556 143.516M66.7873 142.013L67.8613 142.639L67.0387 142.175L66.2974 141.722M53.5704 131.498L54.1974 132.135L55.4668 133.39L56.1193 133.999L57.4395 135.202L58.1173 135.781L59.4858 136.926L60.189 137.477L61.6031 138.565L62.3267 139.083L63.784 140.108L64.5278 140.597L65.881 141.466L65.4088 141.176L64.6014 140.667L63.0223 139.597L62.2404 139.053L60.7145 137.911L59.958 137.332L58.4906 136.121L57.7619 135.508L56.3529 134.235L55.6547 133.588L54.3066 132.252L53.6389 131.576L53.0956 130.985M88.3722 138.835L91.3959 139.316L91.2335 139.301L90.7359 139.236L88.7886 138.945L87.8112 138.735L86.8261 138.514L86.3183 138.387L85.8664 138.269M85.1556 138.078L84.7494 137.963L84.5742 137.908M80.0805 136.392L80.1948 136.437L79.4483 136.159L78.4252 135.72L78.1079 135.58M76.1047 134.658L76.8029 134.996L76.3891 134.813L75.399 134.312L74.0864 133.623M72.2889 132.601L73.3578 133.235L72.4819 132.721L70.5955 131.571L70.1716 131.285M99.8831 115.286L100.465 115.849L101.653 116.972L102.282 117.531L105.037 119.876L105.966 120.621L106.454 120.996L107.446 121.748L107.979 122.139L109.074 122.931L109.67 123.352L110.907 124.209L111.592 124.675L113.009 125.632L113.801 126.156L114.606 126.687L115.032 126.968L115.898 127.537L116.357 127.837L117.713 128.729L117.459 128.579L117.274 128.469L116.969 128.311L116.827 128.241L116.599 128.153L116.492 128.118L116.314 128.088L115.865 128.165L114.938 128.544L113.247 129.2L112.427 129.511L110.904 130.04L110.16 130.29L108.754 130.704L108.061 130.899L106.715 131.21L106.047 131.353L104.709 131.573L104.037 131.671L102.656 131.811L101.952 131.872L100.472 131.939L98.0781 131.979H97.5043L96.4329 131.962L95.9074 131.952L94.9198 131.907L93.95 131.859L93.9195 131.854H94.0109L94.1125 131.839L94.3232 131.816L94.5237 131.804L94.6481 131.796L95.2118 131.769L95.5672 131.756L96.3238 131.734L96.7452 131.724L97.6059 131.709L98.0476 131.706L98.7458 131.696L99.1647 131.689L99.3475 131.681L99.6953 131.669L99.8425 131.661L100.119 131.644L100.228 131.634L100.432 131.613L100.505 131.603L100.63 131.578L100.663 131.566L100.711 131.541L100.703 131.526L100.665 131.496L100.617 131.481L100.279 131.333L100.251 131.293L100.264 131.28L100.31 131.258L100.363 131.255L100.472 131.213L100.533 131.145L100.558 131.082L100.602 130.937L100.619 130.832L100.652 130.591L100.663 130.431L100.68 130.077L100.685 129.849L100.693 129.361V129.058V128.414L100.688 128.028L100.678 127.206L100.67 126.725L100.657 124.835L100.663 124.279L100.668 124.026L100.678 123.535L100.685 123.317L100.703 122.903L100.713 122.725L100.739 122.392L100.751 122.257L100.782 122.011L100.8 121.926L100.833 121.776L100.853 121.741L100.932 121.472L100.896 121.412L100.85 121.387L100.741 121.345L100.652 121.33L100.452 121.3L100.31 121.29L99.9974 121.272L99.7943 121.267L99.3525 121.257H99.3348L99.7232 121.239L100.942 121.114L101.257 121.077L101.922 120.984L102.262 120.934L102.991 120.818L103.265 120.771L103.778 120.676L104.026 120.628L104.448 120.535L104.643 120.493L104.928 120.415L105.149 120.325L105.171 120.302L105.083 120.152L105.017 120.062L104.78 119.801L104.646 119.661L104.291 119.322L103.663 118.766L102.676 117.929L100.863 116.25L99.9847 115.406L99.3297 114.712M68.6381 130.22L67.8816 129.692L67.0158 129.02L66.9092 128.935M65.2666 127.592L65.6855 127.95L65.3098 127.647L64.4948 126.923L63.9185 126.394M71.771 122.808L72.6926 123.505L74.5612 124.858L75.5259 125.477L77.4732 126.67L78.4785 127.203L79.8876 127.92L78.9254 127.451L78.085 127.023L76.4576 126.086L75.6528 125.602L74.0864 124.55L73.3095 124.008L71.7989 122.838L71.0475 122.237L69.5826 120.939L67.4246 118.849L69.9913 121.295M92.9598 120.839L94.7548 121.069L94.4806 121.046L94.0718 121.001L93.295 120.904L92.9979 120.851L92.6907 120.786M89.7965 120.112L89.0069 119.891L88.9358 119.866M87.1181 119.222L86.7068 119.072L86.6205 119.034M84.8306 118.24L84.4879 118.085L84.3685 118.022M82.6752 117.112L82.3578 116.939L82.1903 116.834M80.6162 115.829L80.3268 115.641L80.1084 115.484M78.6512 114.394L78.3998 114.203L78.1332 113.978M97.941 113.218L97.6109 112.858L97.4231 112.624M76.7928 112.81L76.5871 112.629L76.2799 112.326M37.157 95.2242L37.3576 97.3015L37.4972 98.3364L37.8069 100.396L37.9999 101.421L38.4137 103.463L38.66 104.473L39.1804 106.49L39.48 107.488L40.1046 109.475L40.4549 110.454L40.8764 111.585L40.5844 110.853L40.0385 109.394L39.1297 106.393L38.7082 104.879L38.0456 101.792L37.746 100.241L37.3296 97.0935L37.1545 95.5123L37.1062 94.6077M75.0537 111.086L74.8988 110.928L74.5586 110.542M73.4441 109.234L73.34 109.111L72.9769 108.63M93.9652 107.911L93.7875 107.64L93.6301 107.352M71.9563 107.227L71.997 107.285L71.9233 107.184L71.5349 106.58M90.7232 100.84L90.9415 101.489L91.401 102.782L91.6625 103.416L92.2084 104.676L92.513 105.295L92.8304 105.911L92.7974 105.851L92.3251 104.952L91.5305 103.117L91.1548 102.195L90.548 100.313L90.3804 99.6243M70.6006 105.057L70.7123 105.252L70.6514 105.157L70.2731 104.453L70.2579 104.428M69.5775 103.112L69.5394 103.035L69.4505 102.837M69.3236 102.551L69.2144 102.306L69.184 102.235M68.6102 100.877L68.5899 100.83L68.5137 100.612M68.3589 100.173L68.3208 100.073L68.2852 99.9651M67.8181 98.5594L67.8156 98.5469L67.7775 98.409M89.5426 95.387L89.7483 96.7928L89.8828 97.4794L90.0453 98.2462L89.8473 97.4217L89.7279 96.8053L89.5452 95.4647L89.4614 94.7781V94.7681M67.6125 97.7851L67.6074 97.7675L67.5871 97.6874M36.9996 92.5805L36.9844 92.3274L36.9793 92.147M36.9437 91.052L36.9666 91.7336L36.9336 90.7337L36.9514 89.9519M66.96 85.8675L66.8787 86.8021L66.8407 87.2807L66.7899 88.2981L66.7696 88.8118L66.7569 89.5259L66.7696 88.8143L66.7899 88.3006L66.8407 87.2832L66.8787 86.8046L66.96 85.8675L67.0133 85.4465L67.125 84.6421V84.6396L67.0133 85.4465M55.8248 86.7921L55.7283 88.3808L55.741 88.035L55.774 87.3384L55.8756 86.1506M37.1037 85.8173L37.0428 86.8598L37.0834 85.9401L37.124 85.5567M61.857 68.4145L60.7653 70.2613L60.2728 71.2185L59.3258 73.148L58.9095 74.1403L58.1123 76.1449L57.7721 77.1723L57.1323 79.2421L56.8733 80.2996L56.3986 82.427L56.2209 83.5095L55.9314 85.5592L55.9594 85.2736L56.1447 83.9104L56.2437 83.2314L56.4951 81.8908L56.6296 81.2217L56.9444 79.8986L57.112 79.2396L57.4928 77.9416L57.6908 77.2926L58.1377 76.0171L58.3687 75.3807L58.8764 74.1303L59.1405 73.5063L59.7117 72.281L60.0062 71.6721L60.6409 70.4743L60.9659 69.8779L61.6641 68.7077L62.0195 68.1289L62.2048 67.8482M90.3703 80.1116L90.1799 80.9511L89.8295 82.6575L89.6975 83.5496L89.5528 84.6572L89.5959 84.2663L89.6848 83.5446L89.9057 82.1814L90.3119 80.2971L90.5201 79.4877L90.8171 78.5881M70.428 75.4333L69.9152 76.383L69.0393 78.3225L68.628 79.2997L67.9577 81.2843L67.1936 84.3038L67.7039 82.1263L68.1151 80.713L68.3563 80.0264L68.8616 78.6633L69.1484 78.0017L69.7476 76.6887L70.0802 76.0497L70.7733 74.7868L71.0754 74.3007M37.5683 81.4923L37.6089 81.1716L37.7435 80.4449M91.2766 77.235L91.3249 77.0971L91.3858 76.9518M94.9325 70.349L95.0315 70.1987L95.26 69.8929M75.3761 68.8505L75.0359 69.1938L74.4418 69.8228L74.7033 69.5246L75.2263 68.9833L75.795 68.4396M97.3088 67.2844L95.7246 69.2665L96.1308 68.7227L96.697 67.9885L97.6592 66.8709M77.4554 66.8709L77.138 67.1566L77.331 66.9712L77.6204 66.7256M62.7659 67.0088L62.7786 66.9887L63.1645 66.4224L63.3498 66.1743M98.9362 65.4652L97.8648 66.6329L97.941 66.5427L98.5808 65.826L98.9743 65.4226M83.2972 62.8867L83.3606 62.8516L83.414 62.8266M91.8428 59.8547L91.2182 59.98L89.9564 60.3032L89.3268 60.4736L88.0625 60.8796L87.4329 61.09L86.1863 61.5687L85.7725 61.7365L85.9248 61.6664L87.0343 61.2153L87.5852 61.0174L88.682 60.639L89.2278 60.4786L90.3246 60.1754L90.878 60.0476L91.9849 59.8121L92.5486 59.7194L92.5689 59.7169M101.465 48.6036L102.153 48.6312L103.392 48.7189L103.686 48.7464L104.23 48.8041L104.968 48.9068L105.74 49.0346L107.365 49.3779L108.182 49.5608L109.817 49.9893L110.622 50.2123L112.151 50.701L114.199 51.4602L115.959 52.1919L114.931 52.8635L113.763 53.6328L113.207 54.0061L112.11 54.7478L111.587 55.1062L110.556 55.8178L110.064 56.1636L108.157 57.5243L107.289 58.1733L105.603 59.4512L104.834 60.0702L103.684 61.0124L103.737 60.9623L103.92 60.7944L104.191 60.5313L104.311 60.411L104.466 60.2306L104.529 60.1479L104.585 60.0276L104.6 59.975L104.57 59.8998L104.227 59.7419L104.146 59.7194L103.92 59.6743L103.795 59.6542L103.493 59.6141L103.176 59.574L102.353 59.5089L101.919 59.4788L100.927 59.4337L100.419 59.4137L99.3348 59.3861L98.7889 59.3761L97.6947 59.3711H97.1539L96.1283 59.3911L95.6307 59.4036L94.7725 59.4462L95.4377 59.3861L96.0445 59.356L97.2682 59.3109L97.9054 59.3084L98.9387 59.2884L99.5734 59.2583L99.8425 59.2357L100.343 59.1856L100.518 59.1581L100.817 59.0954L100.871 59.0628L101.059 58.8874L101.041 58.8173H100.955L100.878 58.7521L100.835 58.6444L100.815 58.5567L100.777 58.3537L100.762 58.2184L100.731 57.9177L100.718 57.7273L100.693 57.3213L100.683 57.0757L100.665 56.5545L100.657 56.2513L100.645 55.6124L100.64 55.2465L100.63 54.4822L100.627 54.0512L100.635 52.1343L100.642 51.573L100.65 51.3224L100.665 50.8388L100.673 50.6283L100.693 50.2274L100.703 50.062L100.729 49.7563L100.741 49.6435L100.769 49.4406L100.784 49.3804L100.817 49.2902H100.835L101.048 49.1699L101.186 48.9945L101.229 48.8818L101.249 48.759L101.221 48.6913L101.175 48.6663L101.064 48.6161L100.97 48.5986L100.863 48.5861M78.3592 53.1517L77.6737 53.5225L77.8083 53.4448L78.6867 52.9737L78.8517 52.8961M84.5539 50.5506L81.3855 51.7384L80.2201 52.2546L80.4994 52.1218L81.4159 51.7133L83.3048 50.9841L84.2568 50.6358L84.8687 50.4479M91.5026 48.9193L90.5734 49.0371L90.1265 49.1098L89.0425 49.3128L89.2507 49.2601L89.4665 49.2125L89.9564 49.1248L90.2103 49.0822L90.7663 49.002L91.3401 48.9269L91.9443 48.8692M98.4208 48.561L97.9841 48.571L97.0524 48.5961L96.4964 48.6111L94.6278 48.6788L93.5006 48.7389L92.9827 48.779L92.0306 48.8592L92.6501 48.8016L93.3254 48.7439L94.7827 48.6587L95.519 48.6186L97.0397 48.576L97.8013 48.5585L98.6442 48.556M106.984 30.5518L109.338 30.8901L110.17 31.0329L111.894 31.4063L112.762 31.6067L114.537 32.0853L115.428 32.3359L117.226 32.9097L118.127 33.2079L119.927 33.867L120.823 34.2052L122.598 34.942L123.479 35.3178L125.203 36.1197L126.056 36.5281L127.706 37.3876L130.067 38.7307L130.255 38.846L130.575 39.0339L130.725 39.1216L130.973 39.262L131.093 39.3271L131.286 39.4198L131.377 39.4599L131.527 39.5125L131.669 39.5526L131.872 39.5226L132.156 39.3396L132.23 39.272L132.035 39.5752L131.811 39.8734L131.341 40.4748L131.07 40.7855L130.504 41.4094L130.181 41.7327L129.513 42.3842L129.138 42.725L128.361 43.4116L127.932 43.7699L127.041 44.4991L126.551 44.88L125.54 45.6543L124.989 46.0602L123.855 46.8871L123.238 47.3206L122.468 47.8594L122.567 47.7642L122.702 47.6188L122.788 47.3733L122.801 47.2555L122.641 47.03L122.532 46.9147L122.128 46.6691L121.9 46.5413L121.26 46.2331L120.039 45.6593L119.313 45.311L117.832 44.6745L117.089 44.3638L115.581 43.8L114.821 43.5268L113.288 43.0382L112.516 42.8027L110.957 42.3842L110.175 42.1862L108.599 41.8429L107.807 41.6801L106.212 41.4119L105.415 41.2867L103.811 41.0937L103.046 41.011L103.194 41.0185L104.047 41.0636L104.405 41.0762L104.747 41.0887L104.897 41.0937L105.182 41.0987H105.296L105.507 41.0962L105.58 41.0937L105.71 41.0837L105.738 41.0787L105.964 40.8732L106.019 40.7228L106.04 40.6101L106.08 40.362L106.096 40.1941L106.126 39.8208L106.136 39.5802L106.157 39.0615L106.162 38.7382L106.174 38.0441L106.179 37.6232L106.19 36.7311L106.192 36.2024L106.223 34.3155L106.258 33.1754L106.283 32.7018L106.309 32.2457L106.324 32.0502L106.352 31.6819L106.367 31.5341L106.398 31.2634L106.415 31.1707L106.448 31.0128L106.464 30.9828L106.547 30.7372L106.509 30.6194L106.426 30.5743L106.207 30.4891L106.017 30.449L106.004 30.4465M133.479 36.4254L133.337 36.9917L133.238 37.2749L133.025 37.8437L132.961 37.974L133.18 37.3676L133.322 36.924L133.52 36.022M74.3707 34.5886L74.5332 34.5185L74.5434 34.5135M74.9648 34.3431L76.0007 33.9221L76.026 33.9146M80.6365 32.391L79.0929 32.8797L76.8385 33.6389L79.0371 32.8947L80.573 32.4061L83.7516 31.5917L83.8303 31.5767M84.3432 31.4739L88.6845 30.6069L88.7607 30.5944M98.7737 30.0481L99.7207 30.0606L101.61 30.1308L102.549 30.1734L102.851 30.1934L102.772 30.1909L102.43 30.1809L100.98 30.1483L100.178 30.1383L98.535 30.1233H97.6972L96.0521 30.1283L95.0671 30.1383L94.6253 30.1458L93.7723 30.1634L93.3864 30.1759L92.6374 30.2035L92.2972 30.221L91.302 30.2837L91.6016 30.2561L93.2899 30.1483L94.1505 30.1007L95.9709 30.0531L96.8899 30.0381L98.7737 30.0481Z" fill="#842457"/>
<path d="M93.3884 168.68L93.3351 168.672L93.1752 168.655L93.0863 168.645L92.8629 168.62L92.6242 168.592L91.9921 168.527L91.6595 168.492L90.9004 168.414L89.7072 168.296L88.0595 168.136L84.792 167.657L83.1647 167.392L79.9455 166.708L78.3435 166.342L75.1827 165.457L73.6086 164.991L70.5138 163.914L68.9753 163.35L65.9541 162.087L64.4562 161.431L61.5189 159.985L60.0616 159.238L57.2181 157.617L55.8091 156.785L53.0697 154.993L51.7115 154.076L49.0813 152.121L47.7789 151.124L45.268 149.009L44.0291 147.934L41.6477 145.672L40.4722 144.519L38.2279 142.111L37.121 140.888L35.0239 138.34L33.9932 137.047L32.0485 134.365L31.0989 133.007L29.3192 130.198L26.8439 125.846L26.0391 124.32L24.5945 121.212L23.9014 119.649L22.6752 116.474L22.0913 114.88L21.0859 111.65L20.6112 110.029L19.8267 106.751L19.4611 105.11L18.8924 101.8L18.636 100.141L18.2856 96.8083L18.1384 95.1394L18.0063 91.7942L17.9683 90.1203L18.052 86.775L18.1206 85.1012L18.4227 81.7634L18.6004 80.0971L19.1183 76.7794L19.4027 75.123L20.1364 71.8379L20.5299 70.1991L21.4794 66.9541L21.9796 65.3379L23.1423 62.1454L23.7516 60.5568L25.1277 57.427L25.8436 55.8734L27.4355 52.8188L30.0631 48.3334L31.0126 46.8249L33.0894 43.8982L34.1557 42.4498L36.4482 39.6558L37.6186 38.2751L40.1091 35.629L41.376 34.326L44.0468 31.8452L45.4 30.6274L48.2333 28.3271L49.6677 27.202L52.6407 25.0996L54.1462 24.0722L57.2486 22.1828L62.0215 19.6044L62.971 19.1358L64.8853 18.2562L65.8475 17.8252L67.7897 17.0234L68.7621 16.6325L70.7271 15.9108L71.7121 15.5575L73.6975 14.9135L74.6902 14.6003L76.6958 14.0365L77.6986 13.7633L79.7221 13.2772L80.7325 13.0442L82.7686 12.6382L83.7892 12.4453L85.838 12.1195L86.8637 11.9667L88.9227 11.7186L89.9534 11.6058L92.02 11.4429L93.0558 11.3703L95.1275 11.2851L96.1659 11.2525L98.2451 11.25L99.2835 11.26L101.365 11.3377L102.406 11.3878L104.486 11.5482L105.526 11.6384L107.606 11.8815L110.721 12.3375L112.445 12.6257L115.793 13.3173L117.449 13.6831L120.627 14.5151L122.194 14.9486L125.162 15.9033L125.89 16.1514L127.297 16.6625L127.992 16.9206L129.333 17.4594L129.993 17.73L131.262 18.2888L131.887 18.572L133.075 19.1508L133.661 19.444L134.768 20.0429L135.312 20.3436L136.33 20.96L136.827 21.2682L137.751 21.8972L138.203 22.2129L139.028 22.8544L139.43 23.1751L140.151 23.8266L141.113 24.8089L141.501 25.2499L142.171 26.1646L142.491 26.6306L143.037 27.6305L143.299 28.1442L143.738 29.2668L144.302 31.1261L144.446 31.6949L144.652 32.8325L144.741 33.4013L144.837 34.5315L144.873 35.0953L144.865 36.2103L144.847 36.7641L144.731 37.8567L144.66 38.3979L144.441 39.4604L144.317 39.9866L143.992 41.0115L143.817 41.5176L143.388 42.4974L142.631 43.9057L142.248 44.5371L141.438 45.7199L141.019 46.3012L140.097 47.4314L139.615 47.9927L138.518 49.1203L138.229 49.4059L137.609 49.9823L137.292 50.2729L136.604 50.8693L136.254 51.17L135.494 51.7915L135.103 52.1047L134.263 52.7587L133.832 53.0895L132.902 53.7811L132.425 54.1319L131.399 54.8686L130.874 55.242L129.742 56.0313L129.163 56.4322L127.919 57.2792L127.281 57.7102L125.918 58.6223L123.727 60.0706L123.24 60.3914L122.313 61.0028L121.859 61.306L120.995 61.8798L120.147 62.4461L118.624 63.4836L117.888 63.9897L116.563 64.9194L115.92 65.3729L114.763 66.2174L114.204 66.6334L113.181 67.4177L112.686 67.8036L111.767 68.5528L109.251 70.7704L108.723 71.2666L107.748 72.2363L107.276 72.7175L106.407 73.6647L105.986 74.1357L105.217 75.0704L104.846 75.5365L104.168 76.4661L103.843 76.9297L103.254 77.8644L102.97 78.3355L102.46 79.2827L102.213 79.7613L101.779 80.7335L101.2 82.232L101.114 82.4776L100.972 82.9011L100.906 83.104L100.799 83.4849L100.751 83.6753L100.675 84.0688L100.642 84.2717L100.591 84.7328L100.568 84.9784L100.538 85.5647L100.525 85.878L100.51 86.6447L100.505 87.0557L100.5 88.058L100.497 88.3261V88.915V89.8872V90.2305V90.8595V91.1627L100.5 91.7165L100.502 92.2527L100.51 93.1298L100.517 93.5407L100.538 94.2098L100.55 94.523L100.591 95.0417L100.614 95.2848L100.675 95.7057L100.71 95.9112L100.799 96.2896L100.85 96.48L100.972 96.8734L101.2 97.5425L101.375 98.0512L101.779 99.041L101.987 99.5296L102.46 100.492L102.706 100.968L103.254 101.91L103.539 102.379L104.168 103.308L104.496 103.774L105.217 104.704L105.59 105.17L106.407 106.11L106.829 106.581L107.748 107.538L109.251 109.004L110.053 109.756L111.769 111.224L112.219 111.598L113.186 112.362L113.684 112.748L114.768 113.56L115.329 113.976L116.568 114.86L117.207 115.314L118.627 116.291L119.363 116.797L120.998 117.895L121.422 118.178L122.316 118.769L123.727 119.701L124.237 120.035L125.21 120.679L125.69 120.997L126.604 121.608L127.505 122.212L129.137 123.327L129.927 123.871L131.354 124.876L132.042 125.367L133.278 126.277L133.875 126.72L134.938 127.547L135.451 127.95L136.36 128.705L136.799 129.076L137.571 129.775L138.597 130.772L139.153 131.346L140.143 132.456L140.618 133.005L141.45 134.077L141.847 134.611L142.527 135.666L142.847 136.192L143.382 137.239L143.634 137.766L144.032 138.826L144.218 139.359L144.487 140.447L144.609 140.996L144.756 142.126L144.852 143.887L144.858 144.637L144.733 146.163L144.647 146.924L144.355 148.415L144.19 149.152L143.746 150.535L142.933 152.405L142.697 152.848L142.1 153.723L141.781 154.159L141.021 155.018L140.62 155.447L139.706 156.291L139.229 156.71L138.168 157.534L137.617 157.942L136.416 158.739L135.799 159.135L134.466 159.905L133.783 160.288L132.326 161.027L131.585 161.39L130.011 162.097L129.211 162.443L127.533 163.109L126.68 163.438L124.9 164.064L123.999 164.37L122.128 164.951L121.181 165.234L119.226 165.766L118.238 166.026L116.205 166.505L115.181 166.738L113.082 167.161L112.023 167.367L109.863 167.733L106.562 168.214L106.385 168.236L105.961 168.281L105.74 168.304L105.24 168.349L104.724 168.392L103.523 168.472L102.901 168.509L101.563 168.58L100.885 168.612L99.5095 168.665L98.8265 168.69L97.5165 168.722L96.8767 168.737L95.7292 168.748L95.4575 168.75L94.9625 168.748L94.7238 168.745L94.3049 168.735L94.1044 168.73L93.7718 168.712L93.6195 168.705M105.633 157.406L106.628 157.278L108.626 156.963L109.627 156.797L111.617 156.414L112.612 156.213L114.577 155.762L115.555 155.532L117.479 155.021L118.431 154.76L120.292 154.194L121.214 153.906L122.996 153.289L123.874 152.976L125.558 152.314L127.954 151.277L128.551 151.001L129.569 150.5L130.051 150.255L130.859 149.796L131.237 149.571L131.854 149.13L132.141 148.909L132.593 148.463L132.801 148.235L133.108 147.756L133.248 147.511L133.435 146.975L133.517 146.699L133.608 146.08L133.661 145.033L133.664 144.444L133.494 143.314L133.433 143.033L133.26 142.474L133.164 142.193L132.915 141.632L132.78 141.352L132.448 140.78L132.27 140.495L131.849 139.908L131.625 139.612L131.107 139.006L130.836 138.698L130.211 138.061L129.889 137.738L129.155 137.067L128.774 136.723L127.926 136.009L127.487 135.646L126.515 134.884L126.012 134.496L124.91 133.676L124.341 133.258L123.103 132.378L122.465 131.93L121.082 130.98L120.373 130.494L118.84 129.469L116.365 127.84L115.905 127.54L115.039 126.971L114.613 126.69L113.808 126.159L113.016 125.635L111.599 124.678L110.914 124.212L109.677 123.355L109.081 122.934L107.987 122.142L107.453 121.751L106.461 120.999L105.973 120.623L105.044 119.879L102.289 117.534L101.66 116.975L100.472 115.852L99.8903 115.289L98.7986 114.156L98.2655 113.587L97.2677 112.442L96.7803 111.866L95.8764 110.703L95.4347 110.119L94.6223 108.936L94.2262 108.34L93.5052 107.135L93.1548 106.528L92.5201 105.298L92.2155 104.679L91.6697 103.419L91.4082 102.785L90.9486 101.492L90.7303 100.843L90.3571 99.5146L90.1794 98.848L89.89 97.4823L89.7554 96.7958L89.5498 95.39L89.4558 94.6809L89.3314 93.23L89.2781 92.4983L89.2324 91.0023L89.2197 90.2456L89.2553 88.6995L89.3924 86.3165L89.4711 85.3643L89.7046 83.5526L89.8366 82.6605L90.187 80.954L90.3774 80.1146L90.8496 78.4983L91.1035 77.699L91.7077 76.1504L92.0276 75.3836L92.7715 73.8852L93.1599 73.1384L94.051 71.67L94.5156 70.9383L95.5616 69.4825L97.3159 67.2874L97.8389 66.6709L98.9433 65.4682L99.5069 64.8693L100.71 63.6815L101.327 63.0901L102.66 61.8974L103.346 61.296L104.841 60.0731L105.61 59.4542L107.296 58.1763L108.164 57.5272L110.071 56.1666L110.563 55.8208L111.594 55.1091L112.117 54.7508L113.214 54.0091L113.77 53.6357L114.938 52.8664L116.768 51.6687L117.596 51.1349L119.139 50.1176L119.893 49.6189L121.297 48.6717L121.98 48.2081L123.245 47.3236L123.862 46.8901L124.996 46.0632L125.547 45.6572L126.558 44.8829L127.048 44.5021L127.939 43.7729L128.368 43.4145L129.145 42.728L129.521 42.3872L130.188 41.7357L130.511 41.4124L131.077 40.7885L131.349 40.4777L131.818 39.8763L132.042 39.5782L132.42 38.9943L132.6 38.7036L132.895 38.1298L133.032 37.8466L133.245 37.2778L133.344 36.9947L133.486 36.4284L133.661 34.6993V34.4087L133.626 33.8774L133.603 33.6218L133.519 33.1533L133.471 32.9277L133.334 32.5143L133.26 32.3138L133.062 31.943L132.956 31.7625L132.692 31.4217L132.549 31.2564L132.214 30.9406L132.037 30.7828L131.62 30.4771L130.902 30.0185L130.254 29.6401L128.772 28.8909L128.002 28.5175L126.304 27.7933L125.431 27.435L123.544 26.7434L122.582 26.4026L120.541 25.7536L119.505 25.4354L117.342 24.839L116.248 24.5483L113.991 24.0146L112.853 23.7565L110.535 23.2929L107.024 22.6915L106.4 22.5963L104.996 22.4409L104.27 22.3708L102.706 22.2655L101.909 22.2179L100.243 22.1603L99.4003 22.1377L97.6866 22.1277L96.826 22.1302L95.1173 22.1678L94.2694 22.1954L92.6242 22.2806L91.8144 22.3307L90.286 22.466L88.1839 22.7241L86.686 22.9471L83.7791 23.5059L82.3396 23.8066L79.5342 24.5157L78.1429 24.8916L75.4315 25.7611L74.0834 26.2147L71.4532 27.2446L70.1457 27.7808L67.5815 28.9761L66.307 29.595L63.8038 30.9607L62.5572 31.6673L60.0971 33.2084L56.4489 35.7242L56.2255 35.8896L55.738 36.2655L55.4867 36.4634L54.951 36.8994L54.4077 37.3505L53.2094 38.3979L52.5975 38.9392L51.3179 40.1219L50.6756 40.7233L49.3783 41.9762L48.736 42.6077L47.4869 43.8681L46.875 44.492L45.7427 45.6973L45.1944 46.2862L44.2423 47.3712L44.0164 47.6318L43.6127 48.1179L43.0821 48.792L42.1859 49.9772L40.5357 52.3528L39.7334 53.543L38.2634 55.9411L37.55 57.1439L36.2552 59.5795L35.6256 60.8048L34.4959 63.2981L33.95 64.5535L32.9777 67.1195L32.5105 68.415L31.6879 71.0761L31.2944 72.4193L30.6166 75.1882L29.7483 79.4881L29.6848 79.8465L29.5807 80.498L29.53 80.8187L29.4487 81.4377L29.4106 81.7484L29.3472 82.3823L29.3192 82.7081L29.2761 83.4097L29.2558 83.7756L29.2278 84.5975L29.2126 85.0285L29.1974 86.0208L29.1898 86.5445L29.1821 87.7598L29.1796 88.0781V88.7697L29.1771 89.8872V90.2782L29.1796 91.0048V91.3582L29.1821 92.0147L29.1847 92.6562L29.1974 93.7537L29.205 94.2749L29.2278 95.177L29.2405 95.608L29.2761 96.3648L29.2964 96.7281L29.3472 97.3921L29.3776 97.7154L29.4487 98.3368L29.4868 98.6475L29.5807 99.2765L29.7483 100.286L30.0047 101.752L30.6166 104.586L30.939 105.987L31.6879 108.698L32.0815 110.041L32.9777 112.655L33.4448 113.948L34.4959 116.476L35.0417 117.732L36.2552 120.195L36.8823 121.42L38.2634 123.833L38.9768 125.036L40.5357 127.422L43.0821 130.982L43.242 131.19L43.6101 131.652L43.8031 131.887L44.2347 132.396L44.6815 132.914L45.7326 134.065L46.2784 134.653L47.4767 135.894L48.0886 136.52L49.3707 137.788L50.0155 138.42L51.3154 139.65L51.9603 140.254L53.2119 141.382L53.8238 141.928L54.9611 142.89L55.2353 143.116L55.7507 143.529L56.4666 144.078L57.5659 144.887L59.7975 146.396L60.9172 147.132L63.1945 148.498L64.342 149.162L66.6726 150.387L67.843 150.981L70.2346 152.066L71.4354 152.59L73.8904 153.537L75.1268 153.996L77.6504 154.808L78.9223 155.199L81.5246 155.88L85.5181 156.757L86.0716 156.865L87.3562 157.07L88.0265 157.173L89.5269 157.366L90.3038 157.461L92.0099 157.644L94.7848 157.897L95.0285 157.917L95.6911 157.94L96.044 157.947L96.8843 157.945L97.3236 157.94L98.2883 157.915L98.7834 157.9L99.8217 157.857L100.868 157.81L102.95 157.669L103.452 157.632L104.387 157.544L104.838 157.501M141.118 128.043L140.915 127.722L140.364 126.988L140.067 126.607L139.358 125.773L138.985 125.347L138.15 124.45L137.718 123.996L136.787 123.067L135.842 122.137L133.811 120.32L133.306 119.882L132.298 119.057L130.836 117.932L130.635 117.784L130.163 117.444L129.914 117.266L129.363 116.87L128.797 116.464L127.515 115.552L126.863 115.091L125.525 114.151L123.631 112.828L123.014 112.399L121.899 111.618L121.358 111.237L120.378 110.538L119.906 110.197L119.043 109.563L118.624 109.252L117.855 108.666L117.479 108.378L116.783 107.826L116.443 107.553L115.798 107.017L113.95 105.388L113.31 104.799L112.148 103.594L111.587 102.988L110.581 101.745L110.099 101.121L109.251 99.8428L108.85 99.2013L108.162 97.8933L107.837 97.2368L107.309 95.8962L107.065 95.2246L106.699 93.859L106.537 93.1724L106.331 91.7791L106.209 89.6642V88.9551L106.319 87.5794L106.39 86.9003L106.649 85.5773L106.796 84.9207L107.21 83.6403L107.436 83.0013L108.007 81.7484L108.314 81.1244L109.053 79.8891L109.441 79.2726L110.353 78.0448L110.827 77.4309L111.914 76.2005L113.747 74.3362L114.486 73.6321L115.9 72.3742L116.26 72.0609L117.025 71.432L117.416 71.1137L118.269 70.4472L118.71 70.1064L119.698 69.3697L120.213 68.9913L121.381 68.1494L121.686 67.9314L122.336 67.4703L122.668 67.2372L123.379 66.7386L123.742 66.483L124.517 65.9418L125.758 65.0798L126.294 64.7089L127.309 63.9972L127.807 63.6464L128.751 62.9724L129.213 62.6391L130.092 61.9976L130.521 61.6794L131.336 61.068L132.133 60.4641L133.56 59.3289L134.245 58.7701L135.467 57.7102L136.058 57.1865L137.109 56.1716L137.617 55.6679L138.531 54.6706L138.975 54.172L139.782 53.1646L140.907 51.611L141.098 51.3279L141.466 50.8092L141.643 50.5611L141.951 50.1501L142.095 49.9647L142.314 49.7066L142.499 49.5437H142.527L142.616 49.7217L142.664 49.8369L142.783 50.2103L142.844 50.4133L142.984 50.9295L143.058 51.2001L143.205 51.8115L143.352 52.4354L143.624 53.7585L143.685 54.0793L143.789 54.6781L143.898 55.46L143.941 55.8333L143.959 56.6302L143.956 57.0361L143.885 57.8881L143.842 58.3166L143.69 59.1986L143.606 59.6421L143.377 60.5367L143.256 60.9828L142.961 61.8698L142.804 62.3108L142.443 63.1678L142.255 63.5913L141.834 64.4032L141.143 65.5433L140.724 66.1648L139.818 67.2623L139.572 67.5354L139.023 68.0792L138.736 68.3523L138.079 68.9211L137.731 69.2118L136.926 69.8358L136.502 70.1565L135.517 70.8632L134.999 71.229L133.801 72.0434L133.486 72.2564L132.811 72.7074L131.724 73.4241L130.991 73.9077L129.472 74.9201L128.721 75.4262L127.286 76.3985L126.941 76.634L126.294 77.0776L125.982 77.2931L125.413 77.689L125.141 77.8794L124.672 78.2102L124.103 78.6211L123.301 79.215L121.785 80.498L121.051 81.147L119.741 82.465L119.431 82.7933L118.865 83.4398L118.594 83.758L118.111 84.3795L117.883 84.6852L117.497 85.269L117.04 86.0884L116.948 86.2789L116.794 86.6122L116.723 86.7725L116.606 87.0632L116.494 87.3464L116.365 87.8876L116.309 88.1708L116.26 88.8574L116.25 89.0478L116.243 89.4888L116.238 90.2631V90.5513L116.243 91.0424L116.245 91.273L116.258 91.6664L116.273 92.0397L116.354 92.5935L116.405 92.8541L116.583 93.3227L116.999 94.1346L117.22 94.528L117.733 95.2973L118.007 95.6807L118.652 96.4474L118.995 96.8359L119.807 97.6302L120.236 98.0336L121.244 98.8831L121.777 99.3166L123.019 100.249L123.344 100.487L124.044 100.985L124.405 101.239L125.177 101.765L125.57 102.033L126.416 102.594L126.847 102.88L127.769 103.476L128.241 103.782L129.246 104.418L130.848 105.423L131.427 105.784L132.433 106.416L132.91 106.719L133.74 107.255L134.136 107.513L134.827 107.979L135.157 108.205L135.741 108.626L136.307 109.039L137.261 109.836L138.709 111.187L139.178 111.65L140.008 112.547L140.407 112.993L141.095 113.873L141.423 114.311L141.981 115.191L142.243 115.632L142.677 116.531L142.877 116.988L143.195 117.925L143.342 118.403L143.553 119.401L143.647 119.909L143.761 120.987L143.832 122.713V123.024L143.801 123.708L143.781 124.056L143.713 124.788L143.636 125.525L143.403 126.971L143.339 127.319L143.202 127.958L143.131 128.264L142.984 128.795L142.91 129.043L142.76 129.429L142.542 129.797L142.517 129.822L142.372 129.717L142.286 129.642L142.047 129.361L141.918 129.201L141.613 128.782L141.456 128.559M141.907 110.615L141.758 110.194L141.354 109.337L141.133 108.909L140.585 108.032L140.29 107.588L139.584 106.679L139.211 106.22L138.34 105.268L137.881 104.784L136.832 103.777L136.284 103.263L135.048 102.191L134.405 101.644L132.968 100.494L130.582 98.6676L130.031 98.2592L128.998 97.4723L128.495 97.0839L127.556 96.3422L127.101 95.9789L126.268 95.2923L125.865 94.9565L125.146 94.33L124.801 94.0243L124.202 93.468L123.918 93.1974L123.448 92.7163L123.229 92.4858L122.897 92.0873L122.559 91.5912L122.432 91.3506L122.285 90.7518L122.229 90.441L122.219 89.772L122.232 89.4387L122.356 88.7972L122.689 87.9753L122.79 87.8124L123.039 87.4742L123.169 87.3038L123.486 86.9454L123.656 86.7625L124.055 86.3716L124.265 86.1711L124.76 85.7376L125.019 85.5146L125.621 85.0285L125.936 84.7779L126.654 84.2266L127.03 83.9435L127.878 83.3195L129.312 82.2921L130.082 81.7459L131.491 80.6959L132.176 80.1772L133.42 79.1749L134.024 78.6788L135.116 77.709L135.647 77.2254L136.601 76.2782L137.061 75.8046L137.889 74.8624L138.287 74.3913L139.001 73.4466L139.343 72.9705L139.953 72.0083L140.765 70.5299L140.882 70.2968L141.108 69.8734L141.217 69.6704L141.412 69.3346L141.506 69.1818L141.651 68.9713L141.788 68.8385H141.814L141.915 68.9863L141.971 69.0815L142.123 69.3872L142.204 69.5576L142.392 69.9836L142.489 70.2066L142.692 70.7103L142.9 71.2265L143.299 72.319L143.393 72.5821L143.555 73.0783L143.748 73.7248L143.893 74.266L144.083 75.346L144.162 75.8848L144.22 76.9523L144.233 77.4835L144.164 78.5309L144.114 79.0521L143.918 80.072L143.804 80.5782L143.484 81.5604L143.306 82.0466L142.865 82.9862L142.626 83.4473L142.062 84.3319L141.082 85.5873L140.922 85.7652L140.455 86.2087L140.201 86.4393L139.597 86.9404L139.287 87.1935L138.625 87.6922L137.647 88.3712L135.365 89.8547L137.02 90.8871L137.411 91.1301L138.15 91.6664L138.513 91.9445L139.201 92.5484L139.536 92.8566L140.163 93.5182L140.468 93.8564L141.032 94.5706L141.306 94.9339L141.798 95.6957L142.037 96.0816L142.461 96.8835L142.661 97.2869L143.007 98.1238L143.431 99.4093L143.512 99.705L143.641 100.379L143.702 100.73L143.786 101.497L143.824 101.89L143.867 102.722L143.883 103.145V104.02L143.87 104.902L143.718 106.684L143.669 107.12L143.54 107.972L143.299 109.182L143.223 109.51L143.068 110.122L142.992 110.415L142.852 110.916L142.783 111.149L142.672 111.485L142.557 111.743L142.532 111.768L142.451 111.71L142.405 111.665L142.291 111.487L142.232 111.385L142.103 111.111L142.039 110.964M91.9921 150.365L91.5732 150.327L90.616 150.205L90.121 150.134L89.0445 149.959L88.4936 149.866L87.3334 149.648L86.7469 149.535L85.5461 149.28L84.3427 149.019L81.974 148.43L81.4002 148.28L80.3085 147.972L78.803 147.511L77.9703 147.238L76.3226 146.634L75.5 146.323L73.8752 145.644L73.0653 145.296L71.4684 144.541L70.6738 144.156L69.1073 143.331L68.3279 142.91L66.7945 142.016L66.0303 141.56L64.5349 140.6L63.7911 140.111L62.3338 139.086L61.6102 138.568L60.1961 137.48L59.4929 136.929L58.1245 135.784L57.4466 135.205L56.1264 134.002L55.474 133.393L54.2046 132.138L53.5775 131.501L52.3665 130.193L51.7673 129.532L50.6122 128.173L50.0435 127.489L48.9518 126.084L48.4136 125.374L47.3853 123.924L45.9179 121.701L45.3619 120.814L44.3236 118.997L43.8183 118.083L42.8815 116.218L42.4271 115.279L41.5943 113.369L41.1907 112.407L40.462 110.457L40.1117 109.478L39.4871 107.491L39.1876 106.493L38.6671 104.476L38.4208 103.466L38.007 101.424L37.8141 100.399L37.5043 98.3393L37.3647 97.3044L37.1641 95.2271L37.0778 94.1872L36.9839 92.0999L36.9509 91.055L36.9661 88.9626L36.989 87.9152L37.1108 85.8203L37.187 84.7754L37.4206 82.6856L37.5526 81.6431L37.8978 79.5633L38.0832 78.5234L38.5376 76.4586L39.3475 73.3815L39.7029 72.1637L40.5255 69.7731L40.9546 68.5854L41.9269 66.2625L42.4296 65.1098L43.5441 62.8596L44.1204 61.7445L45.3772 59.5695L46.0246 58.492L47.4209 56.3971L48.1368 55.3597L49.6728 53.3501L50.4548 52.3553L52.1253 50.4333L54.7809 47.6544L55.9665 46.4867L58.4088 44.3292L59.6427 43.2817L62.1916 41.3598L63.4788 40.4301L66.1369 38.7387L67.48 37.9193L70.2625 36.4559L71.6664 35.7493L74.5784 34.5064L76.0509 33.91L79.1001 32.8826L80.6436 32.394L83.8425 31.5771L88.8186 30.5873L89.3593 30.4996L90.4561 30.3668L91.0223 30.3067L92.3044 30.224L92.6446 30.2064L93.3935 30.1789L93.7794 30.1663L94.6324 30.1488L95.0742 30.1413L96.0592 30.1313L97.7044 30.1262H98.5422L100.185 30.1413L100.987 30.1513L102.437 30.1839L102.779 30.1939L103.399 30.2139L103.696 30.2265L104.209 30.249L104.45 30.2616L104.838 30.2891L105.257 30.3292L105.42 30.3518L105.689 30.3944L105.818 30.4144L106.024 30.452L106.214 30.4921L106.433 30.5773L106.517 30.6224L106.555 30.7402L106.471 30.9857L106.456 31.0158L106.423 31.1737L106.405 31.2664L106.374 31.537L106.359 31.6849L106.331 32.0532L106.316 32.2487L106.291 32.7047L106.265 33.1783L106.23 34.3185L106.199 36.2053L106.197 36.7341L106.187 37.6261L106.181 38.0471L106.169 38.7412L106.164 39.0645L106.143 39.5832L106.133 39.8237L106.103 40.1971L106.087 40.365L106.047 40.613L106.027 40.7258L105.971 40.8762L105.745 41.0816L105.717 41.0866L105.587 41.0967L105.514 41.0992L105.303 41.1017H105.189L104.904 41.0967L104.755 41.0917L104.412 41.0791L104.054 41.0666L103.201 41.0215L101.802 40.9338L100.977 40.8737L99.3191 40.816L98.4889 40.796L96.826 40.8185L95.9932 40.8411L94.3303 40.9438L93.5001 41.004L91.8474 41.1844L91.0197 41.2846L89.3822 41.5427L88.5647 41.6805L86.9475 42.0163L86.1427 42.1917L84.5559 42.6027L82.2177 43.3043L81.1565 43.6501L79.0899 44.4419L78.0642 44.8554L76.0687 45.77L75.0811 46.2436L73.1643 47.281L72.2174 47.8122L70.3818 48.9649L69.478 49.5538L67.7288 50.8142L66.8681 51.4582L65.2128 52.8238L64.3979 53.518L62.839 54.9839L62.0698 55.7281L60.6125 57.2892L59.8966 58.0785L58.5434 59.7299L57.8807 60.5643L56.6367 62.3008L56.03 63.1778L54.9002 64.992L54.3493 65.9092L53.3388 67.7986L52.8489 68.7508L51.9628 70.7103L51.5337 71.7001L50.7746 73.7223L50.4116 74.7421L49.7845 76.827L48.9975 80.0169L48.7842 81.0267L48.4542 83.0514L48.3044 84.0638L48.1013 86.0884L48.015 87.1008L47.9388 89.123L47.916 90.1328L47.9642 92.145L48.0048 93.1473L48.1775 95.1444L48.279 96.1417L48.5735 98.1188L48.736 99.1061L49.1498 101.058L49.3732 102.03L49.9064 103.955L50.1882 104.912L50.8381 106.799L51.1783 107.739L51.9476 109.588L52.3436 110.508L53.2271 112.312L53.6816 113.206L54.6768 114.96L55.1871 115.83L56.294 117.529L56.8627 118.371L58.0788 120.01L58.7008 120.821L60.026 122.393L62.1332 124.675L62.8949 125.45L64.5019 126.926L65.3169 127.65L67.023 129.023L67.8887 129.694L69.6913 130.957L70.6027 131.574L72.489 132.724L73.4411 133.285L75.4061 134.315L76.3962 134.816L78.4323 135.723L79.4555 136.162L81.5525 136.944L84.7565 137.966L85.2973 138.122L86.3255 138.39L86.8332 138.517L87.8183 138.738L88.7957 138.948L90.743 139.239L91.2406 139.304L92.2637 139.402L92.7842 139.45L93.8809 139.515L94.442 139.545L95.6378 139.58L97.5774 139.607L98.2934 139.61L99.7583 139.6L100.484 139.595L101.85 139.567L102.178 139.56L102.787 139.542L103.084 139.535L103.615 139.515L103.866 139.505L104.298 139.482L104.813 139.445L105.092 139.42L105.577 139.384L105.806 139.369L106.161 139.357L106.316 139.352L106.501 139.359L106.547 139.397L106.519 139.41L106.468 139.537L106.443 139.617L106.397 139.868L106.377 140.006L106.339 140.359L106.321 140.547L106.291 140.986L106.26 141.442L106.222 142.532L106.207 143.093L106.197 144.286L106.194 144.882L106.212 146.032L106.225 146.589L106.27 147.548L106.283 147.771L106.316 148.155L106.331 148.335L106.372 148.621L106.392 148.751L106.44 148.922L106.517 149.029H106.633L106.677 149.089L106.463 149.275L106.382 149.328L106.283 149.4L106.242 149.433L106.23 149.475L106.235 149.493L106.311 149.51L106.527 149.52L106.717 149.523L106.91 149.596L106.976 149.641L106.946 149.766L106.905 149.831L106.679 149.964L106.146 150.129L106.082 150.142L105.841 150.167L105.702 150.177L105.318 150.202L105.11 150.212L104.607 150.237L104.343 150.247L103.739 150.27L103.429 150.28L102.746 150.3L102.396 150.31L101.655 150.33L100.901 150.347L99.2987 150.377L98.4965 150.39L96.9148 150.408L96.143 150.415L94.7416 150.42H94.4116L93.8099 150.415H93.523L93.0203 150.408L92.7867 150.402L92.4059 150.39L92.2333 150.382M91.3574 131.604L90.2225 131.411L87.996 130.89L86.8916 130.609L84.726 129.918L83.6521 129.549L81.5525 128.687L80.5116 128.236L78.4857 127.206L77.4803 126.672L75.533 125.48L74.5683 124.861L72.6997 123.508L71.7781 122.811L69.9984 121.298L67.4317 118.852L66.4746 117.87L64.7304 115.807L63.885 114.762L62.3694 112.58L61.6382 111.475L60.3535 109.179L59.7417 108.019L58.6932 105.624L58.1981 104.416L57.3908 101.928L57.0176 100.675L56.4539 98.1063L56.2026 96.8133L55.8878 94.1697L55.6974 90.1378V89.0152L55.8319 86.7951L55.9208 85.69L56.228 83.5125L56.4057 82.43L56.8805 80.3025L57.1394 79.2451L57.7792 77.1753L58.1194 76.1479L58.9166 74.1433L59.3329 73.151L60.2799 71.2215L60.7724 70.2643L61.8641 68.4175L62.4277 67.5029L63.6591 65.7463L64.2912 64.8793L65.6546 63.2179L66.3527 62.401L67.8455 60.8449L68.6072 60.0807L70.2193 58.6398L71.0419 57.9357L72.7708 56.6151L73.6492 55.9736L75.4899 54.7834L76.4216 54.2046L78.3663 53.1546L79.3514 52.6459L81.3926 51.7413L84.561 50.5536L85.0942 50.3782L86.0792 50.0725L86.5641 49.9271L87.4781 49.6791L88.3819 49.441L90.1337 49.1127L90.5805 49.0401L91.5097 48.9223L91.9819 48.8672L92.9898 48.782L93.5077 48.7419L94.635 48.6818L96.5035 48.6141L97.0595 48.5991L97.9913 48.574L98.4279 48.564L99.1413 48.5514L99.4739 48.5464H99.9944L100.236 48.5489L100.594 48.564L100.753 48.5715L100.977 48.6016L101.071 48.6191L101.183 48.6692L101.228 48.6943L101.256 48.7619L101.236 48.8847L101.193 48.9975L101.056 49.1729L100.842 49.2932H100.825L100.792 49.3834L100.776 49.4435L100.748 49.6465L100.736 49.7592L100.71 50.065L100.7 50.2303L100.68 50.6313L100.672 50.8418L100.657 51.3254L100.649 51.576L100.642 52.1373L100.634 54.0542L100.637 54.4852L100.647 55.2495L100.652 55.6153L100.665 56.2543L100.672 56.5575L100.69 57.0787L100.7 57.3243L100.726 57.7302L100.738 57.9207L100.769 58.2214L100.784 58.3567L100.822 58.5596L100.842 58.6473L100.885 58.7551L100.962 58.8202H101.048L101.066 58.8904L100.878 59.0658L100.825 59.0984L100.525 59.161L100.35 59.1886L99.8497 59.2387L99.5806 59.2613L98.9459 59.2913L97.9126 59.3114L97.2753 59.3139L96.0516 59.359L95.4448 59.3891L94.2719 59.4943L93.6905 59.5544L92.5557 59.7223L91.9921 59.8151L90.8852 60.0506L90.3317 60.1784L89.2349 60.4816L88.6891 60.642L87.5923 61.0203L87.0414 61.2183L85.932 61.6693L84.236 62.4361L83.3678 62.8546L81.7607 63.7567L80.9737 64.2228L79.4859 65.2501L78.7548 65.7814L77.3381 66.9741L75.2335 68.9863L74.7105 69.5276L73.7356 70.6451L73.2583 71.209L72.3773 72.3742L71.9482 72.963L71.1612 74.1783L70.7804 74.7898L70.0873 76.0527L69.7547 76.6917L69.1556 78.0047L68.8687 78.6662L68.3635 80.0294L68.1223 80.716L67.711 82.1293L67.2007 84.3068L67.1321 84.6451L67.0204 85.4495L66.9671 85.8704L66.8859 86.8076L66.8478 87.2862L66.797 88.3036L66.7767 88.8173L66.7564 89.8697L66.7513 90.3959L66.764 91.4333L66.7767 91.947L66.8224 92.9243L66.8478 93.4004L66.9265 94.2699L67.0839 95.4L67.2286 96.1994L67.6145 97.7705L67.8227 98.5498L68.3279 100.076L68.597 100.833L69.2216 102.309L69.5465 103.038L70.2803 104.456L70.6585 105.16L71.4989 106.516L71.9305 107.187L72.8673 108.478L73.3471 109.114L74.3804 110.332L74.906 110.931L76.0256 112.071L76.5943 112.632L77.7976 113.687L78.407 114.206L79.6865 115.173L80.3339 115.644L81.682 116.516L82.3649 116.942L83.7816 117.714L84.495 118.088L85.97 118.754L86.7139 119.075L88.2423 119.631L89.0141 119.894L90.5907 120.333L93.0051 120.854L93.3021 120.907L94.079 121.004L94.4877 121.049L95.4042 121.127L95.8714 121.162L96.8158 121.215L98.1411 121.25L98.4965 121.252L99.0855 121.257L99.3597 121.26L99.8014 121.27L100.005 121.275L100.317 121.293L100.459 121.303L100.66 121.333L100.748 121.348L100.858 121.39L100.903 121.415L100.939 121.475L100.86 121.744L100.84 121.779L100.807 121.929L100.789 122.014L100.759 122.26L100.746 122.395L100.72 122.728L100.71 122.906L100.693 123.32L100.685 123.538L100.675 124.029L100.67 124.282L100.665 124.838L100.677 126.728L100.685 127.209L100.695 128.031L100.7 128.417V129.061V129.364L100.693 129.852L100.687 130.08L100.67 130.434L100.66 130.594L100.627 130.835L100.609 130.94L100.566 131.085L100.54 131.148L100.479 131.216L100.37 131.258L100.317 131.261L100.271 131.283L100.258 131.296L100.286 131.336L100.624 131.484L100.672 131.499L100.71 131.529L100.718 131.544L100.67 131.569L100.637 131.581L100.512 131.606L100.439 131.616L100.236 131.636L100.126 131.647L99.8497 131.664L99.7024 131.672L99.3546 131.684L99.1718 131.692L98.7529 131.699L98.0547 131.709L97.613 131.712L96.7523 131.727L96.3309 131.737L95.5743 131.759L95.2189 131.772L94.6553 131.799L94.5309 131.807L94.3303 131.819L94.1196 131.842L94.018 131.857H93.6753L93.4849 131.852L93.0051 131.817L92.5049 131.774L91.3574 131.604Z" fill="#9E2666"/>
</svg>
