<svg width="32" height="32" viewBox="0 0 32 32" fill="none" xmlns="http://www.w3.org/2000/svg">
<path d="M23.4904 26.4719L23.4394 26.5111L23.3297 26.5895L23.2624 26.6296L23.1189 26.7111L23.262 26.6296L23.3292 26.5895L23.4394 26.5111L23.4904 26.4724L23.5508 26.4122M18.5229 26.7196L18.429 26.729L18.2106 26.7423L18.0968 26.7481L17.8477 26.7544L17.7204 26.7566L17.4527 26.7557L17.3178 26.7544L17.0438 26.7472L16.9075 26.7428L16.8561 26.7406L17.0908 26.7397L17.228 26.7383L17.5092 26.7352L17.6518 26.733L17.9366 26.7276L18.0706 26.7245L18.2024 26.7209L18.2647 26.7192L18.3857 26.7156L18.4412 26.7138L18.5486 26.7098L18.5955 26.708L18.6199 26.7067M21.7703 23.4534L21.8836 23.5331L22.1038 23.6895L22.2049 23.7639L22.4008 23.9095L22.4902 23.9786L22.663 24.114L22.7411 24.1786L22.8919 24.3056L22.9596 24.3666L23.09 24.486L23.1473 24.5435L23.2584 24.6566L23.3067 24.7114L23.3987 24.8192L23.4384 24.8718L23.5134 24.976L23.531 25.0041L23.5247 24.9974L23.5219 24.9956L23.5075 24.997L23.4989 24.9987L23.475 25.0068L23.4484 25.0161L23.3707 25.0513L23.3288 25.0709L23.2281 25.1239L23.062 25.2179L22.8887 25.3199L22.5331 25.5101L22.3539 25.6032L21.9878 25.7743L21.8032 25.8576L21.4286 26.01L21.2404 26.083L20.859 26.2149L20.6672 26.2786L20.2809 26.3895L20.0868 26.4425L19.6968 26.5325L19.5018 26.5744L19.1101 26.6425L18.9517 26.6635L18.9638 26.6595L19.004 26.6359L19.0112 26.6243L19.0166 26.602L19.0049 26.594L18.9706 26.5811L18.9368 26.5806L18.8984 26.5788L18.8849 26.5757L18.884 26.5726L18.8862 26.565L18.8934 26.5592L18.911 26.5463L18.9255 26.537L18.9634 26.504L18.9557 26.4933H18.935L18.9214 26.4742L18.9128 26.4439L18.9092 26.4207L18.902 26.3699L18.8993 26.3378L18.8934 26.2697L18.8912 26.23L18.8831 26.0594L18.8808 25.9605L18.8776 25.756L18.8781 25.65L18.8799 25.438L18.8826 25.3382L18.8894 25.1444L18.8948 25.0633L18.9002 24.9854L18.9034 24.952L18.9101 24.8891L18.9137 24.8646L18.9219 24.8201L18.9264 24.8058L18.9354 24.7831L18.9404 24.7809L18.9322 24.7742L18.8993 24.7729L18.8718 24.7738L18.8086 24.776L18.768 24.7787L18.6818 24.7849L18.6321 24.7894L18.5405 24.796L18.4638 24.8001L18.4191 24.8018L18.3247 24.8054L18.2719 24.8067L18.1659 24.8099L18.2006 24.8085L18.3202 24.8018L18.378 24.7983L18.4841 24.7894L18.5883 24.78L18.7838 24.7515L18.8334 24.743L18.9377 24.7239L18.9909 24.7136L19.106 24.69L19.1448 24.682L19.2319 24.662L19.2766 24.6517L19.3732 24.6281L19.4716 24.6036L19.6833 24.5475L19.7898 24.5185L19.9983 24.4584L20.2795 24.3711L20.3549 24.3461L20.5228 24.2851L20.609 24.253L20.7891 24.1808L20.9705 24.1073L21.3239 23.9496L21.4074 23.9109L21.5591 23.8374L21.6313 23.8017L21.7509 23.738L21.7784 23.7229L21.8254 23.6953L21.8475 23.6819L21.8831 23.6583L21.8989 23.6472L21.9215 23.6285L21.9386 23.6066L21.9395 23.6035L21.9292 23.5884L21.9219 23.5799L21.8962 23.5554L21.8813 23.542L21.8416 23.5091L21.8199 23.4917L21.7689 23.452M14.2757 26.3053L14.4698 26.3601L14.5718 26.3868L14.9929 26.4915L15.2069 26.5379L15.4204 26.5833L15.5246 26.6033L15.7079 26.6381L15.6307 26.6265L15.4808 26.5989L15.1938 26.5396L15.0521 26.5093L14.7794 26.4443L14.6445 26.4105L14.3832 26.3378L14.2536 26.3009L14.0717 26.243M23.5707 26.3926L23.5711 26.3922ZM23.6077 26.3521V26.3525L23.6194 26.3338M13.8289 26.1637L13.7495 26.1374L13.6561 26.1004M23.6722 25.278L23.6894 25.3279L23.7201 25.4273L23.7309 25.4772L23.7612 25.6781L23.7607 25.7828L23.7612 25.7534L23.7548 25.6821L23.7508 25.6456L23.7372 25.5658L23.7223 25.4848L23.6777 25.3199L23.6655 25.2803L23.6397 25.2063L23.6375 25.1996M12.381 25.5311L12.3643 25.5226L12.3476 25.5137M11.8733 25.2464L12.0642 25.3578L11.9179 25.2754L11.7861 25.1947M9.52356 23.3772L9.63505 23.4904L9.86072 23.7135L9.97671 23.8218L10.2114 24.0356L10.3319 24.1385L10.5752 24.3421L10.7002 24.4401L10.9516 24.6334L11.0802 24.7257L11.3393 24.9079L11.4716 24.9947L11.7121 25.1493L11.6282 25.0976L11.4846 25.0072L11.2039 24.817L11.0649 24.7203L10.7936 24.5172L10.6591 24.4143L10.3983 24.1991L10.2687 24.09L10.0182 23.8637L9.89412 23.7487L9.65445 23.5113L9.53575 23.391L9.43916 23.2859M15.7106 24.6816L16.2481 24.7671L16.2192 24.7644L16.1308 24.7528L15.7846 24.7012L15.6108 24.6637L15.4357 24.6245L15.3454 24.6018L15.2651 24.5809M15.1387 24.547L15.0665 24.5265L15.0354 24.5167M14.2365 24.2472L14.2568 24.2552L14.1241 24.2058L13.9422 24.1278L13.8858 24.1029M13.5297 23.9389L13.6538 23.9991L13.5802 23.9666L13.4042 23.8775L13.1709 23.755M12.8513 23.5732L13.0413 23.6859L12.8856 23.5946L12.5503 23.3901L12.4749 23.3393M17.757 20.495L17.8603 20.5952L18.0715 20.7948L18.1835 20.8941L18.6732 21.3111L18.8384 21.4434L18.925 21.5102L19.1015 21.6438L19.1963 21.7133L19.3908 21.8541L19.4969 21.929L19.7167 22.0813L19.8385 22.1642L20.0904 22.3343L20.2312 22.4274L20.3743 22.5219L20.4501 22.5718L20.604 22.6729L20.6857 22.7264L20.9267 22.8849L20.8816 22.8582L20.8486 22.8386L20.7945 22.8106L20.7692 22.7981L20.7286 22.7825L20.7096 22.7763L20.678 22.7709L20.5982 22.7847L20.4334 22.852L20.1328 22.9687L19.987 23.0239L19.7162 23.1179L19.584 23.1625L19.3339 23.236L19.2107 23.2707L18.9715 23.326L18.8528 23.3514L18.615 23.3906L18.4953 23.4079L18.2498 23.4329L18.1248 23.4436L17.8617 23.4556L17.436 23.4627H17.334L17.1436 23.4596L17.0501 23.4578L16.8746 23.4498L16.7022 23.4413L16.6967 23.4405H16.713L16.7311 23.4378L16.7685 23.4338L16.8042 23.4315L16.8263 23.4302L16.9265 23.4253L16.9897 23.4231L17.1242 23.4191L17.1991 23.4173L17.3521 23.4146L17.4306 23.4142L17.5548 23.4124L17.6292 23.4111L17.6617 23.4097L17.7236 23.4075L17.7497 23.4062L17.7989 23.403L17.8183 23.4013L17.8544 23.3977L17.8675 23.3959L17.8896 23.3915L17.8955 23.3892L17.9041 23.3848L17.9027 23.3821L17.896 23.3768L17.8874 23.3741L17.8274 23.3478L17.8224 23.3407L17.8247 23.3384L17.8328 23.3344L17.8423 23.334L17.8617 23.3264L17.8725 23.3144L17.877 23.3033L17.8847 23.2774L17.8878 23.2587L17.8937 23.2159L17.8955 23.1874L17.8987 23.1246L17.8996 23.0841L17.9009 22.9972V22.9433V22.8288L17.9 22.7602L17.8982 22.6141L17.8969 22.5286L17.8946 22.1927L17.8955 22.0938L17.8964 22.0488L17.8982 21.9615L17.8996 21.9227L17.9027 21.8492L17.9045 21.8176L17.9091 21.7583L17.9113 21.7343L17.9167 21.6906L17.9199 21.6755L17.9258 21.6487L17.9294 21.6425L17.9434 21.5948L17.937 21.5842L17.9289 21.5797L17.9095 21.5721L17.8937 21.5695L17.8581 21.5641L17.8328 21.5623L17.7773 21.5592L17.7412 21.5583L17.6626 21.5565H17.6595L17.7285 21.5534L17.9452 21.5311L18.0011 21.5245L18.1194 21.508L18.1799 21.4991L18.3094 21.4786L18.3581 21.4701L18.4493 21.4532L18.4935 21.4447L18.5685 21.4282L18.6032 21.4207L18.6538 21.4069L18.693 21.3908L18.6971 21.3868L18.6813 21.3601L18.6696 21.344L18.6276 21.2977L18.6037 21.2728L18.5405 21.2126L18.429 21.1137L18.2534 20.9649L17.9312 20.6665L17.775 20.5163L17.6586 20.3929M12.2023 23.15L12.0678 23.056L11.9139 22.9366L11.8949 22.9215M11.6029 22.6827L11.6774 22.7464L11.6106 22.6925L11.4657 22.5638L11.3632 22.4698M12.7592 21.8323L12.9231 21.9561L13.2553 22.1967L13.4268 22.3067L13.773 22.5188L13.9517 22.6137L14.2022 22.7411L14.0311 22.6578L13.8817 22.5816L13.5924 22.415L13.4493 22.329L13.1709 22.1419L13.0328 22.0457L12.7642 21.8376L12.6306 21.7307L12.3702 21.5L11.9865 21.1284L12.4428 21.5632M16.5261 21.4821L16.8452 21.5231L16.7965 21.5191L16.7238 21.5111L16.5857 21.4937L16.5329 21.4844L16.4783 21.4728M15.9638 21.353L15.8234 21.3138L15.8108 21.3093M15.4876 21.1948L15.4145 21.1681L15.3991 21.1614M15.0809 21.0202L15.02 20.9926L14.9988 20.9814M14.6978 20.8197L14.6413 20.789L14.6115 20.7703M14.3317 20.5916L14.2803 20.5582L14.2414 20.5302M13.9824 20.3364L13.9377 20.3025L13.8903 20.2624M17.4117 20.1274L17.353 20.0633L17.3196 20.0219M13.652 20.0548L13.6154 20.0228L13.5608 19.9689M6.60564 16.9285L6.64129 17.2978L6.66612 17.4818L6.72118 17.8479L6.75548 18.0301L6.82905 18.3932L6.87283 18.5727L6.96536 18.9313L7.01861 19.1086L7.12964 19.4619L7.19193 19.6361L7.26685 19.837L7.21495 19.7069L7.11791 19.4476L6.95633 18.914L6.88141 18.6449L6.76361 18.0961L6.71035 17.8203L6.63633 17.2608L6.60518 16.9797L6.59661 16.8189M13.3428 19.7483L13.3153 19.7203L13.2548 19.6517M13.0567 19.4191L13.0382 19.3973L12.9736 19.3118M16.7049 19.1839L16.6733 19.1358L16.6453 19.0846M12.7922 19.0623L12.7994 19.0726L12.7863 19.0547L12.7173 18.9474M16.1285 17.9268L16.1673 18.0422L16.249 18.272L16.2955 18.3847L16.3925 18.6088L16.4467 18.7188L16.5031 18.8284L16.4973 18.8177L16.4133 18.6578L16.272 18.3317L16.2052 18.1678L16.0974 17.8332L16.0676 17.7107M12.5512 18.6765L12.571 18.7113L12.5602 18.6943L12.4929 18.5692L12.4902 18.5647M12.3693 18.3308L12.3625 18.317L12.3467 18.2818M12.3241 18.2311L12.3047 18.1874L12.2993 18.1749M12.1973 17.9335L12.1937 17.925L12.1802 17.8863M12.1526 17.8083L12.1459 17.7905L12.1395 17.7713M12.0565 17.5214L12.056 17.5192L12.0493 17.4947M15.9186 16.9574L15.9552 17.2073L15.9791 17.3294L16.008 17.4657L15.9728 17.3192L15.9516 17.2096L15.9191 16.9712L15.9042 16.8492V16.8474M12.0199 17.3838L12.019 17.3806L12.0154 17.3664M6.57765 16.4585L6.57494 16.4135L6.57404 16.3814M6.56772 16.1868L6.57178 16.3079L6.56592 16.1302L6.56908 15.9912M11.9039 15.2651L11.8895 15.4312L11.8827 15.5163L11.8737 15.6972L11.8701 15.7885L11.8678 15.9155L11.8701 15.7889L11.8737 15.6976L11.8827 15.5168L11.8895 15.4317L11.9039 15.2651L11.9134 15.1902L11.9333 15.0472V15.0468L11.9134 15.1902M9.92436 15.4294L9.90721 15.7119L9.90946 15.6504L9.91533 15.5266L9.93338 15.3154M6.59616 15.2562L6.58533 15.4415L6.59255 15.278L6.59977 15.2098M10.9967 12.1623L10.8027 12.4906L10.7151 12.6608L10.5468 13.0038L10.4727 13.1802L10.331 13.5366L10.2705 13.7193L10.1568 14.0872L10.1108 14.2752L10.0264 14.6534L9.99477 14.8459L9.94331 15.2103L9.94828 15.1595L9.98123 14.9171L9.99883 14.7964L10.0435 14.5581L10.0674 14.4392L10.1234 14.2039L10.1532 14.0868L10.2209 13.856L10.2561 13.7406L10.3355 13.5139L10.3766 13.4007L10.4669 13.1785L10.5138 13.0675L10.6154 12.8497L10.6677 12.7414L10.7806 12.5285L10.8383 12.4225L10.9624 12.2144L11.0256 12.1115L11.0586 12.0616M16.0658 14.2418L16.0319 14.391L15.9696 14.6944L15.9462 14.853L15.9204 15.0499L15.9281 14.9804L15.9439 14.8521L15.9832 14.6098L16.0554 14.2748L16.0924 14.1309L16.1452 13.971M12.5205 13.4101L12.4293 13.5789L12.2736 13.9237L12.2005 14.0975L12.0813 14.4503L11.9455 14.9871L12.0362 14.6L12.1093 14.3487L12.1522 14.2267L12.242 13.9843L12.293 13.8667L12.3995 13.6333L12.4586 13.5197L12.5819 13.2952L12.6356 13.2087M6.67875 14.4873L6.68598 14.4302L6.7099 14.3011M16.2269 13.7304L16.2355 13.7059L16.2463 13.6801M16.8768 12.5062L16.8944 12.4795L16.9351 12.4252M13.4001 12.2398L13.3397 12.3009L13.234 12.4127L13.2805 12.3597L13.3735 12.2634L13.4746 12.1668M17.2993 11.9614L17.0177 12.3138L17.0899 12.2171L17.1905 12.0866L17.3616 11.8879M13.7698 11.8879L13.7134 11.9387L13.7477 11.9057L13.7991 11.8621M11.1583 11.9124L11.1606 11.9088L11.2292 11.8082L11.2621 11.7641M17.5886 11.638L17.3981 11.8456L17.4117 11.8296L17.5254 11.7021L17.5954 11.6304M14.8083 11.1796L14.8196 11.1734L14.8291 11.1689M16.3276 10.6406L16.2165 10.6628L15.9922 10.7203L15.8803 10.7506L15.6555 10.8228L15.5436 10.8602L15.322 10.9453L15.2484 10.9751L15.2755 10.9627L15.4727 10.8825L15.5706 10.8473L15.7656 10.78L15.8627 10.7515L16.0576 10.6976L16.156 10.6749L16.3528 10.633L16.453 10.6165L16.4566 10.6161M18.0381 8.64038L18.1605 8.64528L18.3807 8.66087L18.4331 8.66577L18.5297 8.67602L18.661 8.69428L18.7982 8.717L19.0871 8.77803L19.2324 8.81055L19.5231 8.88673L19.6661 8.92638L19.9378 9.01325L20.3021 9.14823L20.6149 9.2783L20.4321 9.39769L20.2244 9.53445L20.1256 9.60083L19.9306 9.73269L19.8376 9.79639L19.6544 9.92291L19.5668 9.98438L19.2279 10.2263L19.0735 10.3417L18.7738 10.5689L18.6371 10.6789L18.4326 10.8464L18.4421 10.8375L18.4746 10.8076L18.5229 10.7609L18.5441 10.7395L18.5716 10.7074L18.5829 10.6927L18.5928 10.6713L18.5955 10.662L18.5901 10.6486L18.5292 10.6205L18.5148 10.6165L18.4746 10.6085L18.4525 10.6049L18.3988 10.5978L18.3423 10.5907L18.1961 10.5791L18.1189 10.5738L17.9425 10.5657L17.8522 10.5622L17.6595 10.5573L17.5624 10.5555L17.3679 10.5546H17.2718L17.0894 10.5582L17.001 10.5604L16.8484 10.568L16.9667 10.5573L17.0745 10.5519L17.2921 10.5439L17.4054 10.5435L17.5891 10.5399L17.7019 10.5345L17.7497 10.5305L17.8386 10.5216L17.8698 10.5167L17.923 10.5056L17.9325 10.4998L17.9659 10.4686L17.9628 10.4561H17.9474L17.9339 10.4446L17.9262 10.4254L17.9226 10.4098L17.9158 10.3737L17.9131 10.3497L17.9077 10.2962L17.9054 10.2624L17.9009 10.1902L17.8991 10.1465L17.896 10.0539L17.8946 9.99998L17.8924 9.88638L17.8915 9.82134L17.8896 9.68547L17.8892 9.60885L17.8905 9.26806L17.8919 9.16827L17.8933 9.12372L17.896 9.03775L17.8973 9.00033L17.9009 8.92905L17.9027 8.89965L17.9072 8.8453L17.9095 8.82525L17.9145 8.78917L17.9172 8.77848L17.923 8.76244H17.9262L17.9641 8.74106L17.9885 8.70988L17.9962 8.68983L17.9998 8.668L17.9948 8.65597L17.9867 8.65152L17.9668 8.64261L17.9501 8.63949L17.9312 8.63726M13.9305 9.44892L13.8086 9.51485L13.8325 9.50104L13.9887 9.41729L14.018 9.40348M15.0317 8.98652L14.4685 9.19767L14.2613 9.28944L14.311 9.26583L14.4739 9.19322L14.8097 9.06358L14.9789 9.00166L15.0877 8.96825M16.2671 8.69651L16.1019 8.71745L16.0224 8.73037L15.8297 8.76645L15.8667 8.7571L15.9051 8.74863L15.9922 8.73304L16.0373 8.72547L16.1362 8.71121L16.2382 8.69785L16.3456 8.6876M17.497 8.63281L17.4193 8.63459L17.2537 8.63904L17.1549 8.64172L16.8227 8.65375L16.6223 8.66444L16.5302 8.67157L16.3609 8.68582L16.4711 8.67557L16.5911 8.66533L16.8502 8.65018L16.9811 8.64305L17.2514 8.63548L17.3869 8.63236L17.5367 8.63192M19.0194 5.43117L19.4378 5.49131L19.5858 5.5167L19.8923 5.58307L20.0466 5.61871L20.3621 5.7038L20.5205 5.74835L20.8401 5.85036L21.0003 5.90337L21.3203 6.02053L21.4796 6.08067L21.7951 6.21164L21.9517 6.27846L22.2582 6.42102L22.4098 6.49363L22.7032 6.64643L23.123 6.8852L23.1564 6.9057L23.2132 6.93911L23.2399 6.9547L23.2841 6.97964L23.3053 6.99123L23.3396 7.00771L23.3559 7.01484L23.3825 7.02419L23.4078 7.03132L23.4439 7.02597L23.4944 6.99345L23.5075 6.98143L23.4728 7.03533L23.433 7.08834L23.3495 7.19526L23.3012 7.25049L23.2006 7.36142L23.1433 7.41888L23.0246 7.53471L22.9578 7.59529L22.8197 7.71735L22.7434 7.78106L22.585 7.91069L22.4979 7.9784L22.3182 8.11606L22.2203 8.18822L22.0185 8.33523L21.9088 8.4123L21.7721 8.50807L21.7897 8.49115L21.8136 8.46531L21.829 8.42165L21.8312 8.40072L21.8028 8.36062L21.7834 8.34013L21.7116 8.29647L21.671 8.27375L21.5573 8.21896L21.3402 8.11695L21.2111 8.05502L20.9479 7.94187L20.8157 7.88663L20.5476 7.7864L20.4127 7.73785L20.14 7.65098L20.0028 7.6091L19.7257 7.53471L19.5867 7.49952L19.3064 7.43849L19.1656 7.40953L18.8821 7.36186L18.7404 7.33959L18.4552 7.30529L18.3193 7.29059L18.3455 7.29192L18.4972 7.29994L18.5608 7.30217L18.6217 7.3044L18.6484 7.30529L18.6989 7.30618H18.7192L18.7567 7.30573L18.7698 7.30529L18.7928 7.30351L18.7977 7.30261L18.8379 7.26609L18.8478 7.23936L18.8515 7.21931L18.8587 7.17521L18.8614 7.14536L18.8668 7.07899L18.8686 7.03622L18.8722 6.94401L18.8731 6.88654L18.8754 6.76314L18.8763 6.6883L18.8781 6.52971L18.8785 6.43572L18.884 6.10027L18.8903 5.89758L18.8948 5.81339L18.8993 5.73231L18.902 5.69756L18.907 5.63208L18.9097 5.60579L18.9151 5.55768L18.9183 5.5412L18.9241 5.51313L18.9268 5.50779L18.9417 5.46413L18.935 5.44319L18.9201 5.43518L18.8812 5.42003L18.8474 5.4129L18.8451 5.41246M23.7296 6.47536L23.7043 6.57604L23.6867 6.62638L23.6488 6.7275L23.6375 6.75067L23.6763 6.64286L23.7016 6.56401L23.7368 6.40364M13.2214 6.14883L13.2503 6.13636L13.2521 6.13547M13.327 6.10517L13.5112 6.03033L13.5157 6.029M14.3353 5.75815L14.0609 5.84501L13.6601 5.97999L14.051 5.84769L14.324 5.76082L14.8891 5.61604L14.9031 5.61337M14.9943 5.5951L15.7661 5.44097L15.7796 5.43874M17.5597 5.34163L17.7281 5.34385L18.0639 5.35633L18.2309 5.3639L18.2846 5.36746L18.2706 5.36702L18.2096 5.36524L17.9519 5.35944L17.8093 5.35766L17.5173 5.35499H17.3683L17.0759 5.35588L16.9008 5.35766L16.8222 5.359L16.6706 5.36212L16.602 5.36435L16.4688 5.36925L16.4083 5.37236L16.2314 5.3835L16.2847 5.3786L16.5848 5.35944L16.7378 5.35098L17.0614 5.34252L17.2248 5.33984L17.5597 5.34163Z" fill="#842457"/>
<path d="M16.6024 29.9875L16.5929 29.9862L16.5645 29.9831L16.5487 29.9813L16.5089 29.9768L16.4665 29.9719L16.3541 29.9604L16.295 29.9541L16.16 29.9403L15.9479 29.9194L15.655 29.8909L15.0741 29.8058L14.7848 29.7586L14.2125 29.6369L13.9277 29.5719L13.3658 29.4146L13.086 29.3318L12.5358 29.1402L12.2623 29.04L11.7252 28.8155L11.4589 28.6988L10.9367 28.4417L10.6776 28.309L10.1721 28.0207L9.92159 27.8728L9.4346 27.5543L9.19313 27.3913L8.72554 27.0438L8.494 26.8665L8.04762 26.4905L7.82737 26.2994L7.40401 25.8972L7.19503 25.6922L6.79605 25.2641L6.59926 25.0467L6.22645 24.5937L6.04321 24.3638L5.69748 23.8872L5.52868 23.6457L5.21229 23.1463L4.77223 22.3725L4.62915 22.1013L4.37234 21.5489L4.24912 21.2709L4.03112 20.7065L3.92732 20.4231L3.74858 19.8489L3.66418 19.5607L3.52472 18.978L3.45973 18.6862L3.35862 18.0978L3.31304 17.8028L3.25075 17.2104L3.22458 16.9137L3.20111 16.319L3.19434 16.0214L3.20923 15.4267L3.22142 15.1291L3.27513 14.5357L3.30672 14.2395L3.39879 13.6497L3.44934 13.3552L3.57978 12.7712L3.64974 12.4798L3.81854 11.903L3.90746 11.6156L4.11417 11.0481L4.22249 10.7656L4.46712 10.2092L4.5944 9.93305L4.87739 9.39002L5.34453 8.59261L5.51333 8.32443L5.88253 7.80412L6.07209 7.54663L6.47966 7.04993L6.68773 6.80447L7.13049 6.33404L7.35571 6.1024L7.83052 5.66137L8.07109 5.44487L8.57479 5.03592L8.8298 4.83591L9.35832 4.46215L9.62596 4.2795L10.1775 3.94362L11.026 3.48522L11.1948 3.40192L11.5351 3.24555L11.7062 3.16893L12.0515 3.02638L12.2243 2.95688L12.5737 2.82859L12.7488 2.76577L13.1018 2.65129L13.2782 2.5956L13.6348 2.49537L13.8131 2.44681L14.1728 2.36039L14.3524 2.31896L14.7144 2.24679L14.8958 2.21249L15.2601 2.15458L15.4424 2.12741L15.8085 2.0833L15.9917 2.06326L16.3591 2.0343L16.5432 2.02138L16.9115 2.00624L17.0961 2.00045L17.4658 2L17.6504 2.00178L18.0205 2.01559L18.2055 2.0245L18.5752 2.05301L18.7602 2.06905L19.1299 2.11226L19.6837 2.19334L19.9901 2.24457L20.5855 2.36752L20.8797 2.43256L21.4448 2.58046L21.7233 2.65752L22.2509 2.82725L22.3804 2.87135L22.6305 2.96223L22.7542 3.00811L22.9925 3.10389L23.1098 3.152L23.3355 3.25134L23.4465 3.30168L23.6577 3.40459L23.762 3.45671L23.9588 3.56318L24.0554 3.61664L24.2364 3.72622L24.3248 3.78102L24.4891 3.89283L24.5695 3.94896L24.7161 4.063L24.7875 4.12002L24.9156 4.23585L25.0867 4.41048L25.1558 4.48888L25.2749 4.65148L25.3318 4.73434L25.4288 4.91208L25.4753 5.0034L25.5534 5.20298L25.6536 5.53352L25.6793 5.63465L25.7159 5.83689L25.7317 5.93802L25.7488 6.13893L25.7551 6.23916L25.7538 6.43739L25.7506 6.53585L25.7299 6.73007L25.7172 6.8263L25.6784 7.01518L25.6563 7.10873L25.5985 7.29093L25.5674 7.38091L25.4911 7.5551L25.3566 7.80545L25.2884 7.91771L25.1445 8.12798L25.07 8.23133L24.9062 8.43224L24.8204 8.53203L24.6254 8.73249L24.574 8.78328L24.4638 8.88574L24.4074 8.93741L24.2851 9.04343L24.2228 9.09689L24.0879 9.20737L24.0184 9.26305L23.869 9.37932L23.7922 9.43813L23.6271 9.56108L23.5422 9.62345L23.3599 9.75442L23.2664 9.82079L23.0651 9.96112L22.9622 10.0324L22.7411 10.183L22.6278 10.2596L22.3854 10.4217L21.9959 10.6792L21.9092 10.7362L21.7445 10.8449L21.6637 10.8988L21.5103 11.0009L21.3595 11.1015L21.0887 11.286L20.9578 11.376L20.7222 11.5412L20.608 11.6219L20.4022 11.772L20.3029 11.8459L20.121 11.9854L20.033 12.054L19.8696 12.1872L19.4224 12.5814L19.3285 12.6696L19.1552 12.842L19.0712 12.9275L18.9168 13.0959L18.8419 13.1797L18.7052 13.3458L18.6393 13.4287L18.5188 13.594L18.461 13.6764L18.3563 13.8426L18.3057 13.9263L18.215 14.0947L18.1712 14.1798L18.094 14.3526L17.9911 14.619L17.9758 14.6627L17.9505 14.738L17.9388 14.774L17.9198 14.8418L17.9113 14.8756L17.8977 14.9456L17.8918 14.9816L17.8828 15.0636L17.8788 15.1073L17.8733 15.2115L17.8711 15.2672L17.8684 15.4035L17.8675 15.4766L17.8666 15.6548L17.8661 15.7024V15.8071V15.98V16.041V16.1528V16.2067L17.8666 16.3052L17.867 16.4005L17.8684 16.5564L17.8697 16.6295L17.8733 16.7484L17.8756 16.8041L17.8828 16.8963L17.8869 16.9395L17.8977 17.0144L17.904 17.0509L17.9198 17.1181L17.9289 17.152L17.9505 17.2219L17.9911 17.3409L18.0223 17.4313L18.094 17.6073L18.1311 17.6942L18.215 17.8652L18.2588 17.9499L18.3563 18.1174L18.4068 18.2007L18.5188 18.3659L18.577 18.4488L18.7052 18.6141L18.7715 18.6969L18.9168 18.864L18.9918 18.9477L19.1552 19.1179L19.4224 19.3785L19.565 19.5121L19.8701 19.7732L19.95 19.8396L20.1219 19.9754L20.2104 20.044L20.4031 20.1884L20.5029 20.2623L20.7231 20.4196L20.8369 20.5002L21.0892 20.6739L21.22 20.7639L21.5107 20.959L21.5861 21.0094L21.745 21.1145L21.9959 21.2802L22.0866 21.3395L22.2595 21.454L22.3448 21.5105L22.5073 21.6192L22.6675 21.7266L22.9577 21.9248L23.0981 22.0215L23.3517 22.2001L23.4741 22.2875L23.6939 22.4492L23.7999 22.528L23.989 22.675L24.0802 22.7467L24.2418 22.8808L24.3199 22.9468L24.4571 23.0711L24.6394 23.2484L24.7383 23.3504L24.9143 23.5477L24.9987 23.6453L25.1467 23.8359L25.2171 23.9308L25.3381 24.1184L25.395 24.2119L25.4902 24.3981L25.5349 24.4917L25.6057 24.6801L25.6387 24.775L25.6865 24.9683L25.7082 25.0659L25.7344 25.2668L25.7515 25.58L25.7524 25.7132L25.7303 25.9845L25.715 26.1199L25.6631 26.385L25.6337 26.5159L25.5547 26.7618L25.4103 27.0942L25.3683 27.173L25.2623 27.3285L25.2054 27.406L25.0704 27.5588L24.9991 27.635L24.8367 27.7851L24.7518 27.8595L24.5631 28.006L24.4652 28.0787L24.2517 28.2203L24.142 28.2907L23.9051 28.4275L23.7837 28.4956L23.5246 28.627L23.3928 28.6916L23.113 28.8173L22.9708 28.8787L22.6725 28.9972L22.5208 29.0556L22.2044 29.167L22.0442 29.2213L21.7116 29.3247L21.5432 29.375L21.1957 29.4694L21.0201 29.5158L20.6586 29.6009L20.4767 29.6423L20.1034 29.7176L19.9152 29.7541L19.5311 29.8191L18.9444 29.9047L18.9128 29.9087L18.8374 29.9167L18.7981 29.9207L18.7092 29.9287L18.6176 29.9363L18.4041 29.9506L18.2935 29.9572L18.0557 29.9697L17.9352 29.9755L17.6905 29.9849L17.5691 29.9893L17.3362 29.9951L17.2225 29.9978L17.0185 29.9996L16.9702 30L16.8822 29.9996L16.8398 29.9991L16.7653 29.9973L16.7296 29.9964L16.6705 29.9933L16.6434 29.992M18.7792 27.9833L18.9561 27.9606L19.3113 27.9045L19.4891 27.8751L19.843 27.8069L20.0199 27.7713L20.3693 27.6911L20.543 27.6501L20.8852 27.5592L21.0544 27.5129L21.3852 27.4122L21.5491 27.361L21.8659 27.2514L22.0221 27.1957L22.3213 27.0781L22.7474 26.8937L22.8535 26.8447L23.0344 26.7556L23.1202 26.7119L23.2637 26.6304L23.331 26.5903L23.4407 26.5119L23.4917 26.4727L23.572 26.3934L23.609 26.3529L23.6636 26.2678L23.6884 26.2241L23.7218 26.1288L23.7363 26.0798L23.7525 25.9698L23.762 25.7836L23.7625 25.6789L23.7322 25.478L23.7214 25.4281L23.6907 25.3287L23.6735 25.2788L23.6293 25.1791L23.6054 25.1292L23.5463 25.0276L23.5147 24.9768L23.4397 24.8726L23.4 24.82L23.308 24.7122L23.2597 24.6574L23.1486 24.5442L23.0913 24.4868L22.9609 24.3674L22.8932 24.3064L22.7424 24.1794L22.6643 24.1148L22.4915 23.9794L22.4021 23.9103L22.2062 23.7647L22.1051 23.6903L21.8849 23.5339L21.7716 23.4542L21.5256 23.2853L21.3997 23.1989L21.1271 23.0167L20.687 22.7271L20.6053 22.6737L20.4514 22.5726L20.3756 22.5227L20.2325 22.4282L20.0917 22.3351L19.8398 22.165L19.718 22.0821L19.4982 21.9297L19.3921 21.8549L19.1976 21.7141L19.1028 21.6446L18.9263 21.511L18.8397 21.4442L18.6745 21.3119L18.1848 20.8949L18.0728 20.7956L17.8616 20.596L17.7582 20.4958L17.5642 20.2944L17.4694 20.1933L17.292 19.9897L17.2054 19.8872L17.0447 19.6805L16.9661 19.5767L16.8217 19.3665L16.7513 19.2604L16.6231 19.0462L16.5608 18.9384L16.448 18.7196L16.3938 18.6096L16.2968 18.3855L16.2503 18.2728L16.1686 18.043L16.1298 17.9276L16.0635 17.6915L16.0319 17.573L15.9804 17.3302L15.9565 17.2081L15.9199 16.9582L15.9032 16.8322L15.8811 16.5742L15.8716 16.4441L15.8635 16.1782L15.8613 16.0437L15.8676 15.7688L15.892 15.3451L15.9059 15.1759L15.9475 14.8538L15.9709 14.6952L16.0332 14.3918L16.0671 14.2426L16.151 13.9553L16.1962 13.8132L16.3036 13.5378L16.3604 13.4015L16.4927 13.1351L16.5617 13.0024L16.7202 12.7413L16.8028 12.6113L16.9887 12.3524L17.3006 11.9622L17.3936 11.8526L17.5899 11.6388L17.6901 11.5323L17.904 11.3212L18.0137 11.216L18.2507 11.004L18.3725 10.8971L18.6384 10.6797L18.7751 10.5696L19.0748 10.3424L19.2292 10.2271L19.5681 9.98517L19.6557 9.9237L19.8389 9.79718L19.9319 9.73348L20.1269 9.60162L20.2257 9.53524L20.4334 9.39848L20.7588 9.18554L20.9059 9.09066L21.1803 8.90979L21.3144 8.82114L21.564 8.65275L21.6854 8.57034L21.9101 8.41308L22.0198 8.33602L22.2216 8.18901L22.3195 8.11684L22.4992 7.97919L22.5863 7.91148L22.7447 7.78184L22.821 7.71814L22.9591 7.59608L23.0259 7.5355L23.1446 7.41967L23.2019 7.3622L23.3025 7.25128L23.3508 7.19604L23.4343 7.08913L23.4741 7.03612L23.5413 6.93232L23.5733 6.88064L23.6257 6.77863L23.6501 6.72829L23.688 6.62717L23.7056 6.57683L23.7309 6.47615L23.762 6.16877V6.1171L23.7557 6.02266L23.7516 5.97722L23.7367 5.89391L23.7282 5.85382L23.7038 5.78032L23.6907 5.74468L23.6555 5.67875L23.6365 5.64667L23.5896 5.58609L23.5643 5.55669L23.5047 5.50056L23.4731 5.47249L23.3991 5.41814L23.2714 5.33662L23.1563 5.26935L22.8927 5.13616L22.756 5.06978L22.454 4.94104L22.2988 4.87733L21.9634 4.75438L21.7923 4.6938L21.4295 4.57842L21.2453 4.52184L20.8608 4.41582L20.6662 4.36415L20.265 4.26926L20.0628 4.22337L19.6507 4.14096L19.0265 4.03405L18.9155 4.01712L18.6659 3.9895L18.5368 3.97703L18.2588 3.95832L18.1171 3.94985L17.821 3.93961L17.6711 3.9356L17.3665 3.93381L17.2135 3.93426L16.9097 3.94094L16.759 3.94584L16.4665 3.96099L16.3225 3.9699L16.0508 3.99395L15.6771 4.03984L15.4108 4.07949L14.894 4.17883L14.6381 4.23228L14.1394 4.35835L13.8921 4.42518L13.41 4.57976L13.1704 4.66039L12.7028 4.84348L12.4703 4.93881L12.0145 5.1513L11.7879 5.26134L11.3429 5.50412L11.1213 5.62975L10.6839 5.90371L10.0353 6.35097L9.99561 6.38037L9.90896 6.4472L9.86427 6.48239L9.76904 6.5599L9.67245 6.64009L9.45942 6.8263L9.35065 6.92252L9.12317 7.13278L9.00898 7.2397L8.77834 7.46244L8.66415 7.5747L8.44209 7.79877L8.33332 7.9097L8.13202 8.12397L8.03453 8.22866L7.86528 8.42155L7.82511 8.46788L7.75335 8.5543L7.65901 8.67413L7.49969 8.88484L7.20632 9.30716L7.06369 9.51876L6.80237 9.94508L6.67554 10.1589L6.44536 10.5919L6.33342 10.8097L6.13257 11.253L6.03554 11.4762L5.86267 11.9324L5.77963 12.1627L5.63339 12.6358L5.56343 12.8745L5.44292 13.3668L5.28856 14.1312L5.27728 14.1949L5.25878 14.3108L5.24975 14.3678L5.23531 14.4778L5.22854 14.533L5.21725 14.6458L5.21229 14.7037L5.20461 14.8284L5.201 14.8934L5.19604 15.0396L5.19333 15.1162L5.19062 15.2926L5.18927 15.3857L5.18792 15.6017L5.18746 15.6583V15.7813L5.18701 15.98V16.0494L5.18746 16.1786V16.2414L5.18792 16.3582L5.18837 16.4722L5.19062 16.6673L5.19198 16.76L5.19604 16.9204L5.1983 16.997L5.20461 17.1315L5.20823 17.1961L5.21725 17.3142L5.22267 17.3716L5.23531 17.4821L5.24208 17.5373L5.25878 17.6492L5.28856 17.8287L5.33415 18.0893L5.44292 18.5931L5.50024 18.8421L5.63339 19.3241L5.70335 19.5629L5.86267 20.0276L5.94572 20.2574L6.13257 20.7069L6.22961 20.9301L6.44536 21.368L6.55684 21.5858L6.80237 22.0148L6.92919 22.2287L7.20632 22.6528L7.65901 23.2858L7.68745 23.3228L7.75289 23.4047L7.7872 23.4466L7.86392 23.537L7.94336 23.6292L8.13022 23.8337L8.22725 23.9384L8.44029 24.1589L8.54906 24.2703L8.77699 24.4957L8.89163 24.6079L9.12272 24.8267L9.23736 24.934L9.45987 25.1345L9.56864 25.2316L9.77084 25.4027L9.81959 25.4428L9.91121 25.5163L10.0385 25.6138L10.2339 25.7577L10.6307 26.0259L10.8297 26.1569L11.2345 26.3997L11.4386 26.5177L11.8529 26.7355L12.061 26.8411L12.4861 27.034L12.6996 27.1271L13.1361 27.2955L13.3559 27.377L13.8045 27.5214L14.0306 27.5909L14.4932 27.712L15.2032 27.8679L15.3016 27.8871L15.53 27.9236L15.6491 27.9419L15.9159 27.9762L16.054 27.9931L16.3573 28.0256L16.8506 28.0706L16.8939 28.0742L17.0117 28.0782L17.0745 28.0795L17.2239 28.0791L17.3019 28.0782L17.4735 28.0738L17.5615 28.0711L17.7461 28.0635L17.932 28.055L18.3021 28.0301L18.3915 28.0234L18.5576 28.0078L18.6379 28.0003M25.0876 22.7632L25.0515 22.7062L24.9536 22.5757L24.9007 22.508L24.7748 22.3596L24.7085 22.2839L24.56 22.1244L24.4833 22.0438L24.3176 21.8785L24.1497 21.7132L23.7886 21.3903L23.6988 21.3123L23.5196 21.1658L23.2597 20.9657L23.224 20.9394L23.1401 20.8789L23.0958 20.8472L22.9979 20.7768L22.8972 20.7047L22.6693 20.5425L22.5533 20.4606L22.3155 20.2935L21.9788 20.0583L21.8691 19.9821L21.6709 19.8431L21.5748 19.7754L21.4006 19.6511L21.3166 19.5905L21.1632 19.4778L21.0887 19.4226L20.9519 19.3184L20.8852 19.2671L20.7615 19.1691L20.701 19.1206L20.5864 19.0252L20.2578 18.7357L20.144 18.631L19.9373 18.4167L19.8376 18.3089L19.6589 18.088L19.5731 17.977L19.4224 17.7498L19.351 17.6358L19.2287 17.4033L19.171 17.2865L19.0771 17.0482L19.0337 16.9288L18.9688 16.686L18.9399 16.564L18.9033 16.3163L18.8816 15.9403V15.8142L18.901 15.5697L18.9137 15.4489L18.9597 15.2137L18.9859 15.097L19.0595 14.8694L19.0996 14.7558L19.2012 14.533L19.2558 14.4221L19.3871 14.2025L19.4562 14.0929L19.6182 13.8746L19.7026 13.7655L19.8958 13.5468L20.2217 13.2153L20.353 13.0901L20.6044 12.8665L20.6685 12.8108L20.8044 12.699L20.8739 12.6424L21.0255 12.5239L21.1041 12.4634L21.2796 12.3324L21.3712 12.2651L21.5789 12.1154L21.633 12.0767L21.7486 11.9947L21.8077 11.9533L21.9341 11.8646L21.9986 11.8192L22.1363 11.723L22.357 11.5697L22.4522 11.5038L22.6327 11.3773L22.7212 11.3149L22.8891 11.1951L22.9713 11.1358L23.1274 11.0218L23.2037 10.9652L23.3486 10.8565L23.4903 10.7492L23.744 10.5474L23.8658 10.448L24.0829 10.2596L24.1881 10.1665L24.3749 9.98606L24.4652 9.89652L24.6277 9.71922L24.7067 9.63057L24.8502 9.45149L25.0501 9.1753L25.084 9.12496L25.1494 9.03274L25.181 8.98864L25.2356 8.91558L25.2614 8.88262L25.3002 8.83673L25.3331 8.80778H25.3381L25.3539 8.83941L25.3625 8.8599L25.3837 8.92627L25.3945 8.96236L25.4193 9.05413L25.4324 9.10224L25.4586 9.21093L25.4848 9.32186L25.5331 9.55707L25.5439 9.61409L25.5624 9.72056L25.5818 9.85955L25.5895 9.92592L25.5927 10.0676L25.5922 10.1398L25.5796 10.2912L25.5719 10.3674L25.5448 10.5242L25.5299 10.603L25.4893 10.7621L25.4676 10.8414L25.4153 10.9991L25.3873 11.0775L25.3232 11.2298L25.2898 11.3051L25.2149 11.4495L25.0921 11.6521L25.0176 11.7626L24.8565 11.9577L24.8127 12.0063L24.7152 12.103L24.6642 12.1515L24.5473 12.2526L24.4855 12.3043L24.3424 12.4152L24.2671 12.4723L24.0919 12.5979L23.9999 12.6629L23.7868 12.8077L23.7309 12.8456L23.6108 12.9258L23.4176 13.0532L23.2872 13.1391L23.0173 13.3191L22.8837 13.4091L22.6287 13.582L22.5673 13.6238L22.4522 13.7027L22.3967 13.741L22.2956 13.8114L22.2473 13.8452L22.1638 13.904L22.0627 13.9771L21.9201 14.0827L21.6506 14.3108L21.5202 14.4261L21.2873 14.6605L21.2322 14.7188L21.1316 14.8337L21.0833 14.8903L20.9975 15.0008L20.9569 15.0551L20.8883 15.1589L20.8071 15.3046L20.7908 15.3385L20.7633 15.3977L20.7506 15.4262L20.7299 15.4779L20.71 15.5282L20.687 15.6245L20.6771 15.6748L20.6685 15.7969L20.6667 15.8307L20.6653 15.9091L20.6644 16.0468V16.098L20.6653 16.1853L20.6658 16.2263L20.6681 16.2962L20.6708 16.3626L20.6852 16.4611L20.6942 16.5074L20.7258 16.5907L20.7998 16.735L20.8391 16.805L20.9303 16.9417L20.979 17.0099L21.0937 17.1462L21.1546 17.2153L21.299 17.3565L21.3753 17.4282L21.5545 17.5792L21.6493 17.6563L21.87 17.822L21.9277 17.8643L22.0523 17.953L22.1164 17.998L22.2536 18.0915L22.3236 18.1392L22.4739 18.239L22.5506 18.2898L22.7144 18.3958L22.7984 18.4501L22.9771 18.5633L23.2619 18.7419L23.3648 18.8061L23.5436 18.9183L23.6284 18.9722L23.776 19.0676L23.8464 19.1134L23.9692 19.1963L24.0278 19.2364L24.1317 19.3112L24.2323 19.3847L24.402 19.5264L24.6593 19.7665L24.7428 19.8489L24.8904 20.0084L24.9612 20.0877L25.0835 20.2441L25.1418 20.322L25.2411 20.4784L25.2875 20.5568L25.3647 20.7167L25.4004 20.7978L25.4568 20.9644L25.483 21.0495L25.5204 21.2268L25.5371 21.3172L25.5574 21.5088L25.5701 21.8157V21.8709L25.5647 21.9926L25.5611 22.0545L25.5489 22.1846L25.5353 22.3155L25.4938 22.5726L25.4825 22.6345L25.4582 22.7481L25.4455 22.8024L25.4193 22.8969L25.4062 22.941L25.3796 23.0096L25.3408 23.0751L25.3363 23.0795L25.3106 23.0608L25.2952 23.0474L25.2528 22.9976L25.2298 22.969L25.1756 22.8946L25.1476 22.855M25.228 19.6649L25.2013 19.5901L25.1296 19.4377L25.0903 19.3616L24.9928 19.2057L24.9405 19.1268L24.815 18.9651L24.7486 18.8836L24.5938 18.7143L24.5121 18.6283L24.3257 18.4492L24.2282 18.3579L24.0084 18.1672L23.8942 18.0701L23.6388 17.8657L23.2145 17.5409L23.1166 17.4683L22.9329 17.3284L22.8435 17.2594L22.6765 17.1275L22.5957 17.0629L22.4477 16.9408L22.3759 16.8812L22.2482 16.7698L22.1868 16.7154L22.0803 16.6165L22.0298 16.5684L21.9463 16.4829L21.9074 16.4419L21.8483 16.3711L21.7883 16.2829L21.7657 16.2401L21.7395 16.1336L21.7296 16.0784L21.7278 15.9595L21.7301 15.9002L21.7522 15.7862L21.8113 15.6401L21.8294 15.6111L21.8736 15.551L21.8966 15.5207L21.953 15.457L21.9833 15.4244L22.0541 15.355L22.0916 15.3193L22.1796 15.2422L22.2256 15.2026L22.3326 15.1162L22.3886 15.0716L22.5163 14.9736L22.5831 14.9233L22.7338 14.8124L22.9889 14.6297L23.1256 14.5326L23.3761 14.3459L23.498 14.2537L23.7191 14.0755L23.8265 13.9873L24.0206 13.8149L24.115 13.729L24.2847 13.5606L24.3664 13.4764L24.5135 13.3089L24.5844 13.2251L24.7112 13.0572L24.7721 12.9725L24.8804 12.8015L25.0249 12.5386L25.0456 12.4972L25.0858 12.4219L25.1052 12.3858L25.14 12.3262L25.1567 12.299L25.1824 12.2616L25.2068 12.2379H25.2113L25.2293 12.2642L25.2392 12.2812L25.2663 12.3355L25.2808 12.3658L25.3142 12.4415L25.3313 12.4812L25.3674 12.5707L25.4044 12.6625L25.4753 12.8567L25.492 12.9035L25.5209 12.9917L25.5552 13.1066L25.5809 13.2029L25.6148 13.3949L25.6288 13.4906L25.6391 13.6804L25.6414 13.7748L25.6292 13.9611L25.6202 14.0537L25.5854 14.235L25.5651 14.325L25.5083 14.4996L25.4767 14.5861L25.3981 14.7531L25.3557 14.8351L25.2555 14.9923L25.0813 15.2155L25.0528 15.2471L24.9698 15.326L24.9247 15.367L24.8172 15.4561L24.7622 15.5011L24.6444 15.5897L24.4706 15.7104L24.0649 15.9742L24.3591 16.1577L24.4286 16.2009L24.56 16.2962L24.6245 16.3457L24.7468 16.4531L24.8064 16.5078L24.9179 16.6254L24.9721 16.6856L25.0723 16.8126L25.121 16.8771L25.2086 17.0126L25.251 17.0812L25.3264 17.2237L25.362 17.2954L25.4234 17.4442L25.4988 17.6728L25.5132 17.7253L25.5362 17.8452L25.5471 17.9075L25.562 18.0438L25.5687 18.1138L25.5764 18.2617L25.5791 18.337V18.4924L25.5769 18.6493L25.5498 18.966L25.5412 19.0435L25.5182 19.195L25.4753 19.4101L25.4618 19.4685L25.4342 19.5772L25.4207 19.6293L25.3959 19.7184L25.3837 19.7598L25.3638 19.8195L25.3435 19.8654L25.339 19.8699L25.3246 19.8596L25.3164 19.8516L25.2961 19.82L25.2857 19.8017L25.2627 19.7531L25.2514 19.7269M16.3541 26.7315L16.2797 26.7249L16.1095 26.703L16.0215 26.6906L15.8301 26.6594L15.7322 26.6429L15.5259 26.6041L15.4217 26.5841L15.2082 26.5386L14.9942 26.4923L14.5731 26.3876L14.4711 26.3609L14.277 26.3061L14.0094 26.2241L13.8614 26.1756L13.5684 26.0682L13.4222 26.013L13.1333 25.8923L12.9894 25.8303L12.7055 25.6962L12.5642 25.6276L12.2857 25.4811L12.1472 25.4062L11.8746 25.2472L11.7387 25.1661L11.4729 24.9955L11.3406 24.9086L11.0815 24.7264L10.9529 24.6342L10.7015 24.4409L10.5765 24.3429L10.3332 24.1393L10.2127 24.0364L9.97801 23.8226L9.86202 23.7143L9.63635 23.4911L9.52486 23.378L9.30957 23.1454L9.20306 23.0278L8.9977 22.7864L8.8966 22.6648L8.70252 22.4149L8.60683 22.2888L8.42404 22.0309L8.16316 21.6357L8.06432 21.478L7.87972 21.1551L7.7899 20.9925L7.62336 20.661L7.54257 20.494L7.39453 20.1545L7.32276 19.9835L7.19323 19.6369L7.13094 19.4627L7.01991 19.1094L6.96665 18.9321L6.87413 18.5735L6.83035 18.394L6.75678 18.0309L6.72248 17.8487L6.66742 17.4825L6.64259 17.2986L6.60694 16.9293L6.59159 16.7444L6.57489 16.3733L6.56902 16.1875L6.57173 15.8156L6.57579 15.6294L6.59746 15.2569L6.611 15.0712L6.65252 14.6997L6.67599 14.5143L6.73737 14.1446L6.77032 13.9597L6.85111 13.5926L6.99509 13.0456L7.05828 12.8291L7.20451 12.4041L7.28079 12.193L7.45365 11.78L7.54302 11.5751L7.74116 11.175L7.84361 10.9768L8.06703 10.5901L8.18212 10.3986L8.43036 10.0262L8.55764 9.84173L8.8307 9.48446L8.96971 9.3076L9.2667 8.96592L9.7388 8.47189L9.94958 8.2643L10.3838 7.88074L10.6031 7.69453L11.0563 7.35285L11.2851 7.18758L11.7577 6.88688L11.9964 6.74121L12.4911 6.48105L12.7407 6.35543L13.2584 6.13447L13.5201 6.02845L14.0622 5.8458L14.3366 5.75893L14.9053 5.61371L15.7899 5.43774L15.8861 5.42215L16.0811 5.39854L16.1817 5.38785L16.4096 5.37315L16.4701 5.37003L16.6033 5.36513L16.6719 5.3629L16.8235 5.35979L16.9021 5.35845L17.0772 5.35667L17.3696 5.35578H17.5186L17.8106 5.35845L17.9532 5.36023L18.2109 5.36602L18.2719 5.3678L18.382 5.37137L18.4348 5.3736L18.526 5.37761L18.5689 5.37983L18.6379 5.38473L18.7124 5.39186L18.7413 5.39587L18.7891 5.40344L18.8121 5.40701L18.8487 5.41369L18.8825 5.42082L18.9214 5.43596L18.9363 5.44398L18.943 5.46492L18.9281 5.50858L18.9254 5.51392L18.9196 5.54199L18.9164 5.55847L18.911 5.60658L18.9083 5.63286L18.9033 5.69835L18.9006 5.7331L18.8961 5.81417L18.8916 5.89837L18.8853 6.10106L18.8798 6.4365L18.8794 6.5305L18.8776 6.68909L18.8767 6.76393L18.8744 6.88733L18.8735 6.94479L18.8699 7.03701L18.8681 7.07977L18.8627 7.14615L18.86 7.176L18.8528 7.2201L18.8491 7.24014L18.8392 7.26687L18.799 7.3034L18.7941 7.30429L18.7711 7.30607L18.758 7.30652L18.7205 7.30697H18.7002L18.6497 7.30607L18.623 7.30518L18.5621 7.30296L18.4985 7.30073L18.3468 7.29271L18.0981 7.27712L17.9514 7.26643L17.6567 7.25618L17.5091 7.25262L17.2135 7.25663L17.0654 7.26064L16.7698 7.2789L16.6222 7.28959L16.3284 7.32167L16.1813 7.33948L15.8901 7.38537L15.7448 7.40987L15.4573 7.46956L15.3142 7.50075L15.0321 7.57381L14.6165 7.69854L14.4278 7.76002L14.0604 7.90079L13.8781 7.97429L13.5233 8.13689L13.3477 8.22108L13.007 8.40551L12.8386 8.49995L12.5123 8.70487L12.3516 8.80956L12.0406 9.03363L11.8876 9.14812L11.5934 9.39091L11.4485 9.5143L11.1714 9.77491L11.0346 9.90721L10.7755 10.1847L10.6483 10.3251L10.4077 10.6186L10.2899 10.767L10.0687 11.0757L9.96086 11.2316L9.76001 11.5541L9.66207 11.7172L9.48244 12.0531L9.39533 12.2224L9.23781 12.5707L9.16153 12.7467L9.02658 13.1062L8.96204 13.2875L8.85056 13.6581L8.71064 14.2252L8.67273 14.4047L8.61405 14.7647L8.58743 14.9447L8.55132 15.3046L8.53597 15.4846L8.52243 15.8441L8.51837 16.0236L8.52695 16.3813L8.53417 16.5595L8.56486 16.9146L8.58291 17.0919L8.63527 17.4433L8.66415 17.6189L8.73772 17.9659L8.77744 18.1387L8.87222 18.4809L8.92232 18.651L9.03787 18.9865L9.09835 19.1535L9.2351 19.4823L9.30551 19.6458L9.46258 19.9665L9.54337 20.1256L9.72029 20.4374L9.81101 20.592L10.0078 20.894L10.1089 21.0437L10.3251 21.335L10.4357 21.4794L10.6713 21.7587L11.0459 22.1645L11.1813 22.3022L11.467 22.5645L11.6119 22.6933L11.9152 22.9374L12.0691 23.0568L12.3895 23.2813L12.5516 23.3909L12.8869 23.5954L13.0562 23.6952L13.4055 23.8783L13.5815 23.9674L13.9435 24.1286L14.1254 24.2066L14.4982 24.3456L15.0678 24.5273L15.1639 24.5549L15.3467 24.6026L15.437 24.6253L15.6121 24.6645L15.7859 24.7019L16.1321 24.7536L16.2205 24.7652L16.4024 24.7826L16.4949 24.791L16.6899 24.8026L16.7897 24.808L17.0023 24.8142L17.3471 24.8191L17.4744 24.8196L17.7348 24.8178L17.8639 24.8169L18.1067 24.812L18.1649 24.8106L18.2732 24.8075L18.326 24.8062L18.4204 24.8026L18.4651 24.8008L18.5418 24.7968L18.6334 24.7902L18.6831 24.7857L18.7693 24.7795L18.8099 24.7768L18.8731 24.7746L18.9006 24.7737L18.9335 24.775L18.9417 24.7817L18.9367 24.7839L18.9277 24.8066L18.9232 24.8209L18.915 24.8654L18.9114 24.8899L18.9047 24.9527L18.9015 24.9862L18.8961 25.0641L18.8907 25.1452L18.8839 25.339L18.8812 25.4388L18.8794 25.6508L18.8789 25.7568L18.8821 25.9613L18.8843 26.0602L18.8925 26.2308L18.8947 26.2705L18.9006 26.3386L18.9033 26.3707L18.9105 26.4215L18.9141 26.4447L18.9227 26.4749L18.9363 26.4941H18.957L18.9647 26.5048L18.9268 26.5378L18.9123 26.5471L18.8947 26.56L18.8875 26.5658L18.8853 26.5734L18.8862 26.5765L18.8997 26.5796L18.9381 26.5814L18.9719 26.5819L19.0062 26.5948L19.0179 26.6028L19.0125 26.6251L19.0053 26.6367L18.9651 26.6603L18.8704 26.6897L18.8591 26.6919L18.8162 26.6963L18.7914 26.6981L18.7232 26.7026L18.6862 26.7044L18.5968 26.7088L18.5499 26.7106L18.4425 26.7146L18.3874 26.7164L18.266 26.72L18.2037 26.7217L18.0719 26.7253L17.9379 26.7284L17.6531 26.7338L17.5105 26.736L17.2293 26.7391L17.0921 26.7404L16.8429 26.7413H16.7843L16.6773 26.7404H16.6263L16.5369 26.7391L16.4954 26.7382L16.4277 26.736L16.397 26.7347M16.2413 23.3963L16.0395 23.362L15.6437 23.2693L15.4474 23.2194L15.0624 23.0964L14.8715 23.031L14.4982 22.8777L14.3132 22.7975L13.953 22.6144L13.7743 22.5196L13.4281 22.3075L13.2566 22.1975L12.9244 21.9569L12.7605 21.8331L12.4441 21.564L11.9878 21.1292L11.8177 20.9546L11.5076 20.588L11.3573 20.4022L11.0879 20.0142L10.9579 19.8177L10.7295 19.4097L10.6207 19.2034L10.4343 18.7775L10.3463 18.5628L10.2028 18.1205L10.1364 17.8977L10.0362 17.4411L9.99155 17.2113L9.93558 16.7413L9.90173 16.0245V15.8249L9.92566 15.4302L9.94145 15.2338L9.99607 14.8467L10.0277 14.6542L10.1121 14.276L10.1581 14.088L10.2718 13.7201L10.3323 13.5374L10.474 13.181L10.5481 13.0046L10.7164 12.6616L10.804 12.4914L10.998 12.1631L11.0982 12.0005L11.3171 11.6882L11.4295 11.5341L11.6719 11.2387L11.796 11.0935L12.0614 10.8169L12.1968 10.681L12.4834 10.4249L12.6296 10.2997L12.937 10.0649L13.0932 9.95087L13.4204 9.73927L13.586 9.63636L13.9318 9.44971L14.1069 9.35928L14.4698 9.19846L15.033 8.9873L15.1278 8.95612L15.3029 8.90177L15.3892 8.87594L15.5516 8.83183L15.7123 8.78951L16.0237 8.73116L16.1032 8.71824L16.2684 8.6973L16.3523 8.6875L16.5315 8.67235L16.6236 8.66522L16.824 8.65453L17.1562 8.6425L17.255 8.63983L17.4206 8.63538L17.4983 8.6336L17.6251 8.63137L17.6842 8.63048H17.7768L17.8196 8.63092L17.8833 8.6336L17.9117 8.63493L17.9514 8.64028L17.9681 8.6434L17.988 8.6523L17.9961 8.65676L18.0011 8.66879L17.9975 8.69062L17.9898 8.71066L17.9654 8.74185L17.9275 8.76323H17.9243L17.9185 8.77927L17.9158 8.78996L17.9108 8.82604L17.9085 8.84609L17.904 8.90044L17.9022 8.92984L17.8986 9.00111L17.8973 9.03853L17.8946 9.12451L17.8932 9.16906L17.8918 9.26885L17.8905 9.60964L17.8909 9.68626L17.8928 9.82213L17.8937 9.88717L17.8959 10.0008L17.8973 10.0547L17.9004 10.1473L17.9022 10.191L17.9067 10.2631L17.909 10.297L17.9144 10.3505L17.9171 10.3745L17.9239 10.4106L17.9275 10.4262L17.9352 10.4453L17.9487 10.4569H17.9641L17.9672 10.4694L17.9338 10.5006L17.9243 10.5064L17.8711 10.5175L17.8399 10.5224L17.751 10.5313L17.7032 10.5353L17.5904 10.5407L17.4067 10.5442L17.2934 10.5447L17.0758 10.5527L16.968 10.5581L16.7594 10.5768L16.6561 10.5875L16.4543 10.6173L16.3541 10.6338L16.1573 10.6757L16.0589 10.6984L15.864 10.7523L15.7669 10.7808L15.5719 10.8481L15.474 10.8833L15.2768 10.9634L14.9753 11.0998L14.8209 11.1741L14.5352 11.3345L14.3953 11.4174L14.1308 11.6L14.0008 11.6945L13.749 11.9065L13.3748 12.2642L13.2818 12.3605L13.1085 12.5591L13.0237 12.6594L12.8671 12.8665L12.7908 12.9712L12.6509 13.1873L12.5832 13.296L12.4599 13.5205L12.4008 13.6341L12.2943 13.8675L12.2433 13.9851L12.1535 14.2274L12.1106 14.3495L12.0375 14.6008L11.9468 14.9879L11.9346 15.048L11.9147 15.191L11.9052 15.2659L11.8908 15.4325L11.884 15.5175L11.875 15.6984L11.8714 15.7897L11.8678 15.9768L11.8669 16.0704L11.8691 16.2548L11.8714 16.3461L11.8795 16.5199L11.884 16.6045L11.898 16.7591L11.926 16.96L11.9517 17.1021L12.0203 17.3814L12.0573 17.52L12.1472 17.7913L12.195 17.9258L12.306 18.1882L12.3638 18.3178L12.4942 18.57L12.5615 18.6951L12.7109 18.9361L12.7876 19.0555L12.9542 19.2849L13.0395 19.3981L13.2232 19.6146L13.3166 19.7211L13.5156 19.9238L13.6167 20.0235L13.8307 20.2111L13.939 20.3033L14.1665 20.4753L14.2816 20.559L14.5212 20.714L14.6426 20.7898L14.8945 20.927L15.0213 20.9934L15.2835 21.1118L15.4158 21.1689L15.6875 21.2678L15.8247 21.3145L16.105 21.3925L16.5342 21.4852L16.587 21.4945L16.7251 21.5119L16.7978 21.5199L16.9607 21.5337L17.0438 21.54L17.2117 21.5493L17.4473 21.5555L17.5105 21.556L17.6152 21.5569L17.6639 21.5573L17.7425 21.5591L17.7786 21.56L17.8341 21.5631L17.8594 21.5649L17.895 21.5702L17.9108 21.5729L17.9302 21.5805L17.9383 21.5849L17.9447 21.5956L17.9307 21.6433L17.9271 21.6495L17.9212 21.6763L17.918 21.6914L17.9126 21.7351L17.9104 21.7591L17.9058 21.8184L17.904 21.85L17.9009 21.9235L17.8995 21.9623L17.8977 22.0496L17.8968 22.0946L17.8959 22.1935L17.8982 22.5294L17.8995 22.6149L17.9013 22.761L17.9022 22.8296V22.9441V22.998L17.9009 23.0849L17.9 23.1254L17.8968 23.1882L17.895 23.2167L17.8891 23.2595L17.886 23.2782L17.8783 23.304L17.8738 23.3152L17.863 23.3272L17.8436 23.3348L17.8341 23.3352L17.826 23.3392L17.8237 23.3415L17.8287 23.3486L17.8887 23.3749L17.8973 23.3775L17.904 23.3829L17.9054 23.3856L17.8968 23.39L17.8909 23.3922L17.8688 23.3967L17.8557 23.3985L17.8196 23.402L17.8002 23.4038L17.751 23.4069L17.7249 23.4083L17.663 23.4105L17.6305 23.4118L17.556 23.4132L17.4319 23.415L17.3534 23.4154L17.2004 23.4181L17.1255 23.4199L16.991 23.4239L16.9278 23.4261L16.8276 23.431L16.8055 23.4323L16.7698 23.4346L16.7324 23.4386L16.7143 23.4412H16.6534L16.6195 23.4404L16.5342 23.4341L16.4453 23.4265L16.2413 23.3963Z" fill="#9E2666"/>
</svg>
